<svg width="16" height="20" viewBox="0 0 16 20" fill="none" xmlns="http://www.w3.org/2000/svg">
<path d="M10.4796 2.51582L11.2796 1.07248C11.2898 1.05399 11.2963 1.03366 11.2987 1.01266C11.3011 0.991655 11.2993 0.97039 11.2934 0.950077C11.2876 0.929765 11.2778 0.910801 11.2646 0.894271C11.2515 0.87774 11.2352 0.863965 11.2167 0.853733C11.1982 0.843501 11.1779 0.837011 11.1569 0.834636C11.1359 0.83226 11.1146 0.834044 11.0943 0.839887C11.074 0.845729 11.055 0.855515 11.0385 0.868686C11.0219 0.881857 11.0082 0.898155 10.9979 0.91665L10.1896 2.37498C9.49956 2.07244 8.75429 1.91624 8.00085 1.91624C7.2474 1.91624 6.50213 2.07244 5.8121 2.37498L5.00376 0.91665C4.9831 0.879077 4.94835 0.851253 4.90717 0.839297C4.86599 0.827342 4.82175 0.832235 4.78418 0.852899C4.74661 0.873564 4.71878 0.908308 4.70683 0.949488C4.69487 0.990668 4.69977 1.03491 4.72043 1.07248L5.52043 2.51582C4.75925 2.89122 4.11615 3.46898 3.66164 4.18574C3.20712 4.90249 2.95875 5.73057 2.94376 6.57915H13.0579C13.0428 5.73039 12.7942 4.9022 12.3393 4.18543C11.8845 3.46865 11.2411 2.89099 10.4796 2.51582ZM5.6671 4.72832C5.5835 4.72832 5.50178 4.70352 5.43228 4.65705C5.36278 4.61059 5.30863 4.54456 5.27668 4.46731C5.24472 4.39006 5.23641 4.30506 5.25278 4.22308C5.26915 4.1411 5.30947 4.06582 5.36864 4.00677C5.42781 3.94771 5.50317 3.90754 5.58518 3.89133C5.66719 3.87512 5.75217 3.88361 5.82936 3.91572C5.90655 3.94782 5.97247 4.00211 6.0188 4.07169C6.06512 4.14128 6.08976 4.22305 6.0896 4.30665C6.08938 4.41856 6.04477 4.52581 5.96556 4.60486C5.88634 4.68392 5.77901 4.72832 5.6671 4.72832ZM10.3354 4.72832C10.2518 4.72832 10.1701 4.70352 10.1006 4.65705C10.0311 4.61059 9.97696 4.54456 9.94501 4.46731C9.91306 4.39006 9.90474 4.30506 9.92111 4.22308C9.93748 4.1411 9.9778 4.06582 10.037 4.00677C10.0961 3.94771 10.1715 3.90754 10.2535 3.89133C10.3355 3.87512 10.4205 3.88361 10.4977 3.91572C10.5749 3.94782 10.6408 4.00211 10.6871 4.07169C10.7335 4.14128 10.7581 4.22305 10.7579 4.30665C10.7577 4.41856 10.7131 4.52581 10.6339 4.60486C10.5547 4.68392 10.4473 4.72832 10.3354 4.72832ZM2.9421 14.3091C2.94188 14.47 2.97342 14.6294 3.03491 14.7781C3.09641 14.9267 3.18664 15.0618 3.30045 15.1756C3.41426 15.2893 3.54939 15.3794 3.69811 15.4408C3.84683 15.5022 4.00621 15.5336 4.1671 15.5333H4.97793V18.0333C4.97793 18.334 5.09738 18.6224 5.31 18.835C5.52262 19.0476 5.81099 19.1671 6.11168 19.1671C6.41237 19.1671 6.70074 19.0476 6.91336 18.835C7.12598 18.6224 7.24543 18.334 7.24543 18.0333V15.5333H8.7571V18.0333C8.7571 18.3339 8.8765 18.6222 9.08904 18.8347C9.30158 19.0472 9.58985 19.1667 9.89043 19.1667C10.191 19.1667 10.4793 19.0472 10.6918 18.8347C10.9044 18.6222 11.0238 18.3339 11.0238 18.0333V15.5333H11.8354C11.9961 15.5334 12.1552 15.5019 12.3037 15.4404C12.4522 15.379 12.5871 15.2889 12.7007 15.1753C12.8143 15.0616 12.9044 14.9267 12.9659 14.7783C13.0273 14.6298 13.0589 14.4707 13.0588 14.31V6.97915H2.9421V14.3091ZM1.38626 6.78415C1.08568 6.78459 0.797538 6.90425 0.585068 7.11688C0.372599 7.3295 0.25315 7.61773 0.25293 7.91832V12.6425C0.25293 12.7913 0.282244 12.9387 0.339199 13.0762C0.396155 13.2137 0.479636 13.3386 0.584875 13.4439C0.690115 13.5491 0.815053 13.6326 0.952555 13.6895C1.09006 13.7465 1.23743 13.7758 1.38626 13.7758C1.53509 13.7758 1.68247 13.7465 1.81997 13.6895C1.95747 13.6326 2.08241 13.5491 2.18765 13.4439C2.29289 13.3386 2.37637 13.2137 2.43333 13.0762C2.49028 12.9387 2.5196 12.7913 2.5196 12.6425V7.91832C2.51916 7.61787 2.39961 7.32986 2.18716 7.11742C1.97472 6.90497 1.68671 6.78542 1.38626 6.78498V6.78415ZM14.6129 6.78415C14.3123 6.78459 14.0242 6.90425 13.8117 7.11688C13.5993 7.3295 13.4798 7.61773 13.4796 7.91832V12.6425C13.4796 12.7913 13.5089 12.9387 13.5659 13.0762C13.6228 13.2137 13.7063 13.3386 13.8115 13.4439C13.9168 13.5491 14.0417 13.6326 14.1792 13.6895C14.3167 13.7465 14.4641 13.7758 14.6129 13.7758C14.7618 13.7758 14.9091 13.7465 15.0466 13.6895C15.1841 13.6326 15.3091 13.5491 15.4143 13.4439C15.5196 13.3386 15.603 13.2137 15.66 13.0762C15.7169 12.9387 15.7463 12.7913 15.7463 12.6425V7.91832C15.7458 7.61787 15.6263 7.32986 15.4138 7.11742C15.2014 6.90497 14.9134 6.78542 14.6129 6.78498V6.78415Z" fill="#040505"/>
</svg>
