<svg width="46" height="46" viewBox="0 0 46 46" fill="none" xmlns="http://www.w3.org/2000/svg">
<path d="M41.2527 5.13802C29.68 -0.751666 15.859 -0.587865 4.83257 4.88115C-0.853314 14.8807 -1.03436 28.8717 4.83257 41.2635C16.9804 47.4047 30.4159 47.0002 41.3381 41.5203C46.4712 30.9996 47.319 18.3398 41.2527 5.13802ZM21.7076 34.9969L21.0217 35.0046C20.8518 33.111 20.3987 31.5195 19.4268 30.3015C14.9697 24.7178 5.85858 28.9217 8.19969 19.4321C9.41699 14.5807 23.3019 11.7195 21.7076 34.9969ZM8.21615 25.6242C9.18937 27.6032 15.2867 27.9274 17.4033 29.4422C20.7608 31.8449 20.2789 35.0055 20.2789 35.0055H19.487C17.9281 30.2321 13.553 34.0116 10.0486 32.726C7.84848 31.9442 6.25109 28.5556 8.21615 25.6242ZM19.3252 41.1856L19.6531 38.5874L20.2432 38.6312L19.9807 41.4912C19.7162 42.751 17.8359 42.5825 17.5986 41.382L17.9045 38.4128L18.6038 38.5223L18.298 41.0109C18.3368 41.8346 19.1637 41.7853 19.3252 41.1856ZM16.1854 41.8951L15.5128 41.7328C15.5917 41.1775 16.2509 40.0477 14.9479 40.0477L14.5852 41.5244L13.843 41.3854L14.6315 37.8404C16.5587 38.0501 16.7273 38.5859 16.7655 39.161C16.6894 39.6072 16.5705 39.9186 16.1857 39.9949C16.636 40.4032 16.191 41.2588 16.1854 41.8951ZM11.9134 37.9245C11.728 38.1702 11.3569 39.0286 11.3032 39.7126C11.246 40.4376 11.9432 40.285 12.1168 40.2003C12.2568 40.1324 12.3609 39.5501 12.3609 39.5501L11.8727 39.3875L12.0354 38.9001L13.1341 39.2659L12.6052 41.095L12.1578 40.9728L12.1984 40.6883C11.6507 40.9377 10.6479 40.7507 10.5303 40.1193C10.4126 39.6121 10.7691 38.0743 11.3439 37.3558C11.9025 36.6572 13.2636 37.34 13.2968 37.7622C13.3297 38.1829 13.1636 38.6563 13.1636 38.6563L12.6512 38.5598C12.6512 38.5598 12.6826 38.4078 12.7273 38.1683C12.7745 37.9145 12.1121 37.6605 11.9134 37.9245ZM21.9042 40.9014L21.7732 42.4737L21.2269 42.4519L21.4235 38.7183C22.7877 38.7466 23.5696 38.9352 23.5435 39.8975C23.4622 41.2123 22.3964 40.9166 21.9042 40.9014ZM23.264 35.0052H22.3501C22.2691 31.772 22.8914 25.8582 21.1909 21.506C19.9025 18.2067 16.6419 16.7226 15.9193 14.0574C14.7753 9.8389 16.7223 5.27452 23.264 4.92303C28.9353 5.5047 30.6777 9.87861 29.7104 13.951C28.0472 18.0227 26.3837 17.4376 24.3127 21.4936C22.6212 25.8414 23.2653 31.5375 23.264 35.0052ZM33.3996 40.9889L32.7658 41.2073L32.5689 37.452L33.312 37.2556L35.1479 40.3557L34.6451 40.6833L34.0331 39.8104L33.3337 40.0722L33.3996 40.9889ZM26.0054 35.0052H25.2744C25.8769 26.7017 36.3217 28.5056 37.2763 25.6242C38.9271 28.4808 38.3336 30.8894 36.6099 32.1241C32.3264 35.1935 28.2189 29.8526 26.0054 35.0052ZM29.8812 39.1989L30.2091 40.9238C30.4132 41.3212 30.5516 41.2476 30.8647 41.2076C31.2277 40.9452 31.1519 40.6895 31.0833 40.356L31.7171 40.2689C31.8823 41.5185 31.2876 41.646 30.8429 41.7316C29.8893 41.7998 29.7023 41.6143 29.4443 40.3781C29.294 39.3199 29.0344 38.2024 29.925 37.9983C31.387 37.7753 31.3007 38.4326 31.4329 38.8933L30.7991 39.0028C30.6979 38.607 30.5523 38.45 30.2309 38.4792C29.938 38.6135 29.8179 38.831 29.8812 39.1989ZM28.5481 40.9889C28.5785 41.5327 28.3937 41.8938 28.0453 42.0151L26.5591 42.3207L25.9691 38.7183C26.274 38.6687 27.7693 38.1215 28.1326 39.1117C28.3118 39.7164 28.1261 39.9332 27.914 40.2031C28.3161 40.3322 28.4518 40.6449 28.5481 40.9889ZM24.7316 22.911C28.0425 13.5979 35.6186 15.2437 37.2989 19.4324C39.6009 27.8374 32.1885 25.5324 27.4404 28.979C25.6458 30.5383 24.7015 32.327 24.6875 35.0387H23.8739C23.8252 29.5769 23.7367 25.7092 24.7316 22.911Z" fill="#005FAF"/>
</svg>
