<svg width="154" height="48" viewBox="0 0 154 48" fill="none" xmlns="http://www.w3.org/2000/svg">
<g clip-path="url(#clip0_3715_9653)">
<path d="M82.9963 22.8487C92.6645 18.4635 94.0943 4.15332 80.3421 4.15332H64.4161L58.5305 15.6938H61.3003L54.2605 43.2754H72.7252C86.1962 43.3905 92.2545 27.5281 82.9963 22.8487ZM72.7252 33.2353H68.109L69.84 27.0036H74.2252C79.4185 28.042 76.1875 33.4659 72.7252 33.2353ZM75.4949 19.9635H71.5713L72.7252 14.5396H77.1104C81.3477 15.5783 77.6879 20.1945 75.4949 19.9635Z" fill="#005FAF"/>
<path d="M120.802 18.8917L126.848 8.21857L118.667 3.95117L117.6 5.26819C113.187 2.93197 90.0765 6.15768 88.6294 28.955C89.4944 48.0792 110.924 44.6391 113.026 43.4256L118.919 31.2419C113.147 35.044 101.328 36.8693 100.828 25.448C101.864 16.0297 112.984 12.5124 120.802 18.8917ZM150.973 4.15303H132.386L126.478 15.348H129.513L115.505 43.2751H129.064L131.847 36.5391H140.17L140.378 43.2751H152.858L150.973 4.15303ZM135.618 27.4699L140.17 16.6051L140.377 27.4699H135.618Z" fill="#005FAF"/>
<path d="M34.9008 41.4073L35.6229 41.1978L34.831 40.1035L34.9008 41.4073ZM23.047 41.221L22.9074 42.1992C23.2667 42.1641 23.7092 42.4738 23.8855 41.7799C23.8723 41.2392 23.4606 41.2094 23.047 41.221ZM28.7995 41.1978C28.7396 40.9314 28.5173 40.7352 27.961 40.9185L28.1473 41.9195C28.6043 41.8183 28.8392 41.5479 28.7995 41.1978ZM15.8044 40.3785L15.582 41.268C15.9394 41.2829 16.358 41.5728 16.5953 41.0456C16.6112 40.7154 16.6247 40.3864 15.8044 40.3785ZM28.3104 42.6651L28.4736 43.6899C28.8551 43.6995 29.2032 43.4702 29.1023 42.9914C29.005 42.5307 28.6182 42.6035 28.3104 42.6651Z" fill="#005FAF"/>
<path d="M43.4556 4.68054C31.1236 -1.60177 16.3958 -1.42705 4.64589 4.40654C-1.41305 15.0727 -1.60597 29.9964 4.64589 43.2142C17.5907 49.7649 31.9078 49.3334 43.5466 43.4882C49.0165 32.2661 49.9199 18.7624 43.4556 4.68054ZM22.6281 36.5299L21.8972 36.5381C21.7162 34.5183 21.2334 32.8207 20.1976 31.5216C15.4481 25.5655 5.73921 30.0497 8.23393 19.9275C9.5311 14.7527 24.327 11.7008 22.6281 36.5299ZM8.25147 26.5324C9.28854 28.6433 15.7859 28.9891 18.0414 30.6049C21.6192 33.1678 21.1056 36.5391 21.1056 36.5391H20.2618C18.6006 31.4474 13.9385 35.4789 10.2042 34.1076C7.85968 33.2737 6.15748 29.6592 8.25147 26.5324ZM20.0894 43.1312L20.4388 40.3598L21.0676 40.4065L20.788 43.4571C20.506 44.8009 18.5024 44.6213 18.2496 43.3406L18.5755 40.1735L19.3207 40.2903L18.9948 42.9449C19.0361 43.8234 19.9173 43.7708 20.0894 43.1312ZM16.7436 43.888L16.0268 43.7149C16.1109 43.1226 16.8134 41.9174 15.4249 41.9174L15.0384 43.4925L14.2475 43.3443L15.0877 39.563C17.1413 39.7867 17.321 40.3582 17.3617 40.9717C17.2807 41.4475 17.1539 41.7797 16.7439 41.8611C17.2237 42.2966 16.7495 43.2093 16.7436 43.888ZM12.1913 39.6527C11.9937 39.9147 11.5983 40.8304 11.541 41.56C11.4802 42.3334 12.223 42.1705 12.408 42.0802C12.5573 42.0077 12.6681 41.3866 12.6681 41.3866L12.1479 41.2132L12.3213 40.6934L13.4921 41.0835L12.9285 43.0345L12.4517 42.9042L12.495 42.6007C11.9113 42.8668 10.8428 42.6672 10.7174 41.9938C10.592 41.4528 10.9719 39.8125 11.5844 39.0461C12.1797 38.3009 13.6301 39.0292 13.6655 39.4796C13.7005 39.9283 13.5235 40.4333 13.5235 40.4333L12.9775 40.3304C12.9775 40.3304 13.0109 40.1682 13.0586 39.9128C13.1089 39.6421 12.4031 39.3711 12.1913 39.6527ZM22.8376 42.8281L22.698 44.5051L22.1159 44.4819L22.3254 40.4995C23.779 40.5296 24.6123 40.7308 24.5845 41.7572C24.4978 43.1596 23.3621 42.8443 22.8376 42.8281ZM24.2867 36.5388H23.3128C23.2264 33.0901 23.8896 26.7819 22.0775 22.1396C20.7046 18.6204 17.23 17.0373 16.46 14.1945C15.2409 9.6948 17.3157 4.82614 24.2867 4.45122C30.33 5.07167 32.1868 9.73716 31.156 14.081C29.3836 18.4242 27.611 17.8001 25.4041 22.1264C23.6017 26.7641 24.288 32.8399 24.2867 36.5388ZM35.0872 42.9214L34.4118 43.1543L34.202 39.1487L34.9939 38.9392L36.9502 42.246L36.4145 42.5954L35.7622 41.6643L35.017 41.9435L35.0872 42.9214ZM27.2079 36.5388H26.429C27.0709 27.6817 38.201 29.6059 39.2183 26.5324C40.9774 29.5795 40.345 32.1486 38.5081 33.4657C33.9436 36.7397 29.5666 31.0427 27.2079 36.5388ZM31.338 41.012L31.6874 42.8519C31.9048 43.2758 32.0524 43.1974 32.386 43.1547C32.7728 42.8747 32.6921 42.6021 32.6189 42.2463L33.2943 42.1533C33.4704 43.4862 32.8367 43.6222 32.3628 43.7136C31.3466 43.7864 31.1474 43.5885 30.8724 42.2698C30.7122 41.1411 30.4356 39.9492 31.3847 39.7314C32.9426 39.4935 32.8506 40.1947 32.9916 40.6861L32.3162 40.8029C32.2083 40.3807 32.0531 40.2132 31.7106 40.2443C31.3986 40.3876 31.2705 40.6196 31.338 41.012ZM29.9174 42.9214C29.9498 43.5015 29.7529 43.8866 29.3817 44.016L27.7979 44.342L27.1692 40.4995C27.4942 40.4465 29.0875 39.8628 29.4746 40.919C29.6656 41.564 29.4677 41.7953 29.2417 42.0832C29.6702 42.2208 29.8148 42.5544 29.9174 42.9214ZM25.8505 23.6383C29.3787 13.7044 37.4519 15.4599 39.2424 19.9278C41.6954 28.8931 33.7966 26.4345 28.7371 30.1109C26.8247 31.774 25.8184 33.6821 25.8035 36.5745H24.9366C24.8846 30.7486 24.7903 26.6231 25.8505 23.6383Z" fill="#005FAF"/>
</g>
<defs>
<clipPath id="clip0_3715_9653">
<rect width="153.061" height="48" fill="white"/>
</clipPath>
</defs>
</svg>
