<svg width="304" height="277" viewBox="0 0 304 277" fill="none" xmlns="http://www.w3.org/2000/svg">
<g clip-path="url(#clip0_2624_5401)">
<path d="M304 276.585H13.2268" stroke="#090814" stroke-width="1.5" stroke-miterlimit="10"/>
<path d="M77.3063 73.9657H59.2485V95.6171H77.3063V73.9657Z" fill="#D9D9D9"/>
<path d="M97.1698 77.5743H79.1121V95.6171H97.1698V77.5743Z" fill="#D9D9D9"/>
<path d="M117.034 77.5743H98.9758V95.6171H117.034V77.5743Z" fill="#D9D9D9"/>
<path d="M156.761 81.1829H138.703V95.6171H156.761V81.1829Z" fill="#D9D9D9"/>
<path d="M136.897 27.0543H118.839V95.6171H136.897V27.0543Z" fill="#508CAE"/>
<path d="M215.939 0.415161H0.415527V95.6323H215.939V0.415161Z" stroke="#090814" stroke-width="1.5" stroke-miterlimit="10"/>
<path d="M258.112 246.214L250.456 254.245L242.298 246.709L249.953 238.678L258.112 246.214Z" fill="#ED9DA0"/>
<path d="M264.226 254.44L247.954 271.512C246.563 272.971 244.826 274.124 242.93 274.846L238.394 276.573C237.456 276.931 236.376 276.724 235.642 276.046C234.782 275.252 234.564 273.979 235.113 272.951L239.477 264.772L244.133 248.186L244.184 248.217C245.451 248.996 247.372 250.166 247.509 250.215C249.92 250.301 251.647 249.695 252.64 248.415C254.373 246.182 253.274 242.618 253.263 242.582L253.254 242.555L253.276 242.536C253.781 242.105 254.313 241.932 254.858 242.023C256.013 242.216 256.84 243.513 256.961 243.713C258.045 243.667 261.375 246.273 261.643 246.484C263.277 246.479 264.476 246.867 265.204 247.635C265.841 248.307 266.119 249.26 266.029 250.469C265.921 251.923 265.281 253.333 264.226 254.44Z" fill="#090814"/>
<path d="M249.274 255.461H238.086V266.474H249.274V255.461Z" fill="#ED9DA0"/>
<path d="M247.364 276.492H223.583C221.551 276.492 219.508 276.034 217.676 275.167L213.292 273.093C212.386 272.664 211.8 271.747 211.8 270.757C211.8 269.596 212.594 268.568 213.731 268.259L222.775 265.795L238.249 257.788L238.26 257.846C238.549 259.289 238.998 261.468 239.055 261.601C240.642 263.39 242.272 264.215 243.9 264.052C246.74 263.769 248.627 260.541 248.646 260.508L248.661 260.483L248.69 260.486C249.355 260.554 249.846 260.818 250.152 261.271C250.799 262.232 250.404 263.713 250.339 263.937C251.115 264.684 251.463 268.857 251.49 269.194C252.612 270.364 253.145 271.49 253.074 272.538C253.013 273.455 252.496 274.307 251.539 275.07C250.388 275.987 248.905 276.492 247.364 276.492Z" fill="#090814"/>
<path d="M250.602 116.754L210.959 116.773L197.744 199.142L237.388 246.221L250.602 234.451L219.272 199.142L250.602 116.754Z" fill="#090814"/>
<path d="M227.17 128.896L250.602 116.754V257.991L237.388 258.353L227.17 128.896Z" fill="#090814"/>
<path d="M203.7 149.785L203.979 136.928L196.466 136.765L196.187 149.622C194.785 150.922 193.86 152.942 193.81 155.233C193.723 159.24 196.343 162.547 199.663 162.619C202.982 162.691 205.744 159.501 205.831 155.493C205.881 153.203 205.044 151.144 203.7 149.785Z" fill="#ED9DA0"/>
<path d="M239.326 24.2209C239.326 24.2209 250.111 24.1977 246.082 13.8147C242.053 3.43172 234.551 8.08074 234.551 8.08074C234.551 8.08074 231.39 9.74906 232.042 13.4713" fill="#090814"/>
<path d="M240.406 29.2013C240.406 21.2406 233.947 14.7872 225.98 14.7872C218.013 14.7872 211.554 21.2406 211.554 29.2013C211.554 35.6575 215.802 41.1215 221.658 42.9566L224.447 61.372L238.664 49.5343C238.664 49.5343 235.592 45.6255 233.945 41.2181C237.838 38.6367 240.406 34.2194 240.406 29.2013Z" fill="#ED9DA0"/>
<path d="M232.911 41.3778C232.911 41.3778 234.826 34.039 231.694 30.6647C228.569 27.298 228.165 32.5364 228.165 32.5364L225.91 32.0466C225.91 32.0466 226.302 26.9522 221.89 26.0705L224.733 19.9965C224.733 19.9965 213.847 22.1085 213.547 21.055C211.186 12.7657 233.709 5.68474 239.931 18.3311C249.608 38.0003 232.911 41.3778 232.911 41.3778Z" fill="#090814"/>
<path d="M220.168 54.2189C209.695 56.2637 201.834 64.9768 200.881 75.5967L194.362 148.225H205.802L220.168 54.2189Z" fill="#508CAE"/>
<path d="M209.351 112.084L207.57 132.591L255.932 118.378L250.039 103.557L261.012 78.3801L238.613 46.3005L220.731 47.5187L213.822 56.4523" fill="#508CAE"/>
<path d="M248.791 131.559L255.536 120.607L249.136 116.671L242.391 127.624C240.524 128.038 238.703 129.313 237.501 131.265C235.399 134.679 235.987 138.856 238.814 140.594C241.642 142.333 245.639 140.975 247.742 137.561C248.943 135.61 249.263 133.411 248.791 131.559Z" fill="#ED9DA0"/>
<path d="M234.955 46.7066L238.855 46.5449L245.522 51.5794C253.422 52.9255 255.713 53.3029 258.134 58.517C259.151 60.708 259.825 63.0421 260.202 65.4277L265.842 101.12L251.665 135.23L242.271 124.672L252.314 98.0043L250.645 91.6253" fill="#508CAE"/>
</g>
<defs>
<clipPath id="clip0_2624_5401">
<rect width="304" height="277" fill="white"/>
</clipPath>
</defs>
</svg>
