<svg width="245" height="284" viewBox="0 0 245 284" fill="none" xmlns="http://www.w3.org/2000/svg">
<g clip-path="url(#clip0_2624_5533)">
<path d="M58.0908 283.794H151.165C163.293 283.794 173.159 273.938 173.159 261.824V21.9698C173.159 9.85553 163.293 0 151.165 0H58.0908C45.9632 0 36.0967 9.85553 36.0967 21.9698V261.824C36.0967 273.938 45.9632 283.794 58.0908 283.794Z" fill="#2F2E41"/>
<path d="M57.9961 277.865H151.26C160.36 277.865 167.763 270.469 167.763 261.38V21.0665C167.763 11.9769 160.36 4.58167 151.26 4.58167H57.9961C48.8965 4.58167 41.4931 11.9769 41.4931 21.0665V261.38C41.4931 270.469 48.8964 277.865 57.9961 277.865Z" fill="white"/>
<path d="M90.0584 20.2132H119.737C123.159 20.2132 125.943 17.4326 125.943 14.0145C125.943 10.5964 123.159 7.8158 119.737 7.8158H90.0584C86.6365 7.8158 83.8528 10.5964 83.8528 14.0145C83.8528 17.4326 86.6365 20.2132 90.0584 20.2132Z" fill="#2F2E41"/>
<path d="M2.8001e-05 283.651H244.775" stroke="#090814" stroke-width="1.5" stroke-miterlimit="10"/>
<path d="M68.5955 204.773H99.2291C100.425 204.773 101.395 205.742 101.395 206.937V216.214C101.395 217.409 100.425 218.378 99.2291 218.378H68.5955C67.3991 218.378 66.4293 217.409 66.4293 216.214V206.937C66.4293 205.742 67.3991 204.773 68.5955 204.773Z" fill="white"/>
<path d="M68.7719 218.756H99.0523C100.553 218.756 101.773 217.537 101.773 216.038V207.114C101.773 205.615 100.553 204.396 99.0523 204.396H68.7719C67.2715 204.396 66.0508 205.615 66.0508 207.114V216.038C66.0508 217.537 67.2715 218.756 68.7719 218.756Z" fill="#508CAE"/>
<path d="M114.417 204.773H145.051C146.247 204.773 147.217 205.742 147.217 206.937V216.214C147.217 217.409 146.247 218.378 145.051 218.378H114.417C113.221 218.378 112.251 217.409 112.251 216.214V206.937C112.251 205.742 113.221 204.773 114.417 204.773Z" fill="white" stroke="#090814" stroke-width="1.5" stroke-miterlimit="10"/>
<path d="M114.594 218.756H144.874C146.375 218.756 147.595 217.537 147.595 216.038V207.114C147.595 205.615 146.375 204.396 144.874 204.396H114.594C113.093 204.396 111.873 205.615 111.873 207.114V216.038C111.873 217.537 113.093 218.756 114.594 218.756Z" fill="#DCDCDC"/>
<path d="M71.9917 71.4468H140.685C143.658 71.4468 146.067 73.8535 146.067 76.8223V145.44C146.067 148.409 143.658 150.816 140.685 150.816H71.9917C69.0197 150.816 66.6103 148.409 66.6103 145.44V76.8223C66.6103 73.8535 69.0197 71.4468 71.9917 71.4468Z" fill="#DCDCDC"/>
<path d="M76.8619 114.307C76.8619 123.813 83.1222 131.858 91.7504 134.563L92.7101 140.889L93.4276 145.646L94.2079 150.815H108.926L114.406 146.255L116.81 144.258C116.81 144.258 115.859 143.039 114.595 141.095H114.586C113.823 139.921 112.935 138.479 112.092 136.866C111.357 135.495 110.639 133.999 110.029 132.458C109.975 132.306 109.913 132.154 109.859 132.001C115.59 128.203 119.375 121.698 119.375 114.307C119.375 102.58 109.859 93.0737 98.1184 93.0737C89.4813 93.0737 82.037 98.2252 78.7185 105.617C77.5256 108.269 76.8619 111.207 76.8619 114.307Z" fill="#F0A0A3"/>
<path d="M109.269 132.651C109.269 132.651 113.322 112.167 107.464 114.606C101.606 117.044 103.173 121.165 103.173 121.165L97.5594 112.876V103.367L93.8981 99.2221L78.2767 105.805C78.2767 105.805 69.9778 81.4235 93.6541 89.2256C93.6541 89.2256 113.913 80.9359 119.771 95.321C133.66 127.726 109.269 132.651 109.269 132.651Z" fill="#2F2E43"/>
<path d="M84.862 150.815H124.281L115.76 142.116C115.393 141.74 115.007 141.408 114.595 141.095H114.586C111.491 138.774 107.294 138.389 103.787 140.226L93.4275 145.646L84.9608 150.081L84.862 150.815Z" fill="#2F2E43"/>
<path d="M82.6827 150.815H96.5578C99.1858 149.167 102.128 147.339 105.132 145.503C106.209 144.849 107.384 144.553 108.612 144.553C110.442 144.553 112.415 145.198 114.406 146.255C116.559 147.402 118.738 149.024 120.801 150.815H137.394L137.008 150.081L138.102 148.02C140.273 143.917 136.533 139.456 130.38 138.81L112.092 136.866L108.523 136.49C102.495 135.854 96.4682 137.538 92.7101 140.889C92.6563 140.934 92.6026 140.988 92.5487 141.032L83.6873 149.176C83.1492 149.669 82.8173 150.233 82.6827 150.815Z" fill="#508CAE"/>
<path d="M159.77 154.62L166.165 142.032L173.523 145.762L167.128 158.35C167.811 160.334 167.66 162.768 166.52 165.011C164.527 168.935 160.275 170.78 157.024 169.132C153.773 167.484 152.754 162.967 154.747 159.043C155.886 156.801 157.764 155.241 159.77 154.62Z" fill="#F0A0A3"/>
<path d="M203.173 97.7027L170.865 158.022L158.232 151.27L186.535 89.4651" fill="#508CAE"/>
<path d="M185.525 111.839L176.719 152.692L215.096 154.029C215.096 154.029 210.068 125.657 211.853 120.754L185.525 111.839Z" fill="#F0A0A3"/>
<path d="M178.192 275.671H169.224V263.864H178.192V275.671Z" fill="#F0A0A3"/>
<path d="M180.008 282.662C180.775 282.042 181.189 281.349 181.239 280.604C181.296 279.75 180.868 278.835 179.969 277.883C179.947 277.609 179.668 274.215 179.046 273.607C179.099 273.425 179.415 272.221 178.896 271.439C178.651 271.07 178.257 270.855 177.724 270.8L177.701 270.798L177.689 270.818C177.674 270.845 176.161 273.47 173.885 273.701C172.579 273.833 171.273 273.162 170.001 271.707C169.955 271.599 169.596 269.827 169.364 268.653L169.354 268.606L156.951 275.118L149.701 277.123C148.789 277.374 148.153 278.21 148.153 279.154C148.153 279.96 148.623 280.706 149.349 281.054L152.864 282.742C154.332 283.447 155.969 283.82 157.599 283.82H176.662C177.897 283.82 179.085 283.409 180.008 282.662Z" fill="#2F2E43"/>
<path d="M240.642 269.816L232.031 272.318L228.729 260.981L237.34 258.479L240.642 269.816Z" fill="#F0A0A3"/>
<path d="M244.341 276.023C244.904 275.213 245.108 274.432 244.947 273.702C244.762 272.867 244.096 272.108 242.967 271.445C242.869 271.187 241.652 268.006 240.885 267.596C240.884 267.407 240.851 266.162 240.134 265.556C239.796 265.27 239.358 265.174 238.83 265.27L238.807 265.274L238.802 265.297C238.795 265.327 238.076 268.27 235.955 269.127C234.739 269.618 233.296 269.338 231.668 268.295C231.594 268.205 230.753 266.603 230.202 265.541L230.18 265.498L220.092 275.212L213.69 279.16C212.886 279.656 212.508 280.636 212.772 281.542C212.998 282.316 213.657 282.901 214.452 283.033L218.299 283.673C219.906 283.94 221.582 283.841 223.147 283.387L241.451 278.068C242.637 277.723 243.663 276.997 244.341 276.023Z" fill="#2F2E43"/>
<path d="M219.242 133.257L180.864 134.148C180.864 134.148 157.544 201.298 158.436 265.041H190.45L192.351 191.045L197.912 267.913L240.1 265.487L219.242 133.257Z" fill="#2F2E43"/>
<path d="M182.536 58.2592C182.536 50.216 189.064 43.6957 197.116 43.6957C205.168 43.6957 211.695 50.216 211.695 58.2592C211.695 63.3286 209.101 67.7912 205.167 70.3995C206.832 74.8532 209.937 78.8035 209.937 78.8035L195.568 90.764L192.75 72.1577C186.831 70.3044 182.536 64.7831 182.536 58.2592Z" fill="#F0A0A3"/>
<path d="M192.784 79.1417L209.295 75.1299L219.879 88.6663C222.4 93.8036 222.798 99.7251 220.987 105.153L212.211 131.452C212.211 131.452 185.435 131.006 179.634 115.405L177.971 111.944C175.698 107.213 176.213 101.617 179.313 97.3801L192.784 79.1417Z" fill="#508CAE"/>
<path d="M210.359 166.09L210.052 151.977L218.302 151.798L218.609 165.911C220.148 167.339 221.164 169.556 221.218 172.071C221.314 176.47 218.437 180.101 214.792 180.18C211.147 180.259 208.115 176.756 208.019 172.357C207.964 169.842 208.883 167.583 210.359 166.09Z" fill="#F0A0A3"/>
<path d="M221.748 95.4509V163.861H207.421L203.187 96.0284" fill="#508CAE"/>
<path d="M204.805 60.413C204.805 60.413 193.322 56.6074 196.152 52.2874C196.152 52.2874 183.964 54.4081 183.65 52.2874C183.335 50.1667 183.65 36.5782 200.163 38.7775C216.675 40.9768 214.474 54.8009 214.474 54.8009C214.474 54.8009 213.268 68.164 204.383 70.9131C204.383 70.9131 211.253 57.6639 204.805 60.413Z" fill="#2F2E43"/>
<path d="M208.425 46.5844C208.425 46.5844 211.816 44.1382 215.772 44.8909C217.156 45.1543 218.622 46.1669 219.942 47.372C222.599 49.7978 224.57 52.8724 225.853 56.232C229.311 65.2866 236.568 87.9345 223.872 90.7111C207.954 94.1923 206.965 60.5563 206.965 60.5563L208.425 46.5844Z" fill="#2F2E43"/>
</g>
<defs>
<clipPath id="clip0_2624_5533">
<rect width="245" height="284" fill="white" transform="matrix(-1 0 0 1 245 0)"/>
</clipPath>
</defs>
</svg>
