<svg width="558" height="285" viewBox="0 0 558 285" fill="none" xmlns="http://www.w3.org/2000/svg">
<g clip-path="url(#clip0_2624_6018)">
<path d="M533.232 157.564L531.484 171.472L527.146 206.016H439.995C440.675 198.274 441.606 187.13 442.599 175.099C442.697 173.897 442.8 172.688 442.898 171.472C445.39 141.23 448.118 107.008 448.118 107.008L459.575 109.141L481.805 113.272L490.863 114.954L515.12 119.467C527.214 121.712 535.533 139.21 533.232 157.564Z" fill="#F2F2F2"/>
<path d="M467.31 51.0462L478.027 69.7863L457.429 84.3733L448.642 61.3381L467.31 51.0462Z" fill="#FFB6B6"/>
<path d="M453.666 68.7752C468.33 68.7752 480.217 56.8974 480.217 42.2453C480.217 27.5932 468.33 15.7153 453.666 15.7153C439.003 15.7153 427.116 27.5932 427.116 42.2453C427.116 56.8974 439.003 68.7752 453.666 68.7752Z" fill="#FFB6B6"/>
<path d="M451.76 48.1762C449.651 44.9702 450.479 43.2933 448.714 42.115C448.714 42.115 448.004 41.6409 442.921 41.3706C441.783 33.1861 440.362 32.1935 440.362 32.1935C438.725 31.0496 436.295 31.4213 434.783 32.1209C431.586 33.6006 431.957 36.7969 429.804 37.4086C426.83 38.2535 421.42 33.4902 420.887 28.0372C420.452 23.5891 423.32 19.2689 424.458 19.4974C425.585 19.724 428.286 16.2793 429.744 16.3324C430.74 16.3687 434.808 14.6018 435.902 14.7399C437.098 14.8908 441.038 16.9458 441.203 16.4763C442.344 13.2137 442.008 12.3085 442.977 11.3752C444.693 9.7213 447.499 10.873 451.903 11.4913C460.963 12.7635 462.544 9.77839 467.188 11.8017C469.533 12.8238 471.496 15.5803 475.325 21.0514C480.681 28.7028 483.358 32.5285 483.375 36.9906C483.393 41.5411 481.188 41.2523 480.219 47.989C479.141 55.4881 481.432 58.9171 478.929 61.3534C476.995 63.2364 473.063 63.6833 470.997 62.0307C467.46 59.2014 472.089 52.3742 468.175 47.3862C465.772 44.3244 460.94 42.9621 458.727 44.4755C456.224 46.1868 457.603 51.2098 455.843 51.6862C454.336 52.0941 452.127 48.7349 451.76 48.1762Z" fill="#2F2E41"/>
<path d="M513.608 152.666C512.867 165.318 509.926 169.313 508.896 184.255C508.67 187.536 508.535 191.344 508.535 195.885C508.535 197.043 508.542 198.162 508.542 199.256C508.542 201.584 508.497 203.784 508.226 206.016C508.02 207.798 507.666 209.593 507.081 211.484H449.897C449.891 211.471 449.891 211.458 449.884 211.445C449.549 209.992 449.337 208.602 449.176 207.271C449.125 206.846 449.079 206.428 449.041 206.016C448.989 205.534 448.944 205.058 448.899 204.588C448.725 202.716 448.552 200.947 448.139 199.256C447.586 196.921 446.582 194.721 444.522 192.598C443.679 191.73 442.835 191.054 442.011 190.463C441.85 190.353 441.696 190.244 441.535 190.135C439.256 188.571 437.1 187.446 435.233 184.255C435.201 184.21 435.175 184.159 435.149 184.114C434.827 183.554 433.99 182.087 433.385 180.132C432.748 178.099 432.362 175.546 433.057 172.934C434.711 166.746 440.84 166.129 445.848 159.876C446.389 159.201 446.923 158.455 447.432 157.625C449.697 153.946 450.309 150.704 451.03 146.851C451.146 146.227 451.249 145.609 451.332 145.011C451.397 144.561 451.455 144.117 451.5 143.679C451.899 140.007 451.706 136.842 451.236 134.012C449.704 124.742 445.185 119.005 448.378 110.687C449.382 108.076 450.805 106.114 452.24 104.435C455.278 100.878 458.401 98.5689 457.86 93.9764C457.313 89.3449 453.798 88.7079 453.406 84.6619C453.206 82.6166 453.875 80.4617 455.131 78.3454V78.3391C459.148 71.5269 469.177 65.2553 475.55 65.4548C476.728 65.4871 477.771 65.7506 478.64 66.2588C481.788 68.1113 480.475 72.1573 485.297 77.8309C488.882 82.044 492.937 83.7294 494.476 84.5268C500.572 87.7047 505.529 97.0767 508.896 109.06C508.921 109.15 508.947 109.24 508.973 109.337C511.052 116.844 512.52 125.366 513.248 134.012C513.556 137.672 513.737 141.351 513.775 144.992C513.808 147.899 513.743 150.421 513.608 152.666Z" fill="#508CAE"/>
<path d="M470.787 196.014L469.621 199.256L468.887 201.288L467.188 206.016L465.218 211.484H452.556L454.68 206.016L455.665 203.469L457.3 199.256L460.042 192.18L470.787 196.014Z" fill="#FFB6B6"/>
<path d="M509.095 107.954C509.063 108.372 509.018 108.835 508.973 109.337C508.471 114.444 507.286 123.585 505.555 134.012C504.641 139.511 503.572 145.371 502.368 151.193C499.781 163.755 496.562 176.125 492.924 184.255C492.274 185.722 491.605 187.047 490.922 188.218C490.401 189.112 489.853 189.993 489.281 190.861C487.427 193.711 485.347 196.413 483.191 198.934C483.107 199.044 483.011 199.147 482.914 199.256C482.567 199.667 482.206 200.073 481.846 200.478C480.082 202.466 478.279 204.318 476.535 206.016C474.411 208.088 472.363 209.921 470.529 211.484H449.967L449.884 211.445L446.923 210.133C446.923 210.133 447.766 209.142 449.176 207.271C449.466 206.891 449.774 206.473 450.109 206.016C450.521 205.457 450.966 204.839 451.442 204.17C452.433 202.768 453.56 201.121 454.77 199.256C457.113 195.647 459.784 191.209 462.482 186.069C462.791 185.471 463.106 184.866 463.422 184.255C463.428 184.236 463.441 184.217 463.448 184.197C463.982 183.155 464.51 182.081 465.037 180.988C469.512 171.686 470.793 163.967 471.16 161.465C471.675 157.928 472.389 152.981 472.196 147.539C472.067 143.95 471.546 140.155 470.304 136.385V136.379C470.046 135.588 469.756 134.797 469.428 134.012C468.842 132.603 468.147 131.214 467.323 129.843C463.686 123.81 460.731 123.559 458.381 116.985C457.686 115.036 456.109 110.636 456.592 105.992V105.986C456.65 105.413 456.746 104.834 456.875 104.255V104.249C456.907 104.088 456.952 103.921 456.998 103.76C457.364 102.339 457.97 100.93 458.89 99.5916C460.686 96.9932 463.138 95.4491 465.334 94.5295L465.34 94.5229C467.876 93.4682 470.065 93.243 470.49 93.2044C479.895 92.3683 487.189 100.267 491.174 104.583C492.712 106.249 494.122 107.645 495.41 108.784C505.432 117.725 508.181 112.013 508.895 109.06C509.005 108.604 509.063 108.211 509.095 107.954Z" fill="#508CAE"/>
<path d="M509.127 107.62C509.127 107.652 509.121 107.761 509.095 107.941C509.108 107.844 509.115 107.748 509.121 107.658C509.121 107.639 509.121 107.626 509.127 107.62Z" fill="#508CAE"/>
<path d="M458.001 243.35H112.925C109.719 243.35 107.105 245.955 107.105 249.159C107.105 252.368 109.719 254.973 112.925 254.973H458.001C461.207 254.973 463.815 252.368 463.815 249.159C463.815 245.955 461.207 243.35 458.001 243.35Z" fill="#E6E6E6"/>
<path d="M381.423 273.377H189.498C186.292 273.377 183.685 275.982 183.685 279.185C183.685 282.388 186.292 285 189.498 285H381.423C384.628 285 387.242 282.388 387.242 279.185C387.242 275.982 384.628 273.377 381.423 273.377Z" fill="#E6E6E6"/>
<path d="M151.324 52.2794L173.072 43.134L182.4 62.2418L159.546 71.5627L151.324 52.2794Z" fill="#FFB6B6"/>
<path opacity="0.1" d="M151.324 52.2794L173.072 43.134L182.4 62.2418L159.546 71.5627L151.324 52.2794Z" fill="black"/>
<path d="M154.415 44.9981L175.87 69.6984C175.87 69.6984 160.945 116.769 146.02 120.963C131.095 125.158 103.577 145.664 103.577 145.664L69.063 123.294L85.8535 98.5932C85.8535 98.5932 126.431 43.1339 137.158 43.1339C147.885 43.1339 154.415 44.9981 154.415 44.9981Z" fill="#508CAE"/>
<path d="M125.428 206.016H75.4857L72.3281 201.799L59.4367 184.578L56.4704 180.617C56.4704 180.617 45.2767 160.111 47.6087 141.469C49.9407 122.828 74.1937 118.633 74.1937 118.633H75.1919L104.883 144.704L103.111 168.966L112.514 184.578L125.428 206.016Z" fill="#2F2E41"/>
<path d="M85.7139 206.016H72.3281V186.21L85.7139 206.016Z" fill="#2F2E41"/>
<path d="M374.427 175.947L372.762 184.578L368.63 206.016H285.615C286.263 201.211 287.149 194.295 288.096 186.829C288.189 186.084 288.287 185.333 288.38 184.578C290.755 165.811 293.352 144.573 293.352 144.573L304.266 145.897L325.441 148.46L334.069 149.504L357.175 152.305C368.695 153.698 376.62 164.557 374.427 175.947Z" fill="#F2F2F2"/>
<path d="M491.91 206.016H446.883C447.569 205.21 447.956 204.744 447.956 204.744L461.454 202.516L489.265 197.931C489.265 197.931 490.534 201.207 491.91 206.016Z" fill="#2F2E41"/>
<path d="M300.92 61.601L320.501 89.2719L286.345 90.2912L282.678 64.287L300.92 61.601Z" fill="#A0616A"/>
<path opacity="0.1" d="M300.92 61.601L320.501 89.2719L286.345 90.2912L282.678 64.287L300.92 61.601Z" fill="black"/>
<path d="M204.353 118.933C201.84 111.691 196.064 107.116 191.451 108.714C186.839 110.313 185.138 117.479 187.652 124.723C188.617 127.631 190.264 130.266 192.457 132.407L203.49 162.958L217.728 157.479L205.34 127.942C205.735 124.903 205.397 121.814 204.353 118.933Z" fill="#A0616A"/>
<path d="M336.899 104.834L336.873 133.034L334.247 143.45L328.846 164.874L324.914 184.578L321.985 199.259L320.94 204.502C320.152 205.028 319.368 205.532 318.585 206.016H250.364C246.488 203.691 244.319 201.883 244.319 201.883C244.319 201.883 245.392 200.876 246.619 199.259C248.69 196.528 251.194 192.054 249.66 187.78C249.338 186.885 249.254 185.795 249.352 184.578C249.977 176.553 258.4 162.982 258.4 162.982L256.656 142.839L255.891 134.013L261.284 90.9731L278.863 80.7621L281.898 80.4687L311.855 78.8516L324.237 79.5646L324.801 79.7184L336.899 104.834Z" fill="#CCCCCC"/>
<path d="M338.23 206.016H323.305L322.647 199.259L322.633 199.124L326.859 198.835L337.852 198.084L338.043 202.13L338.193 205.233L338.23 206.016Z" fill="#FFB6B6"/>
<path d="M341.904 111.652L348.174 148.409L343.057 184.578L342.26 190.208L340.851 200.149L340.417 203.206L340.431 203.537L340.539 206.016H322.815L322.162 199.259L322.106 198.653L320.772 184.811L320.749 184.578L317.918 155.227L323.468 134.013L323.879 132.451V132.447L326.293 96.1231L324.423 79.6159L324.405 79.462C324.442 79.4854 324.474 79.5087 324.512 79.532C324.61 79.5925 324.708 79.6531 324.801 79.7184C335.696 86.6252 342.189 98.7423 341.904 111.652Z" fill="#CCCCCC"/>
<path d="M267.634 98.0166L260.818 90.9727C260.818 90.9727 246.228 97.545 245.501 101.191C244.773 104.838 219.013 158.392 219.013 158.392L207.806 128.482L193.217 138.215C193.217 138.215 204.923 184.651 215.87 186.831C226.818 189.011 263.508 131.869 263.508 131.869L267.634 98.0166Z" fill="#CCCCCC"/>
<path d="M544.372 184.255H13.6216C6.10924 184.255 0 190.366 0 197.873C0 205.379 6.10924 211.484 13.6216 211.484H544.372C551.884 211.484 558 205.38 558 197.873C558 190.366 551.884 184.255 544.372 184.255Z" fill="#E6E6E6"/>
<path d="M333.793 142.761L332.762 190.877C332.662 195.535 328.854 199.259 324.192 199.259H235.612C231.059 199.259 227.301 195.703 227.053 191.161L224.42 143.045C224.152 138.138 228.061 134.013 232.979 134.013H325.224C330.03 134.013 333.896 137.96 333.793 142.761Z" fill="#3F3D56"/>
<path d="M190.795 63.8941C202.499 63.8941 211.988 54.413 211.988 42.7174C211.988 31.0219 202.499 21.5407 190.795 21.5407C179.09 21.5407 169.602 31.0219 169.602 42.7174C169.602 54.413 179.09 63.8941 190.795 63.8941Z" fill="#FFB6B6"/>
<path d="M155.348 98.1272L157.68 123.294L173.538 187.142L159.838 191.94L136.692 122.361L133.495 94.3988L155.348 98.1272Z" fill="#FFB6B6"/>
<path d="M149.04 142.761L148.008 190.877C147.908 195.535 144.101 199.259 139.438 199.259H50.8582C46.306 199.259 42.5478 195.703 42.2993 191.161L39.6669 143.045C39.3984 138.138 43.3079 134.013 48.2257 134.013H140.47C145.276 134.013 149.143 137.96 149.04 142.761Z" fill="#3F3D56"/>
<path d="M176.063 199.584C185.307 199.584 192.8 196.272 192.8 192.187C192.8 188.101 185.307 184.789 176.063 184.789C166.819 184.789 159.326 188.101 159.326 192.187C159.326 196.272 166.819 199.584 176.063 199.584Z" fill="#FFB6B6"/>
<path d="M122.466 101.975L132.028 51.0567C132.028 51.0567 158.613 47.3283 159.545 56.1832C160.478 65.038 158.879 108.313 158.879 108.313L122.466 101.975Z" fill="#508CAE"/>
<path d="M182.24 46.0471C182.24 46.0471 195.35 41.3718 200.88 38.8563C206.41 36.3407 217.396 53.8865 217.641 44.62C217.885 35.3535 214.089 31.4675 214.089 31.4675C214.089 31.4675 213.141 11.1956 192.702 13.7301C192.702 13.7301 197.198 3.58788 182.44 2.01957C167.683 0.45126 144.724 36.0606 146.78 41.3822C148.836 46.7038 151.301 51.1035 145.467 56.7935C139.634 62.4834 128.711 94.5963 137.022 103.238C145.332 111.879 145.878 115.629 140.184 121.005C134.489 126.381 121.03 138.07 135.583 140.1C150.136 142.129 134.251 140.613 145.101 131.077C155.95 121.541 171.782 121.931 165.871 106.631C159.959 91.3314 170.229 69.4071 168.944 66.0811C167.659 62.7551 171.824 41.6347 171.824 41.6347C171.824 41.6347 181.515 40.2119 182.24 46.0471Z" fill="#2F2E41"/>
<path d="M290.45 71.6164C303.191 71.6164 313.52 61.2955 313.52 48.564C313.52 35.8326 303.191 25.5117 290.45 25.5117C277.708 25.5117 267.379 35.8326 267.379 48.564C267.379 61.2955 277.708 71.6164 290.45 71.6164Z" fill="#A0616A"/>
<path d="M292.291 17.5717C291.623 17.9611 290.729 17.372 290.515 16.6298C290.301 15.8876 290.55 15.0997 290.798 14.3679L292.042 10.6839C292.925 8.07117 293.862 5.36714 295.774 3.3785C298.66 0.376974 303.246 -0.386599 307.375 0.166583C312.676 0.87698 317.907 3.74562 320.373 8.48928C322.838 13.233 321.788 19.8521 317.334 22.8116C323.682 30.0825 325.895 38.1855 325.546 47.8283C325.196 57.4712 314.68 66.3457 307.822 73.1387C306.29 72.211 304.898 67.8635 305.74 66.2841C306.582 64.7048 305.376 62.875 306.419 61.4203C307.462 59.9655 308.334 62.2819 307.28 60.8354C306.615 59.9227 309.212 57.8228 308.223 57.2765C303.439 54.6341 301.847 48.6756 298.843 44.1127C295.219 38.6091 289.016 34.882 282.451 34.2636C278.835 33.923 275.016 34.5399 272.052 36.6376C269.088 38.7352 267.17 42.4837 267.857 46.0474C266.077 44.2414 265.191 41.5948 265.525 39.0822C265.859 36.5695 267.406 34.246 269.597 32.9673C268.265 28.5666 269.406 23.5046 272.497 20.0992C275.588 16.6937 288.127 17.2738 292.64 18.17L292.291 17.5717Z" fill="#2F2E41"/>
<path d="M292.992 34.3972C298.969 35.0419 303.284 40.2154 306.928 44.9931C309.029 47.7468 311.229 50.7878 311.176 54.2498C311.123 57.75 308.781 60.7521 307.662 64.0692C305.832 69.491 307.615 75.9418 311.97 79.6568C307.667 80.4728 303.015 77.2487 302.272 72.9354C301.407 67.9142 305.217 63.068 304.765 57.993C304.368 53.5219 300.842 50.0808 297.844 46.7377C294.846 43.3947 292.031 38.9585 293.41 34.6865L292.992 34.3972Z" fill="#2F2E41"/>
<path d="M382.348 187.169C376.427 190.534 373.366 196.314 375.509 200.078C377.653 203.842 384.189 204.166 390.111 200.799C392.495 199.487 394.53 197.623 396.045 195.363L420.95 180.79L413.857 169.258L390.058 184.849C387.34 184.996 384.695 185.791 382.348 187.169Z" fill="#FFB6B6"/>
<path d="M466.669 80.3029C465.925 80.0082 459.395 77.5371 453.433 80.7996C446.585 84.5474 445.527 93.1026 445.156 96.1032C444.299 103.035 446.824 104.588 447.357 111.606C448.354 124.735 450.983 109.757 446.784 115.75C445.331 117.824 430.487 149.969 422.3 156.265C406.378 168.511 396.268 177.135 396.268 177.135L407.81 189.664C407.81 189.664 426.049 184.808 442.17 174.348C458.707 163.619 466.975 158.254 473.372 147.759C473.923 146.856 487.104 124.49 480.025 99.7579C478.41 94.1167 475.452 83.7807 466.669 80.3029Z" fill="#508CAE"/>
<path d="M526.271 142.761L525.24 190.877C525.14 195.535 521.332 199.259 516.67 199.259H428.09C423.537 199.259 419.779 195.703 419.531 191.161L416.898 143.045C416.63 138.138 420.539 134.013 425.457 134.013H517.702C522.508 134.013 526.374 137.96 526.271 142.761Z" fill="#3F3D56"/>
</g>
<defs>
<clipPath id="clip0_2624_6018">
<rect width="558" height="285" fill="white"/>
</clipPath>
</defs>
</svg>
