<svg width="46" height="46" viewBox="0 0 46 46" fill="none" xmlns="http://www.w3.org/2000/svg">
<path fill-rule="evenodd" clip-rule="evenodd" d="M0.5 0.75H14.5613C14.5195 0.849657 14.4166 1.11648 14.2913 1.60191C13.6772 3.9776 12.7932 10.8475 18.9623 20.9129C20.4861 23.3979 21.9616 25.3685 23.4758 27.2974L18.5862 31.2065C10.4786 21.2761 0.5 8.62934 0.5 8.62934V0.75ZM0.5 17.9039V45.7468L14.1305 34.7395L4.73382 23.0475L0.5 17.9039ZM45.4968 15.091C45.3971 14.956 44.9792 14.3194 44.3684 13.6926C42.5006 11.7701 38.4565 8.68399 33.5894 11.3265C29.0919 13.7665 26.7902 19.3569 32.3999 26.7476C37.0099 32.8299 41.1762 33.4247 43.5261 33.0775C43.9312 33.0196 45.1753 32.7174 45.5 32.5181V15.0878H45.4968V15.091ZM45.4968 6.93839V0.75H20.4668C20.4411 0.859301 20.2546 1.23542 20.1839 1.87194C20.0231 3.29608 19.9621 6.00611 20.9715 9.85416C22.3571 15.1296 26.2115 19.8392 26.2115 19.8392C26.2115 19.8392 25.8161 14.5895 30.6543 9.74164C33.7147 6.67478 37.1835 5.72321 39.9964 5.765C40.9897 5.77786 41.9027 5.91288 42.6871 6.09291C43.0246 6.16684 45.2396 6.80337 45.4968 6.93839ZM45.4968 34.7781C45.3843 34.8713 45.1174 35.0449 44.661 35.3567C43.4329 36.1926 40.7968 37.427 36.4441 36.7712C32.5028 36.1765 28.7319 33.55 25.2696 29.4705L20.3189 33.444C23.8133 37.6456 26.5201 41.0147 27.4267 41.6641C30.844 44.1169 33.194 43.1846 33.194 43.1846L30.0274 45.75H45.4936V34.7781H45.4968ZM22.1545 45.7468H5.00064L6.40227 44.612L15.9276 36.977C15.9276 36.977 19.7017 41.8795 21.1901 43.6765C21.4698 44.0205 21.6852 44.3387 21.8491 44.6281C22.1352 45.1456 22.0999 45.4896 22.1545 45.7468Z" fill="#E45300"/>
</svg>
