<svg width="46" height="46" viewBox="0 0 46 46" fill="none" xmlns="http://www.w3.org/2000/svg">
<path d="M38.6301 0.75H7.37183C3.57629 0.75 0.5 3.89968 0.5 7.7851V7.85905V38.7168C0.5 42.5643 3.51935 45.6931 7.26556 45.75H38.613C42.4085 45.75 45.4867 42.6022 45.4867 38.7168L45.5 7.7851C45.5 3.89968 42.4256 0.75 38.6301 0.75ZM11.0858 42.1452L9.38158 42.1642C7.3168 42.1642 5.64296 40.4689 5.64296 38.3774L5.63348 38.0797V9.51448L5.64486 7.97472C5.72267 5.95142 7.26176 4.32444 9.2753 4.32444H12.7425C15.8852 4.32444 18.4321 7.05504 18.4321 10.273C18.4321 11.8658 17.8077 13.3108 16.7962 14.3613L7.95066 23.3306L16.242 31.767C17.3105 32.8687 17.9557 34.3137 17.9557 35.8971C17.9557 39.3482 14.8813 42.1452 11.0858 42.1452ZM36.5748 42.1168L21.1174 42.1111C21.1174 42.1111 22.9032 38.2522 22.9032 35.8629C22.9032 32.9484 21.9297 30.3467 20.4038 28.6249L15.1166 23.2396L20.512 17.6684C22.1194 16.1609 23.186 13.4833 23.186 10.4323C23.186 8.01645 22.518 5.87747 21.4419 4.32444H25.1862C28.3289 4.32444 30.8777 7.05504 30.8777 10.273C30.8777 11.8658 30.2533 13.3108 29.2418 14.3613L20.5652 23.2377L38.5864 41.5991C38.0152 41.9575 37.2959 42.1168 36.5748 42.1168ZM40.3494 36.3844L27.4351 23.232L33.5858 16.9857C34.8364 15.4213 35.6316 13.0662 35.6316 10.4323C35.6316 8.00127 34.9541 5.8073 33.8685 4.25427L36.6203 4.33771C38.6851 4.33771 40.3589 6.03296 40.3589 8.12453L40.3494 36.3844Z" fill="#00529C"/>
</svg>
