<svg width="737" height="246" viewBox="0 0 737 246" fill="none" xmlns="http://www.w3.org/2000/svg">
<g clip-path="url(#clip0_1_400)">
<path d="M71.4261 202.904H719.813" stroke="black"/>
<path d="M66.4261 210.268V202.904" stroke="black"/>
<path d="M58.6815 235.084C58.1295 235.084 57.6335 234.988 57.1935 234.796C56.7615 234.596 56.4215 234.324 56.1735 233.98C55.9255 233.628 55.7975 233.224 55.7895 232.768H56.9535C56.9935 233.16 57.1535 233.492 57.4335 233.764C57.7215 234.028 58.1375 234.16 58.6815 234.16C59.2015 234.16 59.6095 234.032 59.9055 233.776C60.2095 233.512 60.3615 233.176 60.3615 232.768C60.3615 232.448 60.2735 232.188 60.0975 231.988C59.9215 231.788 59.7015 231.636 59.4375 231.532C59.1735 231.428 58.8175 231.316 58.3695 231.196C57.8175 231.052 57.3735 230.908 57.0375 230.764C56.7095 230.62 56.4255 230.396 56.1855 230.092C55.9535 229.78 55.8375 229.364 55.8375 228.844C55.8375 228.388 55.9535 227.984 56.1855 227.632C56.4175 227.28 56.7415 227.008 57.1575 226.816C57.5815 226.624 58.0655 226.528 58.6095 226.528C59.3935 226.528 60.0335 226.724 60.5295 227.116C61.0335 227.508 61.3175 228.028 61.3815 228.676H60.1815C60.1415 228.356 59.9735 228.076 59.6775 227.836C59.3815 227.588 58.9895 227.464 58.5015 227.464C58.0455 227.464 57.6735 227.584 57.3855 227.824C57.0975 228.056 56.9535 228.384 56.9535 228.808C56.9535 229.112 57.0375 229.36 57.2055 229.552C57.3815 229.744 57.5935 229.892 57.8415 229.996C58.0975 230.092 58.4535 230.204 58.9095 230.332C59.4615 230.484 59.9055 230.636 60.2415 230.788C60.5775 230.932 60.8655 231.16 61.1055 231.472C61.3455 231.776 61.4655 232.192 61.4655 232.72C61.4655 233.128 61.3575 233.512 61.1415 233.872C60.9255 234.232 60.6055 234.524 60.1815 234.748C59.7575 234.972 59.2575 235.084 58.6815 235.084ZM69.0724 231.46C69.0724 231.668 69.0604 231.888 69.0364 232.12H63.7804C63.8204 232.768 64.0404 233.276 64.4404 233.644C64.8484 234.004 65.3404 234.184 65.9164 234.184C66.3884 234.184 66.7804 234.076 67.0924 233.86C67.4124 233.636 67.6364 233.34 67.7644 232.972H68.9404C68.7644 233.604 68.4124 234.12 67.8844 234.52C67.3564 234.912 66.7004 235.108 65.9164 235.108C65.2924 235.108 64.7324 234.968 64.2364 234.688C63.7484 234.408 63.3644 234.012 63.0844 233.5C62.8044 232.98 62.6644 232.38 62.6644 231.7C62.6644 231.02 62.8004 230.424 63.0724 229.912C63.3444 229.4 63.7244 229.008 64.2124 228.736C64.7084 228.456 65.2764 228.316 65.9164 228.316C66.5404 228.316 67.0924 228.452 67.5724 228.724C68.0524 228.996 68.4204 229.372 68.6764 229.852C68.9404 230.324 69.0724 230.86 69.0724 231.46ZM67.9444 231.232C67.9444 230.816 67.8524 230.46 67.6684 230.164C67.4844 229.86 67.2324 229.632 66.9124 229.48C66.6004 229.32 66.2524 229.24 65.8684 229.24C65.3164 229.24 64.8444 229.416 64.4524 229.768C64.0684 230.12 63.8484 230.608 63.7924 231.232H67.9444ZM73.7178 228.304C74.5178 228.304 75.1658 228.548 75.6618 229.036C76.1578 229.516 76.4058 230.212 76.4058 231.124V235H75.3258V231.28C75.3258 230.624 75.1618 230.124 74.8338 229.78C74.5058 229.428 74.0578 229.252 73.4898 229.252C72.9138 229.252 72.4538 229.432 72.1098 229.792C71.7738 230.152 71.6058 230.676 71.6058 231.364V235H70.5138V228.424H71.6058V229.36C71.8218 229.024 72.1138 228.764 72.4818 228.58C72.8578 228.396 73.2698 228.304 73.7178 228.304ZM78.7536 227.356C78.5456 227.356 78.3696 227.284 78.2256 227.14C78.0816 226.996 78.0096 226.82 78.0096 226.612C78.0096 226.404 78.0816 226.228 78.2256 226.084C78.3696 225.94 78.5456 225.868 78.7536 225.868C78.9536 225.868 79.1216 225.94 79.2576 226.084C79.4016 226.228 79.4736 226.404 79.4736 226.612C79.4736 226.82 79.4016 226.996 79.2576 227.14C79.1216 227.284 78.9536 227.356 78.7536 227.356ZM79.2816 228.424V235H78.1896V228.424H79.2816ZM84.3468 228.304C85.1468 228.304 85.7948 228.548 86.2908 229.036C86.7868 229.516 87.0348 230.212 87.0348 231.124V235H85.9548V231.28C85.9548 230.624 85.7908 230.124 85.4628 229.78C85.1348 229.428 84.6868 229.252 84.1188 229.252C83.5428 229.252 83.0828 229.432 82.7388 229.792C82.4028 230.152 82.2348 230.676 82.2348 231.364V235H81.1428V228.424H82.2348V229.36C82.4508 229.024 82.7428 228.764 83.1108 228.58C83.4868 228.396 83.8988 228.304 84.3468 228.304Z" fill="black"/>
<path d="M179.491 210.268V202.904" stroke="black"/>
<path d="M162.113 234.084C161.561 234.084 161.065 233.988 160.625 233.796C160.193 233.596 159.853 233.324 159.605 232.98C159.357 232.628 159.229 232.224 159.221 231.768H160.385C160.425 232.16 160.585 232.492 160.865 232.764C161.153 233.028 161.569 233.16 162.113 233.16C162.633 233.16 163.041 233.032 163.337 232.776C163.641 232.512 163.793 232.176 163.793 231.768C163.793 231.448 163.705 231.188 163.529 230.988C163.353 230.788 163.133 230.636 162.869 230.532C162.605 230.428 162.249 230.316 161.801 230.196C161.249 230.052 160.805 229.908 160.469 229.764C160.141 229.62 159.857 229.396 159.617 229.092C159.385 228.78 159.269 228.364 159.269 227.844C159.269 227.388 159.385 226.984 159.617 226.632C159.849 226.28 160.173 226.008 160.589 225.816C161.013 225.624 161.497 225.528 162.041 225.528C162.825 225.528 163.465 225.724 163.961 226.116C164.465 226.508 164.749 227.028 164.813 227.676H163.613C163.573 227.356 163.405 227.076 163.109 226.836C162.813 226.588 162.421 226.464 161.933 226.464C161.477 226.464 161.105 226.584 160.817 226.824C160.529 227.056 160.385 227.384 160.385 227.808C160.385 228.112 160.469 228.36 160.637 228.552C160.813 228.744 161.025 228.892 161.273 228.996C161.529 229.092 161.885 229.204 162.341 229.332C162.893 229.484 163.337 229.636 163.673 229.788C164.009 229.932 164.297 230.16 164.537 230.472C164.777 230.776 164.897 231.192 164.897 231.72C164.897 232.128 164.789 232.512 164.573 232.872C164.357 233.232 164.037 233.524 163.613 233.748C163.189 233.972 162.689 234.084 162.113 234.084ZM172.504 230.46C172.504 230.668 172.492 230.888 172.468 231.12H167.212C167.252 231.768 167.472 232.276 167.872 232.644C168.28 233.004 168.772 233.184 169.348 233.184C169.82 233.184 170.212 233.076 170.524 232.86C170.844 232.636 171.068 232.34 171.196 231.972H172.372C172.196 232.604 171.844 233.12 171.316 233.52C170.788 233.912 170.132 234.108 169.348 234.108C168.724 234.108 168.164 233.968 167.668 233.688C167.18 233.408 166.796 233.012 166.516 232.5C166.236 231.98 166.096 231.38 166.096 230.7C166.096 230.02 166.232 229.424 166.504 228.912C166.776 228.4 167.156 228.008 167.644 227.736C168.14 227.456 168.708 227.316 169.348 227.316C169.972 227.316 170.524 227.452 171.004 227.724C171.484 227.996 171.852 228.372 172.108 228.852C172.372 229.324 172.504 229.86 172.504 230.46ZM171.376 230.232C171.376 229.816 171.284 229.46 171.1 229.164C170.916 228.86 170.664 228.632 170.344 228.48C170.032 228.32 169.684 228.24 169.3 228.24C168.748 228.24 168.276 228.416 167.884 228.768C167.5 229.12 167.28 229.608 167.224 230.232H171.376ZM175.037 225.12V234H173.945V225.12H175.037ZM176.491 230.688C176.491 230.016 176.627 229.428 176.899 228.924C177.171 228.412 177.543 228.016 178.015 227.736C178.495 227.456 179.027 227.316 179.611 227.316C180.187 227.316 180.687 227.44 181.111 227.688C181.535 227.936 181.851 228.248 182.059 228.624V227.424H183.163V234H182.059V232.776C181.843 233.16 181.519 233.48 181.087 233.736C180.663 233.984 180.167 234.108 179.599 234.108C179.015 234.108 178.487 233.964 178.015 233.676C177.543 233.388 177.171 232.984 176.899 232.464C176.627 231.944 176.491 231.352 176.491 230.688ZM182.059 230.7C182.059 230.204 181.959 229.772 181.759 229.404C181.559 229.036 181.287 228.756 180.943 228.564C180.607 228.364 180.235 228.264 179.827 228.264C179.419 228.264 179.047 228.36 178.711 228.552C178.375 228.744 178.107 229.024 177.907 229.392C177.707 229.76 177.607 230.192 177.607 230.688C177.607 231.192 177.707 231.632 177.907 232.008C178.107 232.376 178.375 232.66 178.711 232.86C179.047 233.052 179.419 233.148 179.827 233.148C180.235 233.148 180.607 233.052 180.943 232.86C181.287 232.66 181.559 232.376 181.759 232.008C181.959 231.632 182.059 231.196 182.059 230.7ZM187.336 234.108C186.832 234.108 186.38 234.024 185.98 233.856C185.58 233.68 185.264 233.44 185.032 233.136C184.8 232.824 184.672 232.468 184.648 232.068H185.776C185.808 232.396 185.96 232.664 186.232 232.872C186.512 233.08 186.876 233.184 187.324 233.184C187.74 233.184 188.068 233.092 188.308 232.908C188.548 232.724 188.668 232.492 188.668 232.212C188.668 231.924 188.54 231.712 188.284 231.576C188.028 231.432 187.632 231.292 187.096 231.156C186.608 231.028 186.208 230.9 185.896 230.772C185.592 230.636 185.328 230.44 185.104 230.184C184.888 229.92 184.78 229.576 184.78 229.152C184.78 228.816 184.88 228.508 185.08 228.228C185.28 227.948 185.564 227.728 185.932 227.568C186.3 227.4 186.72 227.316 187.192 227.316C187.92 227.316 188.508 227.5 188.956 227.868C189.404 228.236 189.644 228.74 189.676 229.38H188.584C188.56 229.036 188.42 228.76 188.164 228.552C187.916 228.344 187.58 228.24 187.156 228.24C186.764 228.24 186.452 228.324 186.22 228.492C185.988 228.66 185.872 228.88 185.872 229.152C185.872 229.368 185.94 229.548 186.076 229.692C186.22 229.828 186.396 229.94 186.604 230.028C186.82 230.108 187.116 230.2 187.492 230.304C187.964 230.432 188.348 230.56 188.644 230.688C188.94 230.808 189.192 230.992 189.4 231.24C189.616 231.488 189.728 231.812 189.736 232.212C189.736 232.572 189.636 232.896 189.436 233.184C189.236 233.472 188.952 233.7 188.584 233.868C188.224 234.028 187.808 234.108 187.336 234.108ZM190.869 230.688C190.869 230.016 191.005 229.428 191.277 228.924C191.549 228.412 191.921 228.016 192.393 227.736C192.873 227.456 193.405 227.316 193.989 227.316C194.565 227.316 195.065 227.44 195.489 227.688C195.913 227.936 196.229 228.248 196.437 228.624V227.424H197.541V234H196.437V232.776C196.221 233.16 195.897 233.48 195.465 233.736C195.041 233.984 194.545 234.108 193.977 234.108C193.393 234.108 192.865 233.964 192.393 233.676C191.921 233.388 191.549 232.984 191.277 232.464C191.005 231.944 190.869 231.352 190.869 230.688ZM196.437 230.7C196.437 230.204 196.337 229.772 196.137 229.404C195.937 229.036 195.665 228.756 195.321 228.564C194.985 228.364 194.613 228.264 194.205 228.264C193.797 228.264 193.425 228.36 193.089 228.552C192.753 228.744 192.485 229.024 192.285 229.392C192.085 229.76 191.985 230.192 191.985 230.688C191.985 231.192 192.085 231.632 192.285 232.008C192.485 232.376 192.753 232.66 193.089 232.86C193.425 233.052 193.797 233.148 194.205 233.148C194.613 233.148 194.985 233.052 195.321 232.86C195.665 232.66 195.937 232.376 196.137 232.008C196.337 231.632 196.437 231.196 196.437 230.7Z" fill="black"/>
<path d="M287.555 210.268V202.904" stroke="black"/>
<path d="M277.828 233.725L275.836 230.305H274.516V233.725H273.424V225.361H276.124C276.756 225.361 277.288 225.469 277.72 225.685C278.16 225.901 278.488 226.193 278.704 226.561C278.92 226.929 279.028 227.349 279.028 227.821C279.028 228.397 278.86 228.905 278.524 229.345C278.196 229.785 277.7 230.077 277.036 230.221L279.136 233.725H277.828ZM274.516 229.429H276.124C276.716 229.429 277.16 229.285 277.456 228.997C277.752 228.701 277.9 228.309 277.9 227.821C277.9 227.325 277.752 226.941 277.456 226.669C277.168 226.397 276.724 226.261 276.124 226.261H274.516V229.429ZM280.316 230.413C280.316 229.741 280.452 229.153 280.724 228.649C280.996 228.137 281.368 227.741 281.84 227.461C282.32 227.181 282.852 227.041 283.436 227.041C284.012 227.041 284.512 227.165 284.936 227.413C285.36 227.661 285.676 227.973 285.884 228.349V227.149H286.988V233.725H285.884V232.501C285.668 232.885 285.344 233.205 284.912 233.461C284.488 233.709 283.992 233.833 283.424 233.833C282.84 233.833 282.312 233.689 281.84 233.401C281.368 233.113 280.996 232.709 280.724 232.189C280.452 231.669 280.316 231.077 280.316 230.413ZM285.884 230.425C285.884 229.929 285.784 229.497 285.584 229.129C285.384 228.761 285.112 228.481 284.768 228.289C284.432 228.089 284.06 227.989 283.652 227.989C283.244 227.989 282.872 228.085 282.536 228.277C282.2 228.469 281.932 228.749 281.732 229.117C281.532 229.485 281.432 229.917 281.432 230.413C281.432 230.917 281.532 231.357 281.732 231.733C281.932 232.101 282.2 232.385 282.536 232.585C282.872 232.777 283.244 232.873 283.652 232.873C284.06 232.873 284.432 232.777 284.768 232.585C285.112 232.385 285.384 232.101 285.584 231.733C285.784 231.357 285.884 230.921 285.884 230.425ZM289.926 228.373C290.15 227.981 290.478 227.661 290.91 227.413C291.342 227.165 291.834 227.041 292.386 227.041C292.978 227.041 293.51 227.181 293.982 227.461C294.454 227.741 294.826 228.137 295.098 228.649C295.37 229.153 295.506 229.741 295.506 230.413C295.506 231.077 295.37 231.669 295.098 232.189C294.826 232.709 294.45 233.113 293.97 233.401C293.498 233.689 292.97 233.833 292.386 233.833C291.818 233.833 291.318 233.709 290.886 233.461C290.462 233.213 290.142 232.897 289.926 232.513V233.725H288.834V224.845H289.926V228.373ZM294.39 230.413C294.39 229.917 294.29 229.485 294.09 229.117C293.89 228.749 293.618 228.469 293.274 228.277C292.938 228.085 292.566 227.989 292.158 227.989C291.758 227.989 291.386 228.089 291.042 228.289C290.706 228.481 290.434 228.765 290.226 229.141C290.026 229.509 289.926 229.937 289.926 230.425C289.926 230.921 290.026 231.357 290.226 231.733C290.434 232.101 290.706 232.385 291.042 232.585C291.386 232.777 291.758 232.873 292.158 232.873C292.566 232.873 292.938 232.777 293.274 232.585C293.618 232.385 293.89 232.101 294.09 231.733C294.29 231.357 294.39 230.917 294.39 230.413ZM302.775 227.149V233.725H301.683V232.753C301.475 233.089 301.183 233.353 300.807 233.545C300.439 233.729 300.031 233.821 299.583 233.821C299.071 233.821 298.611 233.717 298.203 233.509C297.795 233.293 297.471 232.973 297.231 232.549C296.999 232.125 296.883 231.609 296.883 231.001V227.149H297.963V230.857C297.963 231.505 298.127 232.005 298.455 232.357C298.783 232.701 299.231 232.873 299.799 232.873C300.383 232.873 300.843 232.693 301.179 232.333C301.515 231.973 301.683 231.449 301.683 230.761V227.149H302.775Z" fill="black"/>
<path d="M395.619 210.268V202.904" stroke="black"/>
<path d="M383.182 233.725L379.738 229.909V233.725H378.646V225.361H379.738V229.237L383.194 225.361H384.574L380.782 229.549L384.61 233.725H383.182ZM385.422 230.413C385.422 229.741 385.558 229.153 385.83 228.649C386.102 228.137 386.474 227.741 386.946 227.461C387.426 227.181 387.958 227.041 388.542 227.041C389.118 227.041 389.618 227.165 390.042 227.413C390.466 227.661 390.782 227.973 390.99 228.349V227.149H392.094V233.725H390.99V232.501C390.774 232.885 390.45 233.205 390.018 233.461C389.594 233.709 389.098 233.833 388.53 233.833C387.946 233.833 387.418 233.689 386.946 233.401C386.474 233.113 386.102 232.709 385.83 232.189C385.558 231.669 385.422 231.077 385.422 230.413ZM390.99 230.425C390.99 229.929 390.89 229.497 390.69 229.129C390.49 228.761 390.218 228.481 389.874 228.289C389.538 228.089 389.166 227.989 388.758 227.989C388.35 227.989 387.978 228.085 387.642 228.277C387.306 228.469 387.038 228.749 386.838 229.117C386.638 229.485 386.538 229.917 386.538 230.413C386.538 230.917 386.638 231.357 386.838 231.733C387.038 232.101 387.306 232.385 387.642 232.585C387.978 232.777 388.35 232.873 388.758 232.873C389.166 232.873 389.538 232.777 389.874 232.585C390.218 232.385 390.49 232.101 390.69 231.733C390.89 231.357 390.99 230.921 390.99 230.425ZM401.847 227.029C402.359 227.029 402.815 227.137 403.215 227.353C403.615 227.561 403.931 227.877 404.163 228.301C404.395 228.725 404.511 229.241 404.511 229.849V233.725H403.431V230.005C403.431 229.349 403.267 228.849 402.939 228.505C402.619 228.153 402.183 227.977 401.631 227.977C401.063 227.977 400.611 228.161 400.275 228.529C399.939 228.889 399.771 229.413 399.771 230.101V233.725H398.691V230.005C398.691 229.349 398.527 228.849 398.199 228.505C397.879 228.153 397.443 227.977 396.891 227.977C396.323 227.977 395.871 228.161 395.535 228.529C395.199 228.889 395.031 229.413 395.031 230.101V233.725H393.939V227.149H395.031V228.097C395.247 227.753 395.535 227.489 395.895 227.305C396.263 227.121 396.667 227.029 397.107 227.029C397.659 227.029 398.147 227.153 398.571 227.401C398.995 227.649 399.311 228.013 399.519 228.493C399.703 228.029 400.007 227.669 400.431 227.413C400.855 227.157 401.327 227.029 401.847 227.029ZM406.866 226.081C406.658 226.081 406.482 226.009 406.338 225.865C406.194 225.721 406.122 225.545 406.122 225.337C406.122 225.129 406.194 224.953 406.338 224.809C406.482 224.665 406.658 224.593 406.866 224.593C407.066 224.593 407.234 224.665 407.37 224.809C407.514 224.953 407.586 225.129 407.586 225.337C407.586 225.545 407.514 225.721 407.37 225.865C407.234 226.009 407.066 226.081 406.866 226.081ZM407.394 227.149V233.725H406.302V227.149H407.394ZM411.584 233.833C411.08 233.833 410.628 233.749 410.228 233.581C409.828 233.405 409.512 233.165 409.28 232.861C409.048 232.549 408.92 232.193 408.896 231.793H410.024C410.056 232.121 410.208 232.389 410.48 232.597C410.76 232.805 411.124 232.909 411.572 232.909C411.988 232.909 412.316 232.817 412.556 232.633C412.796 232.449 412.916 232.217 412.916 231.937C412.916 231.649 412.788 231.437 412.532 231.301C412.276 231.157 411.88 231.017 411.344 230.881C410.856 230.753 410.456 230.625 410.144 230.497C409.84 230.361 409.576 230.165 409.352 229.909C409.136 229.645 409.028 229.301 409.028 228.877C409.028 228.541 409.128 228.233 409.328 227.953C409.528 227.673 409.812 227.453 410.18 227.293C410.548 227.125 410.968 227.041 411.44 227.041C412.168 227.041 412.756 227.225 413.204 227.593C413.652 227.961 413.892 228.465 413.924 229.105H412.832C412.808 228.761 412.668 228.485 412.412 228.277C412.164 228.069 411.828 227.965 411.404 227.965C411.012 227.965 410.7 228.049 410.468 228.217C410.236 228.385 410.12 228.605 410.12 228.877C410.12 229.093 410.188 229.273 410.324 229.417C410.468 229.553 410.644 229.665 410.852 229.753C411.068 229.833 411.364 229.925 411.74 230.029C412.212 230.157 412.596 230.285 412.892 230.413C413.188 230.533 413.44 230.717 413.648 230.965C413.864 231.213 413.976 231.537 413.984 231.937C413.984 232.297 413.884 232.621 413.684 232.909C413.484 233.197 413.2 233.425 412.832 233.593C412.472 233.753 412.056 233.833 411.584 233.833Z" fill="black"/>
<path d="M503.684 210.268V202.904" stroke="black"/>
<path d="M489.695 225.636V231.816C489.695 232.504 489.483 233.056 489.059 233.472C488.635 233.88 488.075 234.084 487.379 234.084C486.675 234.084 486.111 233.876 485.687 233.46C485.263 233.036 485.051 232.46 485.051 231.732H486.143C486.151 232.14 486.255 232.472 486.455 232.728C486.663 232.984 486.971 233.112 487.379 233.112C487.787 233.112 488.091 232.992 488.291 232.752C488.491 232.504 488.591 232.192 488.591 231.816V225.636H489.695ZM497.678 227.424V234H496.586V233.028C496.378 233.364 496.086 233.628 495.71 233.82C495.342 234.004 494.934 234.096 494.486 234.096C493.974 234.096 493.514 233.992 493.106 233.784C492.698 233.568 492.374 233.248 492.134 232.824C491.902 232.4 491.786 231.884 491.786 231.276V227.424H492.866V231.132C492.866 231.78 493.03 232.28 493.358 232.632C493.686 232.976 494.134 233.148 494.702 233.148C495.286 233.148 495.746 232.968 496.082 232.608C496.418 232.248 496.586 231.724 496.586 231.036V227.424H497.678ZM507.43 227.304C507.942 227.304 508.398 227.412 508.798 227.628C509.198 227.836 509.514 228.152 509.746 228.576C509.978 229 510.094 229.516 510.094 230.124V234H509.014V230.28C509.014 229.624 508.85 229.124 508.522 228.78C508.202 228.428 507.766 228.252 507.214 228.252C506.646 228.252 506.194 228.436 505.858 228.804C505.522 229.164 505.354 229.688 505.354 230.376V234H504.274V230.28C504.274 229.624 504.11 229.124 503.782 228.78C503.462 228.428 503.026 228.252 502.474 228.252C501.906 228.252 501.454 228.436 501.118 228.804C500.782 229.164 500.614 229.688 500.614 230.376V234H499.522V227.424H500.614V228.372C500.83 228.028 501.118 227.764 501.478 227.58C501.846 227.396 502.25 227.304 502.69 227.304C503.242 227.304 503.73 227.428 504.154 227.676C504.578 227.924 504.894 228.288 505.102 228.768C505.286 228.304 505.59 227.944 506.014 227.688C506.438 227.432 506.91 227.304 507.43 227.304ZM511.477 230.688C511.477 230.016 511.613 229.428 511.885 228.924C512.157 228.412 512.529 228.016 513.001 227.736C513.481 227.456 514.013 227.316 514.597 227.316C515.173 227.316 515.673 227.44 516.097 227.688C516.521 227.936 516.837 228.248 517.045 228.624V227.424H518.149V234H517.045V232.776C516.829 233.16 516.505 233.48 516.073 233.736C515.649 233.984 515.153 234.108 514.585 234.108C514.001 234.108 513.473 233.964 513.001 233.676C512.529 233.388 512.157 232.984 511.885 232.464C511.613 231.944 511.477 231.352 511.477 230.688ZM517.045 230.7C517.045 230.204 516.945 229.772 516.745 229.404C516.545 229.036 516.273 228.756 515.929 228.564C515.593 228.364 515.221 228.264 514.813 228.264C514.405 228.264 514.033 228.36 513.697 228.552C513.361 228.744 513.093 229.024 512.893 229.392C512.693 229.76 512.593 230.192 512.593 230.688C512.593 231.192 512.693 231.632 512.893 232.008C513.093 232.376 513.361 232.66 513.697 232.86C514.033 233.052 514.405 233.148 514.813 233.148C515.221 233.148 515.593 233.052 515.929 232.86C516.273 232.66 516.545 232.376 516.745 232.008C516.945 231.632 517.045 231.196 517.045 230.7ZM521.326 228.324V232.2C521.326 232.52 521.394 232.748 521.53 232.884C521.666 233.012 521.902 233.076 522.238 233.076H523.042V234H522.058C521.45 234 520.994 233.86 520.69 233.58C520.386 233.3 520.234 232.84 520.234 232.2V228.324H519.382V227.424H520.234V225.768H521.326V227.424H523.042V228.324H521.326Z" fill="black"/>
<path d="M611.748 210.268V202.904" stroke="black"/>
<path d="M597.422 234.084C596.87 234.084 596.374 233.988 595.934 233.796C595.502 233.596 595.162 233.324 594.914 232.98C594.666 232.628 594.538 232.224 594.53 231.768H595.694C595.734 232.16 595.894 232.492 596.174 232.764C596.462 233.028 596.878 233.16 597.422 233.16C597.942 233.16 598.35 233.032 598.646 232.776C598.95 232.512 599.102 232.176 599.102 231.768C599.102 231.448 599.014 231.188 598.838 230.988C598.662 230.788 598.442 230.636 598.178 230.532C597.914 230.428 597.558 230.316 597.11 230.196C596.558 230.052 596.114 229.908 595.778 229.764C595.45 229.62 595.166 229.396 594.926 229.092C594.694 228.78 594.578 228.364 594.578 227.844C594.578 227.388 594.694 226.984 594.926 226.632C595.158 226.28 595.482 226.008 595.898 225.816C596.322 225.624 596.806 225.528 597.35 225.528C598.134 225.528 598.774 225.724 599.27 226.116C599.774 226.508 600.058 227.028 600.122 227.676H598.922C598.882 227.356 598.714 227.076 598.418 226.836C598.122 226.588 597.73 226.464 597.242 226.464C596.786 226.464 596.414 226.584 596.126 226.824C595.838 227.056 595.694 227.384 595.694 227.808C595.694 228.112 595.778 228.36 595.946 228.552C596.122 228.744 596.334 228.892 596.582 228.996C596.838 229.092 597.194 229.204 597.65 229.332C598.202 229.484 598.646 229.636 598.982 229.788C599.318 229.932 599.606 230.16 599.846 230.472C600.086 230.776 600.206 231.192 600.206 231.72C600.206 232.128 600.098 232.512 599.882 232.872C599.666 233.232 599.346 233.524 598.922 233.748C598.498 233.972 597.998 234.084 597.422 234.084ZM601.405 230.688C601.405 230.016 601.541 229.428 601.813 228.924C602.085 228.412 602.457 228.016 602.929 227.736C603.409 227.456 603.941 227.316 604.525 227.316C605.101 227.316 605.601 227.44 606.025 227.688C606.449 227.936 606.765 228.248 606.973 228.624V227.424H608.077V234H606.973V232.776C606.757 233.16 606.433 233.48 606.001 233.736C605.577 233.984 605.081 234.108 604.513 234.108C603.929 234.108 603.401 233.964 602.929 233.676C602.457 233.388 602.085 232.984 601.813 232.464C601.541 231.944 601.405 231.352 601.405 230.688ZM606.973 230.7C606.973 230.204 606.873 229.772 606.673 229.404C606.473 229.036 606.201 228.756 605.857 228.564C605.521 228.364 605.149 228.264 604.741 228.264C604.333 228.264 603.961 228.36 603.625 228.552C603.289 228.744 603.021 229.024 602.821 229.392C602.621 229.76 602.521 230.192 602.521 230.688C602.521 231.192 602.621 231.632 602.821 232.008C603.021 232.376 603.289 232.66 603.625 232.86C603.961 233.052 604.333 233.148 604.741 233.148C605.149 233.148 605.521 233.052 605.857 232.86C606.201 232.66 606.473 232.376 606.673 232.008C606.873 231.632 606.973 231.196 606.973 230.7ZM611.014 228.648C611.238 228.256 611.566 227.936 611.998 227.688C612.43 227.44 612.922 227.316 613.474 227.316C614.066 227.316 614.598 227.456 615.07 227.736C615.542 228.016 615.914 228.412 616.186 228.924C616.458 229.428 616.594 230.016 616.594 230.688C616.594 231.352 616.458 231.944 616.186 232.464C615.914 232.984 615.538 233.388 615.058 233.676C614.586 233.964 614.058 234.108 613.474 234.108C612.906 234.108 612.406 233.984 611.974 233.736C611.55 233.488 611.23 233.172 611.014 232.788V234H609.922V225.12H611.014V228.648ZM615.478 230.688C615.478 230.192 615.378 229.76 615.178 229.392C614.978 229.024 614.706 228.744 614.362 228.552C614.026 228.36 613.654 228.264 613.246 228.264C612.846 228.264 612.474 228.364 612.13 228.564C611.794 228.756 611.522 229.04 611.314 229.416C611.114 229.784 611.014 230.212 611.014 230.7C611.014 231.196 611.114 231.632 611.314 232.008C611.522 232.376 611.794 232.66 612.13 232.86C612.474 233.052 612.846 233.148 613.246 233.148C613.654 233.148 614.026 233.052 614.362 232.86C614.706 232.66 614.978 232.376 615.178 232.008C615.378 231.632 615.478 231.192 615.478 230.688ZM619.363 228.324V232.2C619.363 232.52 619.431 232.748 619.567 232.884C619.703 233.012 619.939 233.076 620.275 233.076H621.079V234H620.095C619.487 234 619.031 233.86 618.727 233.58C618.423 233.3 618.271 232.84 618.271 232.2V228.324H617.419V227.424H618.271V225.768H619.363V227.424H621.079V228.324H619.363ZM628.235 227.424V234H627.143V233.028C626.935 233.364 626.643 233.628 626.267 233.82C625.899 234.004 625.491 234.096 625.043 234.096C624.531 234.096 624.071 233.992 623.663 233.784C623.255 233.568 622.931 233.248 622.691 232.824C622.459 232.4 622.343 231.884 622.343 231.276V227.424H623.423V231.132C623.423 231.78 623.587 232.28 623.915 232.632C624.243 232.976 624.691 233.148 625.259 233.148C625.843 233.148 626.303 232.968 626.639 232.608C626.975 232.248 627.143 231.724 627.143 231.036V227.424H628.235Z" fill="black"/>
<path d="M719.813 210.268V202.904" stroke="black"/>
<path d="M706.978 225.696V234H705.886V227.808L703.126 234H702.358L699.586 227.796V234H698.494V225.696H699.67L702.742 232.56L705.814 225.696H706.978ZM709.394 226.356C709.186 226.356 709.01 226.284 708.866 226.14C708.722 225.996 708.65 225.82 708.65 225.612C708.65 225.404 708.722 225.228 708.866 225.084C709.01 224.94 709.186 224.868 709.394 224.868C709.594 224.868 709.762 224.94 709.898 225.084C710.042 225.228 710.114 225.404 710.114 225.612C710.114 225.82 710.042 225.996 709.898 226.14C709.762 226.284 709.594 226.356 709.394 226.356ZM709.922 227.424V234H708.83V227.424H709.922ZM714.987 227.304C715.787 227.304 716.435 227.548 716.931 228.036C717.427 228.516 717.675 229.212 717.675 230.124V234H716.595V230.28C716.595 229.624 716.431 229.124 716.103 228.78C715.775 228.428 715.327 228.252 714.759 228.252C714.183 228.252 713.723 228.432 713.379 228.792C713.043 229.152 712.875 229.676 712.875 230.364V234H711.783V227.424H712.875V228.36C713.091 228.024 713.383 227.764 713.751 227.58C714.127 227.396 714.539 227.304 714.987 227.304ZM722.171 227.316C722.739 227.316 723.235 227.44 723.659 227.688C724.091 227.936 724.411 228.248 724.619 228.624V227.424H725.723V234.144C725.723 234.744 725.595 235.276 725.339 235.74C725.083 236.212 724.715 236.58 724.235 236.844C723.763 237.108 723.211 237.24 722.579 237.24C721.715 237.24 720.995 237.036 720.419 236.628C719.843 236.22 719.503 235.664 719.399 234.96H720.479C720.599 235.36 720.847 235.68 721.223 235.92C721.599 236.168 722.051 236.292 722.579 236.292C723.179 236.292 723.667 236.104 724.043 235.728C724.427 235.352 724.619 234.824 724.619 234.144V232.764C724.403 233.148 724.083 233.468 723.659 233.724C723.235 233.98 722.739 234.108 722.171 234.108C721.587 234.108 721.055 233.964 720.575 233.676C720.103 233.388 719.731 232.984 719.459 232.464C719.187 231.944 719.051 231.352 719.051 230.688C719.051 230.016 719.187 229.428 719.459 228.924C719.731 228.412 720.103 228.016 720.575 227.736C721.055 227.456 721.587 227.316 722.171 227.316ZM724.619 230.7C724.619 230.204 724.519 229.772 724.319 229.404C724.119 229.036 723.847 228.756 723.503 228.564C723.167 228.364 722.795 228.264 722.387 228.264C721.979 228.264 721.607 228.36 721.271 228.552C720.935 228.744 720.667 229.024 720.467 229.392C720.267 229.76 720.167 230.192 720.167 230.688C720.167 231.192 720.267 231.632 720.467 232.008C720.667 232.376 720.935 232.66 721.271 232.86C721.607 233.052 721.979 233.148 722.387 233.148C722.795 233.148 723.167 233.052 723.503 232.86C723.847 232.66 724.119 232.376 724.319 232.008C724.519 231.632 724.619 231.196 724.619 230.7ZM730.281 227.316C730.849 227.316 731.345 227.44 731.769 227.688C732.201 227.936 732.521 228.248 732.729 228.624V227.424H733.833V234.144C733.833 234.744 733.705 235.276 733.449 235.74C733.193 236.212 732.825 236.58 732.345 236.844C731.873 237.108 731.321 237.24 730.689 237.24C729.825 237.24 729.105 237.036 728.529 236.628C727.953 236.22 727.613 235.664 727.509 234.96H728.589C728.709 235.36 728.957 235.68 729.333 235.92C729.709 236.168 730.161 236.292 730.689 236.292C731.289 236.292 731.777 236.104 732.153 235.728C732.537 235.352 732.729 234.824 732.729 234.144V232.764C732.513 233.148 732.193 233.468 731.769 233.724C731.345 233.98 730.849 234.108 730.281 234.108C729.697 234.108 729.165 233.964 728.685 233.676C728.213 233.388 727.841 232.984 727.569 232.464C727.297 231.944 727.161 231.352 727.161 230.688C727.161 230.016 727.297 229.428 727.569 228.924C727.841 228.412 728.213 228.016 728.685 227.736C729.165 227.456 729.697 227.316 730.281 227.316ZM732.729 230.7C732.729 230.204 732.629 229.772 732.429 229.404C732.229 229.036 731.957 228.756 731.613 228.564C731.277 228.364 730.905 228.264 730.497 228.264C730.089 228.264 729.717 228.36 729.381 228.552C729.045 228.744 728.777 229.024 728.577 229.392C728.377 229.76 728.277 230.192 728.277 230.688C728.277 231.192 728.377 231.632 728.577 232.008C728.777 232.376 729.045 232.66 729.381 232.86C729.717 233.052 730.089 233.148 730.497 233.148C730.905 233.148 731.277 233.052 731.613 232.86C731.957 232.66 732.229 232.376 732.429 232.008C732.629 231.632 732.729 231.196 732.729 230.7ZM741.51 227.424V234H740.418V233.028C740.21 233.364 739.918 233.628 739.542 233.82C739.174 234.004 738.766 234.096 738.318 234.096C737.806 234.096 737.346 233.992 736.938 233.784C736.53 233.568 736.206 233.248 735.966 232.824C735.734 232.4 735.618 231.884 735.618 231.276V227.424H736.698V231.132C736.698 231.78 736.862 232.28 737.19 232.632C737.518 232.976 737.966 233.148 738.534 233.148C739.118 233.148 739.578 232.968 739.914 232.608C740.25 232.248 740.418 231.724 740.418 231.036V227.424H741.51Z" fill="black"/>
<path d="M71.7042 6.54321V202.905" stroke="black"/>
<path d="M61.7288 202.905H71.7042" stroke="black"/>
<path d="M46.6249 201.978C46.6249 200.602 46.8489 199.53 47.2969 198.762C47.7449 197.986 48.5289 197.598 49.6489 197.598C50.7609 197.598 51.5409 197.986 51.9889 198.762C52.4369 199.53 52.6609 200.602 52.6609 201.978C52.6609 203.378 52.4369 204.466 51.9889 205.242C51.5409 206.018 50.7609 206.406 49.6489 206.406C48.5289 206.406 47.7449 206.018 47.2969 205.242C46.8489 204.466 46.6249 203.378 46.6249 201.978ZM51.5809 201.978C51.5809 201.282 51.5329 200.694 51.4369 200.214C51.3489 199.726 51.1609 199.334 50.8729 199.038C50.5929 198.742 50.1849 198.594 49.6489 198.594C49.1049 198.594 48.6889 198.742 48.4009 199.038C48.1209 199.334 47.9329 199.726 47.8369 200.214C47.7489 200.694 47.7049 201.282 47.7049 201.978C47.7049 202.698 47.7489 203.302 47.8369 203.79C47.9329 204.278 48.1209 204.67 48.4009 204.966C48.6889 205.262 49.1049 205.41 49.6489 205.41C50.1849 205.41 50.5929 205.262 50.8729 204.966C51.1609 204.67 51.3489 204.278 51.4369 203.79C51.5329 203.302 51.5809 202.698 51.5809 201.978Z" fill="black"/>
<path d="M61.7288 153.815H71.7041" stroke="black"/>
<path d="M40.4702 154.988C40.5502 155.444 40.7342 155.796 41.0222 156.044C41.3182 156.292 41.7142 156.416 42.2102 156.416C42.8742 156.416 43.3622 156.156 43.6742 155.636C43.9942 155.116 44.1462 154.24 44.1302 153.008C43.9622 153.368 43.6822 153.652 43.2902 153.86C42.8982 154.06 42.4622 154.16 41.9822 154.16C41.4462 154.16 40.9662 154.052 40.5422 153.836C40.1262 153.612 39.7982 153.288 39.5582 152.864C39.3182 152.44 39.1982 151.928 39.1982 151.328C39.1982 150.472 39.4462 149.784 39.9422 149.264C40.4382 148.736 41.1422 148.472 42.0542 148.472C43.1742 148.472 43.9582 148.836 44.4062 149.564C44.8622 150.292 45.0902 151.376 45.0902 152.816C45.0902 153.824 44.9982 154.656 44.8142 155.312C44.6382 155.968 44.3342 156.468 43.9022 156.812C43.4782 157.156 42.8942 157.328 42.1502 157.328C41.3342 157.328 40.6982 157.108 40.2422 156.668C39.7862 156.228 39.5262 155.668 39.4622 154.988H40.4702ZM42.1622 153.236C42.6982 153.236 43.1382 153.072 43.4822 152.744C43.8262 152.408 43.9982 151.956 43.9982 151.388C43.9982 150.788 43.8302 150.304 43.4942 149.936C43.1582 149.568 42.6862 149.384 42.0782 149.384C41.5182 149.384 41.0702 149.56 40.7342 149.912C40.4062 150.264 40.2422 150.728 40.2422 151.304C40.2422 151.888 40.4062 152.356 40.7342 152.708C41.0622 153.06 41.5382 153.236 42.1622 153.236ZM46.6248 152.888C46.6248 151.512 46.8488 150.44 47.2968 149.672C47.7448 148.896 48.5288 148.508 49.6488 148.508C50.7608 148.508 51.5408 148.896 51.9888 149.672C52.4368 150.44 52.6608 151.512 52.6608 152.888C52.6608 154.288 52.4368 155.376 51.9888 156.152C51.5408 156.928 50.7608 157.316 49.6488 157.316C48.5288 157.316 47.7448 156.928 47.2968 156.152C46.8488 155.376 46.6248 154.288 46.6248 152.888ZM51.5808 152.888C51.5808 152.192 51.5328 151.604 51.4368 151.124C51.3488 150.636 51.1608 150.244 50.8728 149.948C50.5928 149.652 50.1848 149.504 49.6488 149.504C49.1048 149.504 48.6888 149.652 48.4008 149.948C48.1208 150.244 47.9328 150.636 47.8368 151.124C47.7488 151.604 47.7048 152.192 47.7048 152.888C47.7048 153.608 47.7488 154.212 47.8368 154.7C47.9328 155.188 48.1208 155.58 48.4008 155.876C48.6888 156.172 49.1048 156.32 49.6488 156.32C50.1848 156.32 50.5928 156.172 50.8728 155.876C51.1608 155.58 51.3488 155.188 51.4368 154.7C51.5328 154.212 51.5808 153.608 51.5808 152.888Z" fill="black"/>
<path d="M61.7288 104.724H71.7042" stroke="black"/>
<path d="M34.9228 100.545V99.5487H37.1788V108.225H36.0748V100.545H34.9228ZM40.6385 103.713C40.1905 103.537 39.8465 103.281 39.6065 102.945C39.3665 102.609 39.2465 102.201 39.2465 101.721C39.2465 101.289 39.3545 100.901 39.5705 100.557C39.7865 100.205 40.1065 99.9287 40.5305 99.7287C40.9625 99.5207 41.4825 99.4167 42.0905 99.4167C42.6985 99.4167 43.2145 99.5207 43.6385 99.7287C44.0705 99.9287 44.3945 100.205 44.6105 100.557C44.8345 100.901 44.9465 101.289 44.9465 101.721C44.9465 102.185 44.8225 102.593 44.5745 102.945C44.3265 103.289 43.9865 103.545 43.5545 103.713C44.0505 103.865 44.4425 104.133 44.7305 104.517C45.0265 104.893 45.1745 105.349 45.1745 105.885C45.1745 106.405 45.0465 106.861 44.7905 107.253C44.5345 107.637 44.1705 107.937 43.6985 108.153C43.2345 108.361 42.6985 108.465 42.0905 108.465C41.4825 108.465 40.9465 108.361 40.4825 108.153C40.0265 107.937 39.6705 107.637 39.4145 107.253C39.1585 106.861 39.0305 106.405 39.0305 105.885C39.0305 105.349 39.1745 104.889 39.4625 104.505C39.7505 104.121 40.1425 103.857 40.6385 103.713ZM43.8905 101.853C43.8905 101.365 43.7305 100.989 43.4105 100.725C43.0905 100.461 42.6505 100.329 42.0905 100.329C41.5385 100.329 41.1025 100.461 40.7825 100.725C40.4625 100.989 40.3025 101.369 40.3025 101.865C40.3025 102.313 40.4665 102.673 40.7945 102.945C41.1305 103.217 41.5625 103.353 42.0905 103.353C42.6265 103.353 43.0585 103.217 43.3865 102.945C43.7225 102.665 43.8905 102.301 43.8905 101.853ZM42.0905 104.193C41.4985 104.193 41.0145 104.333 40.6385 104.613C40.2625 104.885 40.0745 105.297 40.0745 105.849C40.0745 106.361 40.2545 106.773 40.6145 107.085C40.9825 107.397 41.4745 107.553 42.0905 107.553C42.7065 107.553 43.1945 107.397 43.5545 107.085C43.9145 106.773 44.0945 106.361 44.0945 105.849C44.0945 105.313 43.9105 104.905 43.5425 104.625C43.1745 104.337 42.6905 104.193 42.0905 104.193ZM46.6249 103.797C46.6249 102.421 46.8489 101.349 47.2969 100.581C47.7449 99.8047 48.5289 99.4167 49.6489 99.4167C50.7609 99.4167 51.5409 99.8047 51.9889 100.581C52.4369 101.349 52.6609 102.421 52.6609 103.797C52.6609 105.197 52.4369 106.285 51.9889 107.061C51.5409 107.837 50.7609 108.225 49.6489 108.225C48.5289 108.225 47.7449 107.837 47.2969 107.061C46.8489 106.285 46.6249 105.197 46.6249 103.797ZM51.5809 103.797C51.5809 103.101 51.5329 102.513 51.4369 102.033C51.3489 101.545 51.1609 101.153 50.8729 100.857C50.5929 100.561 50.1849 100.413 49.6489 100.413C49.1049 100.413 48.6889 100.561 48.4009 100.857C48.1209 101.153 47.9329 101.545 47.8369 102.033C47.7489 102.513 47.7049 103.101 47.7049 103.797C47.7049 104.517 47.7489 105.121 47.8369 105.609C47.9329 106.097 48.1209 106.489 48.4009 106.785C48.6889 107.081 49.1049 107.229 49.6489 107.229C50.1849 107.229 50.5929 107.081 50.8729 106.785C51.1609 106.489 51.3489 106.097 51.4369 105.609C51.5329 105.121 51.5809 104.517 51.5809 103.797Z" fill="black"/>
<path d="M61.7288 55.6333H71.7042" stroke="black"/>
<path d="M33.0397 58.2583C34.0557 57.4423 34.8517 56.7743 35.4277 56.2543C36.0037 55.7263 36.4877 55.1783 36.8797 54.6103C37.2797 54.0343 37.4798 53.4703 37.4798 52.9183C37.4798 52.3983 37.3518 51.9903 37.0957 51.6943C36.8477 51.3903 36.4437 51.2383 35.8837 51.2383C35.3397 51.2383 34.9157 51.4103 34.6117 51.7543C34.3157 52.0903 34.1557 52.5423 34.1317 53.1103H33.0757C33.1077 52.2143 33.3797 51.5223 33.8917 51.0343C34.4037 50.5463 35.0637 50.3023 35.8717 50.3023C36.6957 50.3023 37.3477 50.5303 37.8277 50.9863C38.3158 51.4423 38.5598 52.0703 38.5598 52.8703C38.5598 53.5343 38.3598 54.1823 37.9597 54.8143C37.5677 55.4383 37.1197 55.9903 36.6157 56.4703C36.1117 56.9423 35.4677 57.4943 34.6837 58.1263H38.8117V59.0383H33.0397V58.2583ZM45.4141 51.3103L42.0781 59.1343H40.9741L44.3581 51.4183H39.7261V50.4823H45.4141V51.3103ZM46.6249 54.7063C46.6249 53.3303 46.8489 52.2583 47.2969 51.4903C47.7449 50.7143 48.5289 50.3263 49.6489 50.3263C50.7609 50.3263 51.5409 50.7143 51.9889 51.4903C52.4369 52.2583 52.6609 53.3303 52.6609 54.7063C52.6609 56.1063 52.4369 57.1943 51.9889 57.9703C51.5409 58.7463 50.7609 59.1343 49.6489 59.1343C48.5289 59.1343 47.7449 58.7463 47.2969 57.9703C46.8489 57.1943 46.6249 56.1063 46.6249 54.7063ZM51.5809 54.7063C51.5809 54.0103 51.5329 53.4223 51.4369 52.9423C51.3489 52.4543 51.1609 52.0623 50.8729 51.7663C50.5929 51.4703 50.1849 51.3223 49.6489 51.3223C49.1049 51.3223 48.6889 51.4703 48.4009 51.7663C48.1209 52.0623 47.9329 52.4543 47.8369 52.9423C47.7489 53.4223 47.7049 54.0103 47.7049 54.7063C47.7049 55.4263 47.7489 56.0303 47.8369 56.5183C47.9329 57.0063 48.1209 57.3983 48.4009 57.6943C48.6889 57.9903 49.1049 58.1383 49.6489 58.1383C50.1849 58.1383 50.5929 57.9903 50.8729 57.6943C51.1609 57.3983 51.3489 57.0063 51.4369 56.5183C51.5329 56.0303 51.5809 55.4263 51.5809 54.7063Z" fill="black"/>
<path d="M61.7289 6.54321H71.7043" stroke="black"/>
<path d="M32.2337 8.19281C32.2897 7.45681 32.5737 6.88081 33.0857 6.46481C33.5977 6.04881 34.2617 5.84081 35.0777 5.84081C35.6217 5.84081 36.0897 5.94081 36.4817 6.14081C36.8817 6.33281 37.1817 6.59681 37.3817 6.93281C37.5897 7.26881 37.6937 7.64881 37.6937 8.07281C37.6937 8.56881 37.5497 8.99681 37.2617 9.35681C36.9817 9.71681 36.6137 9.94881 36.1577 10.0528V10.1128C36.6777 10.2408 37.0897 10.4928 37.3937 10.8688C37.6977 11.2448 37.8497 11.7368 37.8497 12.3448C37.8497 12.8008 37.7457 13.2128 37.5377 13.5808C37.3297 13.9408 37.0177 14.2248 36.6017 14.4328C36.1857 14.6408 35.6857 14.7448 35.1017 14.7448C34.2537 14.7448 33.5577 14.5248 33.0137 14.0848C32.4697 13.6368 32.1657 13.0048 32.1017 12.1888H33.1577C33.2137 12.6688 33.4097 13.0608 33.7457 13.3648C34.0817 13.6688 34.5297 13.8208 35.0897 13.8208C35.6497 13.8208 36.0737 13.6768 36.3617 13.3888C36.6577 13.0928 36.8057 12.7128 36.8057 12.2488C36.8057 11.6488 36.6057 11.2168 36.2057 10.9528C35.8057 10.6888 35.2017 10.5568 34.3937 10.5568H34.1177V9.64481H34.4057C35.1417 9.63681 35.6977 9.51681 36.0737 9.28481C36.4497 9.04481 36.6377 8.67681 36.6377 8.18081C36.6377 7.75681 36.4977 7.41681 36.2177 7.16081C35.9457 6.90481 35.5537 6.77681 35.0417 6.77681C34.5457 6.77681 34.1457 6.90481 33.8417 7.16081C33.5377 7.41681 33.3577 7.76081 33.3017 8.19281H32.2337ZM44.1601 8.07281C43.9841 7.18481 43.4361 6.74081 42.5161 6.74081C41.8041 6.74081 41.2721 7.01681 40.9201 7.56881C40.5681 8.11281 40.3961 9.01281 40.4041 10.2688C40.5881 9.85281 40.8921 9.52881 41.3161 9.29681C41.7481 9.05681 42.2281 8.93681 42.7561 8.93681C43.5801 8.93681 44.2361 9.19281 44.7241 9.70481C45.2201 10.2168 45.4681 10.9248 45.4681 11.8288C45.4681 12.3728 45.3601 12.8608 45.1441 13.2928C44.9361 13.7248 44.6161 14.0688 44.1841 14.3248C43.7601 14.5808 43.2441 14.7088 42.6361 14.7088C41.8121 14.7088 41.1681 14.5248 40.7041 14.1568C40.2401 13.7888 39.9161 13.2808 39.7321 12.6328C39.5481 11.9848 39.4561 11.1848 39.4561 10.2328C39.4561 7.29681 40.4801 5.82881 42.5281 5.82881C43.3121 5.82881 43.9281 6.04081 44.3761 6.46481C44.8241 6.88881 45.0881 7.42481 45.1681 8.07281H44.1601ZM42.5281 9.86081C42.1841 9.86081 41.8601 9.93281 41.5561 10.0768C41.2521 10.2128 41.0041 10.4248 40.8121 10.7128C40.6281 10.9928 40.5361 11.3368 40.5361 11.7448C40.5361 12.3528 40.7121 12.8488 41.0641 13.2328C41.4161 13.6088 41.9201 13.7968 42.5761 13.7968C43.1361 13.7968 43.5801 13.6248 43.9081 13.2808C44.2441 12.9288 44.4121 12.4568 44.4121 11.8648C44.4121 11.2408 44.2521 10.7528 43.9321 10.4008C43.6121 10.0408 43.1441 9.86081 42.5281 9.86081ZM46.9413 10.2568C46.9413 8.88081 47.1653 7.80881 47.6133 7.04081C48.0613 6.26481 48.8453 5.87681 49.9653 5.87681C51.0773 5.87681 51.8573 6.26481 52.3053 7.04081C52.7533 7.80881 52.9773 8.88081 52.9773 10.2568C52.9773 11.6568 52.7533 12.7448 52.3053 13.5208C51.8573 14.2968 51.0773 14.6848 49.9653 14.6848C48.8453 14.6848 48.0613 14.2968 47.6133 13.5208C47.1653 12.7448 46.9413 11.6568 46.9413 10.2568ZM51.8973 10.2568C51.8973 9.56081 51.8493 8.97281 51.7533 8.49281C51.6653 8.00481 51.4773 7.61281 51.1893 7.31681C50.9093 7.02081 50.5013 6.87281 49.9653 6.87281C49.4213 6.87281 49.0053 7.02081 48.7173 7.31681C48.4373 7.61281 48.2493 8.00481 48.1533 8.49281C48.0653 8.97281 48.0213 9.56081 48.0213 10.2568C48.0213 10.9768 48.0653 11.5808 48.1533 12.0688C48.2493 12.5568 48.4373 12.9488 48.7173 13.2448C49.0053 13.5408 49.4213 13.6888 49.9653 13.6888C50.5013 13.6888 50.9093 13.5408 51.1893 13.2448C51.4773 12.9488 51.6653 12.5568 51.7533 12.0688C51.8493 11.5808 51.8973 10.9768 51.8973 10.2568Z" fill="black"/>
<path d="M71.6471 195.813L179.664 110.723L287.681 10.3605L395.698 135.814L503.715 178.359L611.732 123.269L719.749 44.7238V202.904H611.732H503.715H395.698H287.681H179.664H71.6471V195.813Z" fill="url(#paint0_linear_1_400)" fill-opacity="0.6"/>
<path d="M71.6471 199.495C73.4428 199.495 74.8984 197.847 74.8984 195.814C74.8984 193.78 73.4428 192.132 71.6471 192.132C69.8514 192.132 68.3958 193.78 68.3958 195.814C68.3958 197.847 69.8514 199.495 71.6471 199.495Z" fill="#43B02A" fill-opacity="0.6"/>
<path d="M179.664 114.406C181.46 114.406 182.915 112.757 182.915 110.724C182.915 108.691 181.46 107.042 179.664 107.042C177.868 107.042 176.413 108.691 176.413 110.724C176.413 112.757 177.868 114.406 179.664 114.406Z" fill="#43B02A" fill-opacity="0.6"/>
<path d="M287.681 14.0424C289.477 14.0424 290.932 12.394 290.932 10.3606C290.932 8.32723 289.477 6.67883 287.681 6.67883C285.885 6.67883 284.43 8.32723 284.43 10.3606C284.43 12.394 285.885 14.0424 287.681 14.0424Z" fill="#43B02A" fill-opacity="0.6"/>
<path d="M395.698 139.496C397.494 139.496 398.949 137.847 398.949 135.814C398.949 133.78 397.494 132.132 395.698 132.132C393.902 132.132 392.447 133.78 392.447 135.814C392.447 137.847 393.902 139.496 395.698 139.496Z" fill="#43B02A" fill-opacity="0.6"/>
<path d="M503.715 182.041C505.511 182.041 506.966 180.393 506.966 178.36C506.966 176.326 505.511 174.678 503.715 174.678C501.919 174.678 500.464 176.326 500.464 178.36C500.464 180.393 501.919 182.041 503.715 182.041Z" fill="#43B02A" fill-opacity="0.6"/>
<path d="M611.732 126.951C613.527 126.951 614.983 125.302 614.983 123.269C614.983 121.235 613.527 119.587 611.732 119.587C609.936 119.587 608.48 121.235 608.48 123.269C608.48 125.302 609.936 126.951 611.732 126.951Z" fill="#43B02A" fill-opacity="0.6"/>
<path d="M719.749 48.4057C721.544 48.4057 723 46.7573 723 44.7239C723 42.6905 721.544 41.0421 719.749 41.0421C717.953 41.0421 716.497 42.6905 716.497 44.7239C716.497 46.7573 717.953 48.4057 719.749 48.4057Z" fill="#43B02A" fill-opacity="0.6"/>
</g>
<defs>
<linearGradient id="paint0_linear_1_400" x1="395.698" y1="-60.3435" x2="395.698" y2="532.424" gradientUnits="userSpaceOnUse">
<stop offset="0.17063" stop-color="#0074FF"/>
<stop offset="0.408049" stop-color="#80A9DA" stop-opacity="0.3"/>
<stop offset="0.610435" stop-color="#80A9DA" stop-opacity="0"/>
</linearGradient>
<clipPath id="clip0_1_400">
<rect width="736.672" height="245.453" fill="white" transform="translate(0.0220947 0.406372)"/>
</clipPath>
</defs>
</svg>
