<svg width="18" height="18" viewBox="0 0 18 18" fill="none" xmlns="http://www.w3.org/2000/svg">
<path d="M7.18949 17.1358C3.45866 16.3091 0.666992 12.9808 0.666992 8.99997C0.666992 7.48163 1.07283 6.0583 1.78283 4.83163L5.35199 11.0141C5.75298 11.7409 6.36195 12.3313 7.10077 12.7096C7.83959 13.0879 8.67459 13.2369 9.49866 13.1375L7.19033 17.1358H7.18949ZM9.00033 17.3333L12.5728 11.1458C12.9628 10.498 13.1682 9.75603 13.167 8.99997C13.1683 8.09821 12.8758 7.22057 12.3337 6.49997H16.952C17.2059 7.30897 17.3346 8.15205 17.3337 8.99997C17.3337 13.6025 13.6028 17.3333 9.00033 17.3333ZM11.1437 10.2875C10.9197 10.6608 10.6022 10.9691 10.2225 11.1819C9.84277 11.3948 9.41405 11.5047 8.97877 11.5009C8.54349 11.4971 8.11675 11.3797 7.74079 11.1603C7.36484 10.9409 7.05272 10.6271 6.83533 10.25L6.81116 10.2083C6.60013 9.82589 6.49298 9.39487 6.50036 8.95816C6.50774 8.52146 6.62941 8.0943 6.85324 7.71925C7.07707 7.34419 7.39525 7.03432 7.7761 6.82049C8.15695 6.60667 8.58717 6.49635 9.02392 6.50053C9.46067 6.50471 9.88871 6.62324 10.2654 6.84432C10.6421 7.06539 10.9543 7.38129 11.1709 7.76056C11.3875 8.13984 11.501 8.56924 11.5 9.00601C11.499 9.44277 11.3836 9.87167 11.1653 10.25L11.1437 10.2875ZM2.86033 3.3658C3.64011 2.51404 4.58882 1.83412 5.64598 1.36939C6.70313 0.904658 7.84553 0.665319 9.00033 0.666631C10.4634 0.666038 11.9009 1.05083 13.1681 1.78228C14.4352 2.51372 15.4874 3.56603 16.2187 4.8333H9.00033C8.18411 4.83312 7.38581 5.07263 6.7045 5.5221C6.02319 5.97156 5.48886 6.6112 5.16783 7.36163L2.86033 3.3658Z" fill="#040505"/>
</svg>
