<svg width="18" height="18" viewBox="0 0 18 18" fill="none" xmlns="http://www.w3.org/2000/svg">
<path d="M14.1429 15.4289C14.1429 16.1108 13.8719 16.7649 13.3897 17.2471C12.9075 17.7294 12.2534 18.0003 11.5714 18.0003H2.57143C1.88944 18.0003 1.23539 17.7294 0.753154 17.2471C0.270918 16.7649 0 16.1108 0 15.4289V6.42885C0 5.74687 0.270918 5.09281 0.753154 4.61058C1.23539 4.12834 1.88944 3.85742 2.57143 3.85742V5.14314C2.23044 5.14314 1.90341 5.2786 1.66229 5.51971C1.42117 5.76083 1.28571 6.08786 1.28571 6.42885V15.4289C1.28571 15.7698 1.42117 16.0969 1.66229 16.338C1.90341 16.5791 2.23044 16.7146 2.57143 16.7146H11.5714C11.9124 16.7146 12.2394 16.5791 12.4806 16.338C12.7217 16.0969 12.8571 15.7698 12.8571 15.4289H14.1429Z" fill="#929292"/>
<path d="M6.42861 1.28571C6.08761 1.28571 5.76059 1.42117 5.51947 1.66229C5.27835 1.90341 5.14289 2.23044 5.14289 2.57143V11.5714C5.14289 11.9124 5.27835 12.2394 5.51947 12.4806C5.76059 12.7217 6.08761 12.8571 6.42861 12.8571H15.4286C15.7696 12.8571 16.0966 12.7217 16.3377 12.4806C16.5789 12.2394 16.7143 11.9124 16.7143 11.5714V2.57143C16.7143 2.23044 16.5789 1.90341 16.3377 1.66229C16.0966 1.42117 15.7696 1.28571 15.4286 1.28571H6.42861ZM6.42861 0H15.4286C16.1106 0 16.7646 0.270918 17.2469 0.753154C17.7291 1.23539 18 1.88944 18 2.57143V11.5714C18 12.2534 17.7291 12.9075 17.2469 13.3897C16.7646 13.8719 16.1106 14.1429 15.4286 14.1429H6.42861C5.74662 14.1429 5.09257 13.8719 4.61033 13.3897C4.1281 12.9075 3.85718 12.2534 3.85718 11.5714V2.57143C3.85718 1.88944 4.1281 1.23539 4.61033 0.753154C5.09257 0.270918 5.74662 0 6.42861 0Z" fill="#929292"/>
</svg>
