<svg width="90" height="90" viewBox="0 0 90 90" fill="none" xmlns="http://www.w3.org/2000/svg">
<circle cx="45" cy="45" r="45" fill="#43B02A" fill-opacity="0.2"/>
<path d="M33.7501 36.4745H42.1876" stroke="#43B02A" stroke-linecap="round" stroke-linejoin="round"/>
<path d="M67.496 42.0004C67.496 41.8302 67.5002 40.8222 67.496 40.7515C67.42 39.644 66.5151 38.7621 65.376 38.6891C65.3022 38.6847 65.2157 38.6847 65.0385 38.6847H59.5499C55.7847 38.6847 52.7346 41.6533 52.7346 45.3161C52.7346 48.9788 55.7868 51.9475 59.5478 51.9475H65.0385C65.2157 51.9475 65.3022 51.9475 65.376 51.9431C66.5151 51.8701 67.4221 50.9881 67.496 49.8807C67.5002 49.81 67.5002 48.802 67.5002 48.6318" stroke="#43B02A" stroke-linecap="round"/>
<path d="M60.6719 45.3161C60.6719 46.283 59.9295 47.0265 59.0625 47.0265C58.1955 47.0265 57.4531 46.283 57.4531 45.3161C57.4531 44.3491 58.1955 43.6056 59.0625 43.6056C59.9295 43.6056 60.6719 44.3491 60.6719 45.3161Z" fill="black" stroke="#43B02A"/>
<path d="M42.1875 63H48.5156C56.4701 63 60.4484 63 62.9184 60.4093C64.6249 58.6233 65.1544 56.0857 65.3168 51.9477M65.3168 38.6849C65.1523 34.5469 64.6249 32.0093 62.9184 30.2232C60.4484 27.6326 56.4701 27.6326 48.5156 27.6326H42.1875C34.233 27.6326 30.2548 27.6326 27.7847 30.2232C25.3125 32.8117 25.3125 36.9806 25.3125 45.3163C25.3125 53.6519 25.3125 57.8209 27.7847 60.4093C29.1621 61.855 31.0078 62.4938 33.75 62.7745M33.75 27.6326L41.6285 22.1572C42.7365 21.402 44.0298 21 45.3516 21C46.6733 21 47.9666 21.402 49.0746 22.1572L56.9531 27.6326" stroke="#43B02A" stroke-linecap="round"/>
</svg>
