<svg width="15" height="15" viewBox="0 0 15 15" fill="none" xmlns="http://www.w3.org/2000/svg">
<g clip-path="url(#clip0_4101_6696)">
<path d="M1.96737 5.74998H3.71737V12.75H1.96737C1.6452 12.75 1.38403 12.4888 1.38403 12.1667V6.33332C1.38403 6.01115 1.6452 5.74998 1.96737 5.74998ZM5.05489 4.9958L8.78852 1.26219C8.89112 1.15955 9.05364 1.14801 9.16972 1.23509L9.66707 1.6081C9.94982 1.82015 10.0772 2.18148 9.99001 2.52397L9.31725 5.16665H13.0507C13.695 5.16665 14.2174 5.68898 14.2174 6.33332V7.56084C14.2174 7.71327 14.1875 7.86417 14.1295 8.00505L12.3244 12.3887C12.2344 12.6073 12.0214 12.75 11.785 12.75H5.46737C5.1452 12.75 4.88403 12.4888 4.88403 12.1667V5.40828C4.88403 5.25357 4.94549 5.10519 5.05489 4.9958Z" fill="#F8F9FC"/>
</g>
<defs>
<clipPath id="clip0_4101_6696">
<rect width="14" height="14" fill="white" transform="translate(0.800049 0.5)"/>
</clipPath>
</defs>
</svg>
