<svg width="14" height="16" viewBox="0 0 14 16" fill="none" xmlns="http://www.w3.org/2000/svg">
<path d="M11.2086 14.9C10.392 15.6917 9.5003 15.5667 8.64197 15.1917C7.73363 14.8083 6.9003 14.7917 5.94197 15.1917C4.74197 15.7083 4.10863 15.5583 3.39197 14.9C-0.6747 10.7083 -0.0747004 4.325 4.54197 4.09167C5.66697 4.15 6.4503 4.70833 7.10863 4.75833C8.09197 4.55833 9.03363 3.98333 10.0836 4.05833C11.342 4.15833 12.292 4.65833 12.917 5.55833C10.317 7.11667 10.9336 10.5417 13.317 11.5C12.842 12.75 12.2253 13.9917 11.2003 14.9083L11.2086 14.9ZM7.0253 4.04167C6.9003 2.18333 8.40863 0.65 10.142 0.5C10.3836 2.65 8.19197 4.25 7.0253 4.04167Z" fill="#040505"/>
</svg>
