<svg width="28" height="22" viewBox="0 0 28 22" fill="none" xmlns="http://www.w3.org/2000/svg">
<path d="M6.41667 5.78947C6.41667 5.3333 6.5072 4.8816 6.68309 4.46015C6.85898 4.03871 7.11679 3.65577 7.44179 3.33321C7.7668 3.01065 8.15263 2.75478 8.57727 2.58021C9.00191 2.40564 9.45704 2.31579 9.91667 2.31579C10.3763 2.31579 10.8314 2.40564 11.2561 2.58021C11.6807 2.75478 12.0665 3.01065 12.3915 3.33321C12.7165 3.65577 12.9744 4.03871 13.1502 4.46015C13.3261 4.8816 13.4167 5.3333 13.4167 5.78947C13.4167 6.71075 13.0479 7.5943 12.3915 8.24574C11.7352 8.89718 10.8449 9.26316 9.91667 9.26316C8.98841 9.26316 8.09817 8.89718 7.44179 8.24574C6.78542 7.5943 6.41667 6.71075 6.41667 5.78947ZM9.91667 0C8.36957 0 6.88584 0.609961 5.79188 1.6957C4.69791 2.78143 4.08333 4.25401 4.08333 5.78947C4.08333 7.32494 4.69791 8.79751 5.79188 9.88325C6.88584 10.969 8.36957 11.5789 9.91667 11.5789C11.4638 11.5789 12.9475 10.969 14.0415 9.88325C15.1354 8.79751 15.75 7.32494 15.75 5.78947C15.75 4.25401 15.1354 2.78143 14.0415 1.6957C12.9475 0.609961 11.4638 0 9.91667 0ZM18.0833 0H16.9167V2.31579H18.0833C18.543 2.31579 18.9981 2.40564 19.4227 2.58021C19.8474 2.75478 20.2332 3.01065 20.5582 3.33321C20.8832 3.65577 21.141 4.03871 21.3169 4.46015C21.4928 4.8816 21.5833 5.3333 21.5833 5.78947C21.5833 6.24564 21.4928 6.69735 21.3169 7.11879C21.141 7.54024 20.8832 7.92318 20.5582 8.24574C20.2332 8.5683 19.8474 8.82417 19.4227 8.99874C18.9981 9.17331 18.543 9.26316 18.0833 9.26316H16.9167V11.5789H18.0833C19.6304 11.5789 21.1142 10.969 22.2081 9.88325C23.3021 8.79751 23.9167 7.32494 23.9167 5.78947C23.9167 4.25401 23.3021 2.78143 22.2081 1.6957C21.1142 0.609961 19.6304 0 18.0833 0ZM0 19.6842C0 18.1487 0.614582 16.6762 1.70854 15.5904C2.80251 14.5047 4.28624 13.8947 5.83333 13.8947H14C15.5471 13.8947 17.0308 14.5047 18.1248 15.5904C19.2188 16.6762 19.8333 18.1487 19.8333 19.6842V22H17.5V19.6842C17.5 18.7629 17.1313 17.8794 16.4749 17.2279C15.8185 16.5765 14.9283 16.2105 14 16.2105H5.83333C4.90508 16.2105 4.01484 16.5765 3.35846 17.2279C2.70208 17.8794 2.33333 18.7629 2.33333 19.6842V22H0V20.8421V19.6842ZM28 19.6842C28 18.9239 27.8491 18.1711 27.556 17.4687C27.2628 16.7663 26.8331 16.128 26.2915 15.5904C25.7498 15.0528 25.1067 14.6264 24.399 14.3354C23.6913 14.0445 22.9327 13.8947 22.1667 13.8947H21V16.2105H22.1667C23.0949 16.2105 23.9852 16.5765 24.6415 17.2279C25.2979 17.8794 25.6667 18.7629 25.6667 19.6842V22H28V20.8421V19.6842Z" fill="black"/>
</svg>
