<svg width="242" height="180" viewBox="0 0 242 180" fill="none" xmlns="http://www.w3.org/2000/svg">
<path d="M241.395 158.065H0V158.186H241.395V158.065Z" fill="#E6E6E6"/>
<path d="M215.122 161.17H203.897V161.291H215.122V161.17Z" fill="#E6E6E6"/>
<path d="M174.287 163.792H120.973V163.913H174.287V163.792Z" fill="#E6E6E6"/>
<path d="M98.1659 163.854H92.9373V163.975H98.1659V163.854Z" fill="#E6E6E6"/>
<path d="M55.7913 162.406H37.6577V162.527H55.7913V162.406Z" fill="#E6E6E6"/>
<path d="M199.224 161.17H188.612V161.291H199.224V161.17Z" fill="#E6E6E6"/>
<path d="M33.718 162.406H24.936V162.527H33.718V162.406Z" fill="#E6E6E6"/>
<path d="M114.421 136.533H21.1994C20.4691 136.532 19.7692 136.241 19.2532 135.724C18.7373 135.207 18.4475 134.507 18.4475 133.777V2.7326C18.4539 2.00649 18.7465 1.31222 19.2617 0.800573C19.777 0.28893 20.4733 0.00124386 21.1994 0H114.421C115.153 0 115.854 0.290441 116.371 0.807429C116.888 1.32442 117.178 2.0256 117.178 2.75674V133.777C117.178 134.508 116.888 135.209 116.371 135.726C115.854 136.243 115.153 136.533 114.421 136.533ZM21.1994 0.0965585C20.5011 0.0978374 19.8319 0.376126 19.3386 0.87034C18.8453 1.36455 18.5682 2.03431 18.5682 2.7326V133.777C18.5682 134.475 18.8453 135.145 19.3386 135.639C19.8319 136.133 20.5011 136.411 21.1994 136.413H114.421C115.12 136.411 115.79 136.133 116.284 135.639C116.778 135.145 117.056 134.475 117.058 133.777V2.7326C117.056 2.03387 116.778 1.36412 116.284 0.870045C115.79 0.375969 115.12 0.0978348 114.421 0.0965585H21.1994Z" fill="#E6E6E6"/>
<path d="M218.854 136.533H125.627C124.896 136.532 124.196 136.241 123.679 135.724C123.162 135.208 122.872 134.507 122.87 133.777V2.7326C122.878 2.00605 123.172 1.31178 123.688 0.800271C124.204 0.288761 124.901 0.00123029 125.627 0H218.854C219.579 0.00251268 220.274 0.29076 220.789 0.802267C221.303 1.31377 221.595 2.00732 221.601 2.7326V133.777C221.601 134.506 221.312 135.206 220.797 135.722C220.282 136.239 219.583 136.531 218.854 136.533ZM125.627 0.0965585C124.928 0.0978348 124.259 0.375969 123.765 0.870045C123.27 1.36412 122.992 2.03387 122.991 2.7326V133.777C122.992 134.475 123.27 135.145 123.765 135.639C124.259 136.133 124.928 136.411 125.627 136.413H218.854C219.553 136.411 220.222 136.133 220.717 135.639C221.211 135.145 221.489 134.475 221.49 133.777V2.7326C221.489 2.03387 221.211 1.36412 220.717 0.870045C220.222 0.375969 219.553 0.0978348 218.854 0.0965585H125.627Z" fill="#E6E6E6"/>
<path d="M156.217 72.4766H192.701V8.95577L156.217 8.95577V72.4766Z" fill="#E6E6E6"/>
<path d="M154.247 72.4766H190.731V8.95577L154.247 8.95577V72.4766Z" fill="#F5F5F5"/>
<path d="M187.188 69.4978V11.9395L157.781 11.9395V69.4978H187.188Z" fill="#FAFAFA"/>
<path d="M159.273 69.4978V11.9395H157.781V69.4978H159.273Z" fill="#E6E6E6"/>
<path d="M155.71 55.6035L189.269 55.6035V51.6012L155.71 51.6012V55.6035Z" fill="#F5F5F5"/>
<path d="M94.2118 72.4766H130.696V8.95577L94.2118 8.95577V72.4766Z" fill="#E6E6E6"/>
<path d="M92.2421 72.4766H128.727V8.95577L92.2421 8.95577V72.4766Z" fill="#F5F5F5"/>
<path d="M125.188 69.4978V11.9395L95.781 11.9395V69.4978H125.188Z" fill="#FAFAFA"/>
<path d="M97.2678 69.4929V11.9346H95.776V69.4929H97.2678Z" fill="#E6E6E6"/>
<path d="M93.7049 55.6035L127.264 55.6035V51.6012L93.7049 51.6012V55.6035Z" fill="#F5F5F5"/>
<path d="M32.2118 72.4766H68.6963L68.6963 8.95577L32.2118 8.95577L32.2118 72.4766Z" fill="#E6E6E6"/>
<path d="M30.2421 72.4766H66.7266L66.7266 8.95577L30.2421 8.95577L30.2421 72.4766Z" fill="#F5F5F5"/>
<path d="M63.1829 69.4929V11.9346L33.7761 11.9346V69.4929H63.1829Z" fill="#FAFAFA"/>
<path d="M35.2678 69.4978V11.9395H33.776V69.4978H35.2678Z" fill="#E6E6E6"/>
<path d="M31.7049 55.6035L65.2637 55.6035V51.6012L31.7049 51.6012V55.6035Z" fill="#F5F5F5"/>
<path d="M67.5908 111.775C61.0103 112.683 56.9404 98.3828 71.4531 86.2744C70.6951 100.29 79.0715 110.192 67.5908 111.775Z" fill="#E6E6E6"/>
<path d="M62.7629 130.503C53.2229 123.817 59.7503 100.455 89.2729 102.149C76.5079 119.346 79.3998 142.158 62.7629 130.503Z" fill="#E0E0E0"/>
<path d="M66.1424 130.354C72.4815 123.527 63.4581 106.344 40.6462 112.621C53.5174 123.918 55.0817 142.249 66.1424 130.354Z" fill="#E0E0E0"/>
<path d="M58.0024 120.388C55.8106 117.719 53.2228 114.716 53.8504 111.539C54.4781 108.362 56.0471 106.001 54.816 102.622C53.3194 98.5663 53.609 93.7287 56.1389 94.1342C58.6687 94.5398 61.5027 97.5138 61.4496 101.429C61.4061 105.234 63.8635 106.45 66.2292 108.473C68.5949 110.496 69.4301 113.456 69.8501 116.352C70.584 120.953 76.5464 120.084 78.13 124.077C79.7666 127.939 76.503 133.081 71.284 134.264C66.065 135.447 62.3476 136.195 58.7894 132.111C55.1733 127.809 61.2468 124.212 58.0024 120.388Z" fill="#F5F5F5"/>
<path d="M75.9575 158.065H56.3514L54.874 131.357H77.4348L75.9575 158.065Z" fill="#EBEBEB"/>
<path d="M78.8977 130.812H53.4111V133.69H78.8977V130.812Z" fill="#EBEBEB"/>
<path d="M191.543 154.44H204.732V97.2442H191.543V154.44Z" fill="#EBEBEB"/>
<path d="M88.1819 158.065H202.198V154.44H88.1819V158.065Z" fill="#EBEBEB"/>
<path d="M191.542 97.2441H85.6519V154.44H191.542V97.2441Z" fill="#F5F5F5"/>
<path d="M186.357 104.283H90.8372V123.044H186.357V104.283Z" fill="#EBEBEB"/>
<path d="M186.357 128.64H90.8372V147.401H186.357V128.64Z" fill="#EBEBEB"/>
<path d="M108.884 114.947H168.311C168.651 114.946 168.977 114.81 169.217 114.57C169.458 114.329 169.594 114.003 169.595 113.663C169.595 113.322 169.46 112.995 169.219 112.753C168.978 112.512 168.652 112.375 168.311 112.374H108.884C108.543 112.375 108.216 112.512 107.975 112.753C107.735 112.995 107.6 113.322 107.6 113.663C107.601 114.003 107.737 114.329 107.977 114.57C108.218 114.81 108.544 114.946 108.884 114.947Z" fill="#F5F5F5"/>
<path d="M108.884 139.305H168.311C168.651 139.304 168.977 139.168 169.217 138.927C169.458 138.687 169.594 138.361 169.595 138.021C169.594 137.68 169.458 137.354 169.217 137.114C168.977 136.873 168.651 136.738 168.311 136.736H108.884C108.544 136.738 108.218 136.873 107.977 137.114C107.737 137.354 107.601 137.68 107.6 138.021C107.601 138.361 107.737 138.687 107.977 138.927C108.218 139.168 108.544 139.304 108.884 139.305Z" fill="#F5F5F5"/>
<path d="M162.31 88.8967C162.31 88.8967 177.421 103.216 186.391 88.8388C186.391 88.8388 184.006 84.2185 181.491 83.8226C178.976 83.4267 178.874 87.8201 176.663 86.4635C174.452 85.1068 171.869 80.4672 170.459 82.9439C169.049 85.4206 167.113 81.8914 165.004 81.6887C162.894 81.4859 162.31 88.8967 162.31 88.8967Z" fill="#F5F5F5"/>
<path d="M187.352 87.9062C187.352 87.9062 187.023 97.2434 174.287 97.2434C161.551 97.2434 161.223 87.9062 161.223 87.9062H187.352Z" fill="#EBEBEB"/>
<path d="M122.923 83.04H130.257V97.2438H108.725C108.725 93.4775 110.22 89.8655 112.883 87.2019C115.546 84.5383 119.157 83.0413 122.923 83.04Z" fill="#F5F5F5"/>
<path d="M137.021 83.04H130.257V97.2438H137.021V83.04Z" fill="#E6E6E6"/>
<path d="M120.698 179.869C172.396 179.869 214.306 177.422 214.306 174.404C214.306 171.385 172.396 168.938 120.698 168.938C68.9992 168.938 27.0894 171.385 27.0894 174.404C27.0894 177.422 68.9992 179.869 120.698 179.869Z" fill="#F5F5F5"/>
<path d="M105.248 68.9234L104.93 69.4062C104.833 69.5462 104.732 69.6717 104.635 69.802C104.437 70.0628 104.23 70.2848 104.022 70.5504C103.602 71.0332 103.177 71.516 102.723 71.9408C101.816 72.8128 100.848 73.6195 99.8267 74.3548C98.8067 75.0899 97.7336 75.7483 96.6162 76.3246C96.0513 76.5997 95.4913 76.8846 94.9071 77.1163L94.0332 77.4639L93.787 77.5557C93.6518 77.5991 93.5263 77.6474 93.3766 77.6812C93.0847 77.754 92.7844 77.7881 92.4835 77.7826C91.9099 77.7787 91.3455 77.638 90.8372 77.3722C90.4284 77.1587 90.0528 76.8871 89.7219 76.5659C89.1978 76.0489 88.7448 75.4645 88.3749 74.8279C87.7426 73.7257 87.2264 72.5607 86.8348 71.3518C86.0753 69.0728 85.5322 66.7274 85.2126 64.3465L87.2307 63.9023C87.5976 64.9597 87.9742 66.0508 88.3894 67.1032C88.8046 68.1557 89.2198 69.2034 89.7026 70.1979C90.1421 71.1579 90.6655 72.0772 91.2668 72.945C91.5058 73.3048 91.7933 73.6297 92.1214 73.9106C92.2156 73.9879 92.3216 74.0499 92.4352 74.0941C92.5028 74.0941 92.498 74.0941 92.4642 74.0941H92.4304L92.5897 74.0168L93.3091 73.6692C93.7918 73.4375 94.2505 73.1864 94.714 72.9064C95.6282 72.3586 96.5115 71.7606 97.3597 71.1152C98.1966 70.4575 98.9915 69.748 99.7398 68.991C100.116 68.624 100.474 68.233 100.816 67.8371C100.985 67.6391 101.154 67.4412 101.299 67.2433L101.531 66.9488L101.719 66.6977L105.248 68.9234Z" fill="#B97964"/>
<path d="M99.4019 68.7158L101.85 74.5866L100.078 75.6921L97.3259 70.367L99.4019 68.7158Z" fill="#263238"/>
<path d="M106.33 63.7719C102.337 63.7188 98.2818 68.7736 98.1804 68.8991L101.338 76.3245C101.338 76.3245 108.362 70.6227 108.715 68.3922C109.082 66.07 108.86 63.8057 106.33 63.7719Z" fill="#508CAE"/>
<path opacity="0.3" d="M106.33 63.7719C102.337 63.7188 98.2818 68.7736 98.1804 68.8991L101.338 76.3245C101.338 76.3245 108.362 70.6227 108.715 68.3922C109.082 66.07 108.86 63.8057 106.33 63.7719Z" fill="black"/>
<path d="M86.9024 63.1347L84.1408 60.9863L83.5808 65.2156C83.5808 65.2156 86.2651 66.2681 87.6942 65.3556L87.6556 64.5831C87.6412 64.3018 87.5665 64.0269 87.4365 63.777C87.3066 63.5271 87.1244 63.3081 86.9024 63.1347Z" fill="#B97964"/>
<path d="M80.4619 60.7734L80.6357 63.984L83.5952 65.2151L84.1553 60.9859L80.4619 60.7734Z" fill="#B97964"/>
<path d="M140.975 62.7921L145.243 61.7251L142.259 58.6787C142.259 58.6787 139.493 59.8084 140.169 62.2224L140.975 62.7921Z" fill="#B97964"/>
<path d="M147.362 60.9668L147.01 57.6162L142.235 58.6783L145.219 61.7248L147.362 60.9668Z" fill="#B97964"/>
<path d="M127.056 170.17L123.083 170.551L119.766 161.175L123.739 160.789L127.056 170.17Z" fill="#B97964"/>
<path d="M169.59 150.457L166.664 153.295L159.142 147.425L162.073 144.586L169.59 150.457Z" fill="#B97964"/>
<path d="M165.819 152.746L168.069 148.753C168.107 148.684 168.169 148.632 168.242 148.605C168.316 148.579 168.397 148.58 168.47 148.608L171.888 149.931C171.973 149.968 172.049 150.022 172.111 150.09C172.173 150.158 172.22 150.238 172.249 150.325C172.278 150.413 172.289 150.506 172.28 150.597C172.271 150.689 172.243 150.778 172.197 150.858C171.391 152.239 170.932 152.861 169.942 154.619C169.334 155.7 168.146 158.177 167.306 159.669C166.466 161.161 164.946 160.407 165.163 159.712C166.128 156.589 165.964 154.846 165.704 153.465C165.656 153.219 165.697 152.964 165.819 152.746Z" fill="#263238"/>
<path d="M122.291 169.334H127.119C127.205 169.336 127.289 169.365 127.358 169.418C127.427 169.471 127.476 169.545 127.5 169.628L128.553 173.457C128.579 173.548 128.584 173.643 128.567 173.736C128.55 173.828 128.511 173.916 128.453 173.991C128.396 174.065 128.322 174.126 128.237 174.166C128.151 174.207 128.058 174.227 127.964 174.225C126.269 174.196 125.443 174.094 123.314 174.094C122.006 174.094 117.743 174.234 115.933 174.234C114.122 174.234 113.794 172.443 114.528 172.303C117.811 171.574 120.582 170.575 121.591 169.619C121.778 169.435 122.029 169.333 122.291 169.334Z" fill="#263238"/>
<path d="M119.771 161.175L121.475 166.013H125.588L123.744 160.789L119.771 161.175Z" fill="#A76755"/>
<path d="M162.078 144.586L159.147 147.43L163.024 150.452L165.955 147.613L162.078 144.586Z" fill="#A76755"/>
<path d="M102.443 65.0605C102.443 65.0605 100.802 66.3109 111.863 87.8965L127.631 82.8031C125.294 76.4737 124.01 72.5196 122.803 58.3594C120.464 58.6181 118.147 59.0457 115.87 59.6388C113.435 60.2515 111.043 61.024 108.71 61.9513C105.697 63.2452 102.443 65.0605 102.443 65.0605Z" fill="#508CAE"/>
<path opacity="0.3" d="M102.443 65.0605C102.443 65.0605 100.802 66.3109 111.863 87.8965L127.631 82.8031C125.294 76.4737 124.01 72.5196 122.803 58.3594C120.464 58.6181 118.147 59.0457 115.87 59.6388C113.435 60.2515 111.043 61.024 108.71 61.9513C105.697 63.2452 102.443 65.0605 102.443 65.0605Z" fill="black"/>
<path d="M112.534 51.8037C112.823 54.2563 113.736 58.6207 115.846 59.6394C115.846 59.6394 115.966 62.1789 111.689 63.5597C106.982 65.0805 108.686 61.952 108.686 61.952C111.056 60.5036 110.371 58.6207 109.347 56.9792L112.534 51.8037Z" fill="#B97964"/>
<path d="M104.621 63.8921C105.784 63.2886 107.267 62.5548 108.686 61.9609C111.022 61.0166 113.423 60.2405 115.87 59.6387C117.246 59.2621 118.636 58.9821 119.809 58.7842C119.921 59.1125 119.587 59.9622 118.771 61.1354C116.189 63.279 110.68 66.0647 106.62 65.9633C104.843 65.3019 104.399 64.6018 104.621 63.8921Z" fill="#B97964"/>
<path d="M118.767 61.1357C117.013 63.4866 114.917 65.5615 112.548 67.2913C110.531 67.0458 108.544 66.6011 106.615 65.9637C110.656 66.065 116.164 63.2793 118.767 61.1357Z" fill="#263238"/>
<path d="M111.235 53.9131L109.347 56.9692C109.594 57.3501 109.806 57.7524 109.98 58.1713C110.916 57.7127 112.109 56.356 111.882 55.2746C111.747 54.7865 111.528 54.3258 111.235 53.9131Z" fill="#A76755"/>
<path d="M113.49 47.2747C113.731 51.3157 113.924 53.0199 112.147 55.3277C109.478 58.7941 104.461 58.2244 103.013 54.3235C101.714 50.8232 101.536 44.8028 105.268 42.7365C106.088 42.2757 107.012 42.0319 107.952 42.0284C108.893 42.0248 109.819 42.2615 110.642 42.716C111.466 43.1706 112.16 43.8279 112.658 44.6257C113.156 45.4235 113.442 46.3353 113.49 47.2747Z" fill="#B97964"/>
<path d="M121.471 40.0328C122.384 36.0184 119.869 32.0241 115.855 31.1113C111.841 30.1985 107.846 32.7129 106.934 36.7273C106.021 40.7418 108.535 44.7361 112.55 45.6488C116.564 46.5616 120.558 44.0473 121.471 40.0328Z" fill="#263238"/>
<path d="M112.341 41.6166C113.876 42.6305 114.639 44.1851 114.045 45.0879C113.451 45.9907 111.723 45.9038 110.183 44.8899C108.642 43.8761 107.884 42.3215 108.478 41.4187C109.072 40.5159 110.8 40.6028 112.341 41.6166Z" fill="#508CAE"/>
<path opacity="0.6" d="M112.341 41.6166C113.876 42.6305 114.639 44.1851 114.045 45.0879C113.451 45.9907 111.723 45.9038 110.183 44.8899C108.642 43.8761 107.884 42.3215 108.478 41.4187C109.072 40.5159 110.8 40.6028 112.341 41.6166Z" fill="#FAFAFA"/>
<path d="M111.525 50.0314C111.926 49.1044 110.53 46.3525 110.83 45.3242C110.028 44.5758 101.903 47.2215 102.559 45.2904C103.187 43.4364 105.167 40.979 109.685 42.0074C114.513 43.1081 114.933 47.2843 114.393 48.6168C113.852 49.9493 113.084 51.3349 113.084 51.3349L111.525 50.0314Z" fill="#263238"/>
<path d="M114.552 50.8185C114.562 51.6005 114.264 52.355 113.721 52.9186C112.992 53.6573 112.114 53.1262 111.887 52.1703C111.679 51.3109 111.814 49.8867 112.751 49.5101C112.958 49.4297 113.181 49.4024 113.401 49.4308C113.62 49.4592 113.829 49.5423 114.009 49.6726C114.188 49.8028 114.332 49.976 114.427 50.1762C114.521 50.3764 114.565 50.5973 114.552 50.8185Z" fill="#B97964"/>
<path d="M111.863 87.8965C111.863 87.8965 104.553 123.546 108.628 135.302C112.867 147.531 119.766 164.602 119.766 164.602L126.211 164.235C126.211 164.235 120.901 142.664 119.592 132.922C117.801 119.49 125.473 83.5225 125.473 83.5225L111.863 87.8965Z" fill="#508CAE"/>
<path opacity="0.6" d="M111.863 87.8965C111.863 87.8965 104.553 123.546 108.628 135.302C112.867 147.531 119.766 164.602 119.766 164.602L126.211 164.235C126.211 164.235 120.901 142.664 119.592 132.922C117.801 119.49 125.473 83.5225 125.473 83.5225L111.863 87.8965Z" fill="#FAFAFA"/>
<path d="M126.718 164.39L119.259 164.82L118.062 161.885L126.289 161.03L126.718 164.39Z" fill="#508CAE"/>
<path opacity="0.2" d="M126.718 164.39L119.259 164.82L118.062 161.885L126.289 161.03L126.718 164.39Z" fill="black"/>
<path d="M119.592 90.6387C118.472 94.781 119.409 100.99 121.523 105.344C122.04 101.965 122.59 98.6916 123.112 95.7611C122.025 93.6609 120.828 91.7974 119.592 90.6387Z" fill="#508CAE"/>
<path opacity="0.4" d="M119.592 90.6387C118.472 94.781 119.409 100.99 121.523 105.344C122.04 101.965 122.59 98.6916 123.112 95.7611C122.025 93.6609 120.828 91.7974 119.592 90.6387Z" fill="#FAFAFA"/>
<path d="M116.024 86.5502C116.024 86.5502 126.878 112.491 134.066 126.733C139.86 138.252 161.358 150.308 161.358 150.308L165.221 146.213C165.221 146.213 149.154 131.947 145.146 124.135C132.323 99.1317 134.959 88.211 127.64 82.8037L116.024 86.5502Z" fill="#508CAE"/>
<path opacity="0.6" d="M116.024 86.5502C116.024 86.5502 126.878 112.491 134.066 126.733C139.86 138.252 161.358 150.308 161.358 150.308L165.221 146.213C165.221 146.213 149.154 131.947 145.146 124.135C132.323 99.1317 134.959 88.211 127.64 82.8037L116.024 86.5502Z" fill="#FAFAFA"/>
<path d="M165.94 145.629L160.63 151.273L157.269 149.506L163.386 143.269L165.94 145.629Z" fill="#508CAE"/>
<path opacity="0.2" d="M165.94 145.629L160.63 151.273L157.269 149.506L163.386 143.269L165.94 145.629Z" fill="black"/>
<path d="M127.568 81.8046L128.732 82.9874C128.823 83.0791 128.732 83.2336 128.548 83.2916L112.012 88.6023C111.868 88.6505 111.728 88.6022 111.689 88.5298L111.095 87.1684C111.052 87.0718 111.148 86.9511 111.303 86.898L127.269 81.7466C127.319 81.7296 127.373 81.7259 127.426 81.7361C127.478 81.7463 127.527 81.7698 127.568 81.8046Z" fill="#263238"/>
<path d="M126.009 84.2805L126.433 84.1453C126.52 84.1164 126.569 84.0488 126.549 84.0005L125.757 82.2287C125.757 82.1804 125.642 82.1611 125.56 82.1852L125.13 82.3252C125.048 82.3252 124.995 82.4169 125.019 82.47L125.811 84.2371C125.825 84.2902 125.912 84.3095 126.009 84.2805Z" fill="#508CAE"/>
<path opacity="0.6" d="M126.009 84.2805L126.433 84.1453C126.52 84.1164 126.569 84.0488 126.549 84.0005L125.757 82.2287C125.757 82.1804 125.642 82.1611 125.56 82.1852L125.13 82.3252C125.048 82.3252 124.995 82.4169 125.019 82.47L125.811 84.2371C125.825 84.2902 125.912 84.3095 126.009 84.2805Z" fill="#FAFAFA"/>
<path d="M113.263 88.3939L113.692 88.2539C113.774 88.2249 113.828 88.1622 113.803 88.1091L113.012 86.3421C112.987 86.289 112.901 86.2696 112.814 86.2986L112.384 86.4338C112.302 86.4628 112.249 86.5255 112.273 86.5786L113.065 88.3456C113.089 88.3988 113.176 88.4181 113.263 88.3939Z" fill="#508CAE"/>
<path opacity="0.6" d="M113.263 88.3939L113.692 88.2539C113.774 88.2249 113.828 88.1622 113.803 88.1091L113.012 86.3421C112.987 86.289 112.901 86.2696 112.814 86.2986L112.384 86.4338C112.302 86.4628 112.249 86.5255 112.273 86.5786L113.065 88.3456C113.089 88.3988 113.176 88.4181 113.263 88.3939Z" fill="#FAFAFA"/>
<path d="M119.631 86.3373L120.056 86.1973C120.143 86.1973 120.196 86.1055 120.172 86.0524L119.38 84.2854C119.356 84.2323 119.264 84.213 119.182 84.242L118.752 84.382C118.67 84.4061 118.617 84.4737 118.641 84.522L119.433 86.2938C119.457 86.3215 119.489 86.3407 119.525 86.3485C119.56 86.3564 119.598 86.3524 119.631 86.3373Z" fill="#508CAE"/>
<path opacity="0.6" d="M119.631 86.3373L120.056 86.1973C120.143 86.1973 120.196 86.1055 120.172 86.0524L119.38 84.2854C119.356 84.2323 119.264 84.213 119.182 84.242L118.752 84.382C118.67 84.4061 118.617 84.4737 118.641 84.522L119.433 86.2938C119.457 86.3215 119.489 86.3407 119.525 86.3485C119.56 86.3564 119.598 86.3524 119.631 86.3373Z" fill="#FAFAFA"/>
<path d="M107.542 49.138C107.58 49.4615 107.44 49.7512 107.228 49.7753C107.016 49.7995 106.808 49.5581 106.769 49.2298C106.731 48.9015 106.871 48.6166 107.083 48.5925C107.296 48.5683 107.503 48.8097 107.542 49.138Z" fill="#263238"/>
<path d="M103.848 49.5871C103.892 49.9154 103.747 50.2002 103.535 50.2243C103.322 50.2485 103.115 50.0071 103.076 49.6836C103.037 49.3601 103.177 49.0705 103.39 49.0415C103.602 49.0125 103.8 49.2443 103.848 49.5871Z" fill="#263238"/>
<path d="M103.486 49.0513L102.675 48.9209C102.675 48.9209 103.153 49.4858 103.486 49.0513Z" fill="#263238"/>
<path d="M104.896 50.0312C104.694 50.8111 104.387 51.5599 103.984 52.2569C104.165 52.3539 104.366 52.4109 104.572 52.4243C104.777 52.4376 104.983 52.4069 105.176 52.3342L104.896 50.0312Z" fill="#A24E3F"/>
<path d="M106.47 53.4788C106.447 53.479 106.424 53.4709 106.406 53.4558C106.388 53.4407 106.377 53.4197 106.373 53.3967C106.372 53.3708 106.38 53.3451 106.396 53.3247C106.412 53.3042 106.435 53.2903 106.46 53.2856C106.867 53.2451 107.258 53.1095 107.603 52.8898C107.948 52.6701 108.236 52.3724 108.444 52.0207C108.45 52.0088 108.457 51.9981 108.467 51.9892C108.476 51.9803 108.487 51.9734 108.499 51.9689C108.512 51.9644 108.524 51.9624 108.537 51.963C108.55 51.9636 108.563 51.9668 108.575 51.9724C108.586 51.9781 108.596 51.986 108.605 51.9956C108.613 52.0052 108.62 52.0164 108.624 52.0285C108.628 52.0407 108.629 52.0535 108.628 52.0662C108.627 52.079 108.624 52.0914 108.618 52.1028C108.399 52.4864 108.09 52.8116 107.719 53.0511C107.348 53.2906 106.924 53.4372 106.484 53.4788H106.47Z" fill="#263238"/>
<path d="M108 47.9793C107.954 47.9788 107.91 47.9617 107.875 47.931C107.696 47.7659 107.481 47.646 107.247 47.5813C107.012 47.5166 106.766 47.5091 106.528 47.5593C106.503 47.5666 106.477 47.5689 106.452 47.5661C106.426 47.5632 106.401 47.5552 106.379 47.5426C106.356 47.53 106.336 47.5131 106.321 47.4927C106.305 47.4723 106.293 47.449 106.286 47.4241C106.279 47.3997 106.277 47.3741 106.28 47.3488C106.283 47.3235 106.291 47.299 106.303 47.2769C106.316 47.2548 106.333 47.2355 106.353 47.2201C106.374 47.2047 106.397 47.1937 106.422 47.1876C106.721 47.1218 107.032 47.1282 107.328 47.2063C107.624 47.2844 107.898 47.4318 108.126 47.6365C108.144 47.6545 108.159 47.6759 108.168 47.6996C108.178 47.7232 108.183 47.7485 108.183 47.7741C108.183 47.7997 108.178 47.8251 108.168 47.8487C108.159 47.8723 108.144 47.8938 108.126 47.9117C108.094 47.9491 108.049 47.9732 108 47.9793Z" fill="#263238"/>
<path d="M101.941 48.0905C101.913 48.0973 101.883 48.0973 101.854 48.0905C101.81 48.0659 101.776 48.0251 101.761 47.9766C101.746 47.928 101.75 47.8755 101.772 47.8298C101.904 47.5537 102.1 47.313 102.344 47.1275C102.587 46.942 102.871 46.817 103.172 46.7628C103.223 46.7574 103.274 46.7721 103.313 46.8037C103.353 46.8353 103.379 46.8814 103.385 46.9318C103.388 46.9572 103.386 46.983 103.38 47.0077C103.373 47.0325 103.362 47.0556 103.346 47.0758C103.33 47.096 103.31 47.1129 103.288 47.1255C103.266 47.1381 103.241 47.1461 103.216 47.1491C102.978 47.1935 102.753 47.2942 102.562 47.4428C102.37 47.5915 102.217 47.7837 102.115 48.0036C102.096 48.0322 102.07 48.0552 102.04 48.0705C102.009 48.0858 101.975 48.0927 101.941 48.0905Z" fill="#263238"/>
<path d="M126.008 62.1307L126.192 62.3624L126.419 62.6376C126.573 62.8211 126.733 63.0094 126.902 63.1928C127.235 63.5646 127.582 63.9315 127.954 64.2791C128.682 64.9929 129.451 65.6635 130.257 66.2875C131.075 66.9075 131.925 67.486 132.801 68.0207C133.241 68.2863 133.69 68.5373 134.143 68.7836L134.834 69.136L135.167 69.305C135.249 69.3436 135.331 69.3822 135.408 69.4112C135.655 69.5139 135.919 69.568 136.186 69.5705C136.431 69.5564 136.666 69.469 136.862 69.3195C137.509 68.7832 138.02 68.1016 138.353 67.3304C138.802 66.4004 139.162 65.4306 139.43 64.4336C139.728 63.4169 139.975 62.3856 140.169 61.3438L142.23 61.4741C142.295 63.8508 141.955 66.2212 141.226 68.4842C141.019 69.1012 140.753 69.6963 140.429 70.2609C140.071 70.9044 139.607 71.4837 139.058 71.9748C138.404 72.5554 137.605 72.9476 136.746 73.1094C135.91 73.2551 135.052 73.1954 134.245 72.9356C134.057 72.8825 133.883 72.8149 133.704 72.7473L133.284 72.5735L132.463 72.2307C131.918 71.9845 131.382 71.7479 130.856 71.4486C129.799 70.8912 128.782 70.2638 127.809 69.5705C126.835 68.8684 125.908 68.104 125.033 67.2821C124.599 66.8669 124.179 66.4275 123.768 65.9737C123.565 65.742 123.363 65.4909 123.17 65.2688L122.875 64.8874C122.774 64.7523 122.696 64.646 122.561 64.4529L126.008 62.1307Z" fill="#B97964"/>
<path d="M129.432 64.6745L126.409 69.7486L124.937 68.3582L127.727 63.2744L129.432 64.6745Z" fill="#263238"/>
<path d="M122.822 58.3595C124.56 58.3305 128.78 63.3129 128.78 63.3129L125.11 69.7003C125.11 69.7003 120.437 65.582 120.442 63.3274C120.447 60.9762 120.843 58.4174 122.822 58.3595Z" fill="#508CAE"/>
<path opacity="0.3" d="M122.822 58.3595C124.56 58.3305 128.78 63.3129 128.78 63.3129L125.11 69.7003C125.11 69.7003 120.437 65.582 120.442 63.3274C120.447 60.9762 120.843 58.4174 122.822 58.3595Z" fill="black"/>
<path d="M165.028 154.913C164.893 154.908 164.764 154.859 164.661 154.773C164.612 154.741 164.573 154.696 164.549 154.643C164.524 154.59 164.514 154.532 164.521 154.474C164.564 153.953 165.872 153.267 166.017 153.19C166.033 153.179 166.052 153.174 166.07 153.174C166.089 153.174 166.108 153.179 166.124 153.19C166.138 153.202 166.149 153.218 166.155 153.236C166.161 153.254 166.162 153.273 166.157 153.291C166.008 153.813 165.675 154.711 165.192 154.87C165.14 154.894 165.084 154.909 165.028 154.913ZM165.901 153.465C165.39 153.755 164.738 154.208 164.714 154.479C164.71 154.505 164.714 154.531 164.727 154.555C164.739 154.578 164.758 154.597 164.781 154.609C164.826 154.653 164.883 154.684 164.944 154.698C165.005 154.713 165.069 154.71 165.129 154.691C165.394 154.614 165.675 154.16 165.901 153.475V153.465Z" fill="#508CAE"/>
<path d="M164.849 153.648C164.637 153.666 164.425 153.613 164.246 153.498C164.187 153.448 164.148 153.379 164.134 153.304C164.12 153.229 164.132 153.151 164.168 153.083C164.194 153.013 164.236 152.95 164.291 152.899C164.345 152.848 164.411 152.81 164.482 152.788C165.042 152.6 166.066 153.165 166.109 153.189C166.125 153.198 166.138 153.21 166.147 153.225C166.157 153.241 166.162 153.258 166.162 153.276C166.162 153.293 166.157 153.309 166.148 153.323C166.14 153.337 166.128 153.349 166.114 153.358C165.72 153.549 165.287 153.648 164.849 153.648ZM164.748 152.943C164.679 152.942 164.611 152.952 164.545 152.972C164.5 152.986 164.459 153.009 164.425 153.041C164.391 153.073 164.364 153.112 164.347 153.155C164.299 153.271 164.347 153.319 164.347 153.353C164.564 153.537 165.366 153.459 165.824 153.271C165.49 153.094 165.124 152.982 164.748 152.943Z" fill="#508CAE"/>
<path d="M120.147 170.136C119.81 170.164 119.472 170.085 119.182 169.909C119.106 169.853 119.044 169.78 119.001 169.697C118.959 169.613 118.936 169.52 118.936 169.426C118.93 169.375 118.938 169.323 118.959 169.277C118.981 169.23 119.014 169.19 119.056 169.16C119.496 168.861 121.147 169.614 121.47 169.764C121.489 169.773 121.504 169.788 121.513 169.806C121.523 169.824 121.526 169.845 121.523 169.865C121.522 169.885 121.514 169.904 121.501 169.918C121.488 169.933 121.47 169.943 121.451 169.947C121.024 170.054 120.587 170.117 120.147 170.136ZM119.375 169.3C119.31 169.295 119.244 169.308 119.187 169.339C119.172 169.349 119.161 169.363 119.154 169.379C119.147 169.396 119.145 169.413 119.148 169.431C119.15 169.494 119.166 169.556 119.195 169.612C119.224 169.668 119.266 169.717 119.317 169.754C119.698 170.044 120.606 169.933 121.137 169.836C120.58 169.57 119.986 169.389 119.375 169.3Z" fill="#508CAE"/>
<path d="M121.451 169.966H121.412C120.867 169.744 119.766 168.861 119.829 168.402C119.829 168.301 119.906 168.175 120.157 168.146C121.123 168.021 121.528 169.783 121.543 169.855C121.547 169.872 121.546 169.89 121.541 169.907C121.536 169.924 121.527 169.94 121.514 169.952C121.495 169.963 121.473 169.968 121.451 169.966ZM120.244 168.33H120.181C120.08 168.33 120.022 168.373 120.017 168.421C119.983 168.682 120.741 169.387 121.301 169.686C121.181 169.271 120.823 168.33 120.244 168.33Z" fill="#508CAE"/>
<path d="M107.18 48.5981L106.369 48.4678C106.369 48.4678 106.847 49.0326 107.18 48.5981Z" fill="#263238"/>
<path d="M76.9762 14.8604C76.1217 15.9321 71.4145 17.1922 67.6729 16.8446C66.3838 25.3031 70.8882 35.041 70.8882 35.041C70.8882 35.041 80.6648 33.8775 80.9062 29.851C81.1476 25.8245 76.9762 14.8604 76.9762 14.8604Z" fill="#508CAE"/>
<path opacity="0.4" d="M76.9762 14.8604C76.1217 15.9321 71.4145 17.1922 67.6729 16.8446C66.3838 25.3031 70.8882 35.041 70.8882 35.041C70.8882 35.041 80.6648 33.8775 80.9062 29.851C81.1476 25.8245 76.9762 14.8604 76.9762 14.8604Z" fill="#FAFAFA"/>
<path d="M150.983 8.4248C151.857 9.65592 156.294 10.8774 159.727 10.2401C161.566 20.2532 158.158 32.1491 158.158 32.1491C158.158 32.1491 149.047 31.3381 148.502 26.5536C147.956 21.7691 150.983 8.4248 150.983 8.4248Z" fill="#508CAE"/>
<path opacity="0.4" d="M150.983 8.4248C151.857 9.65592 156.294 10.8774 159.727 10.2401C161.566 20.2532 158.158 32.1491 158.158 32.1491C158.158 32.1491 149.047 31.3381 148.502 26.5536C147.956 21.7691 150.983 8.4248 150.983 8.4248Z" fill="#FAFAFA"/>
<path d="M86.9025 95.1441C86.833 95.1543 86.7622 95.1506 86.6941 95.1333C86.6261 95.1159 86.5622 95.0853 86.506 95.0431C86.4499 95.0009 86.4027 94.948 86.3672 94.8874C86.3316 94.8268 86.3085 94.7598 86.299 94.6902L74.8327 13.3545C74.8233 13.2826 74.8284 13.2096 74.8478 13.1398C74.8671 13.07 74.9003 13.0048 74.9453 12.9481C74.9903 12.8913 75.0463 12.8442 75.1099 12.8095C75.1735 12.7748 75.2434 12.7533 75.3155 12.7461C75.3852 12.7366 75.4562 12.7409 75.5242 12.7588C75.5923 12.7767 75.6562 12.8079 75.7123 12.8504C75.7683 12.893 75.8154 12.9463 75.8509 13.0071C75.8863 13.0678 75.9095 13.135 75.919 13.2048L87.3853 94.5357C87.3947 94.6076 87.3896 94.6805 87.3702 94.7504C87.3509 94.8202 87.3177 94.8854 87.2727 94.9421C87.2276 94.9988 87.1717 95.046 87.1081 95.0807C87.0445 95.1153 86.9746 95.1369 86.9025 95.1441Z" fill="#508CAE"/>
<path opacity="0.2" d="M86.9025 95.1441C86.833 95.1543 86.7622 95.1506 86.6941 95.1333C86.6261 95.1159 86.5622 95.0853 86.506 95.0431C86.4499 95.0009 86.4027 94.948 86.3672 94.8874C86.3316 94.8268 86.3085 94.7598 86.299 94.6902L74.8327 13.3545C74.8233 13.2826 74.8284 13.2096 74.8478 13.1398C74.8671 13.07 74.9003 13.0048 74.9453 12.9481C74.9903 12.8913 75.0463 12.8442 75.1099 12.8095C75.1735 12.7748 75.2434 12.7533 75.3155 12.7461C75.3852 12.7366 75.4562 12.7409 75.5242 12.7588C75.5923 12.7767 75.6562 12.8079 75.7123 12.8504C75.7683 12.893 75.8154 12.9463 75.8509 13.0071C75.8863 13.0678 75.9095 13.135 75.919 13.2048L87.3853 94.5357C87.3947 94.6076 87.3896 94.6805 87.3702 94.7504C87.3509 94.8202 87.3177 94.8854 87.2727 94.9421C87.2276 94.9988 87.1717 95.046 87.1081 95.0807C87.0445 95.1153 86.9746 95.1369 86.9025 95.1441Z" fill="black"/>
<path d="M141.54 89.0995C141.612 89.1089 141.685 89.1038 141.755 89.0844C141.824 89.0651 141.89 89.0319 141.946 88.9869C142.003 88.9419 142.05 88.8859 142.085 88.8223C142.12 88.7587 142.141 88.6888 142.148 88.6167L153.639 7.28575C153.649 7.21599 153.645 7.1449 153.628 7.07655C153.611 7.00819 153.58 6.94392 153.538 6.88741C153.496 6.8309 153.443 6.78326 153.382 6.74723C153.322 6.7112 153.255 6.68748 153.185 6.67743C153.113 6.66802 153.04 6.67314 152.97 6.69249C152.9 6.71183 152.835 6.745 152.778 6.79003C152.722 6.83507 152.675 6.89104 152.64 6.95463C152.605 7.01822 152.584 7.08814 152.577 7.16022L141.086 88.4912C141.067 88.6318 141.103 88.7745 141.188 88.8883C141.273 89.0022 141.4 89.078 141.54 89.0995Z" fill="#508CAE"/>
<path opacity="0.2" d="M141.54 89.0995C141.612 89.1089 141.685 89.1038 141.755 89.0844C141.824 89.0651 141.89 89.0319 141.946 88.9869C142.003 88.9419 142.05 88.8859 142.085 88.8223C142.12 88.7587 142.141 88.6888 142.148 88.6167L153.639 7.28575C153.649 7.21599 153.645 7.1449 153.628 7.07655C153.611 7.00819 153.58 6.94392 153.538 6.88741C153.496 6.8309 153.443 6.78326 153.382 6.74723C153.322 6.7112 153.255 6.68748 153.185 6.67743C153.113 6.66802 153.04 6.67314 152.97 6.69249C152.9 6.71183 152.835 6.745 152.778 6.79003C152.722 6.83507 152.675 6.89104 152.64 6.95463C152.605 7.01822 152.584 7.08814 152.577 7.16022L141.086 88.4912C141.067 88.6318 141.103 88.7745 141.188 88.8883C141.273 89.0022 141.4 89.078 141.54 89.0995Z" fill="black"/>
<path d="M74.374 15.0728L76.5466 31.0435C76.5599 31.1444 76.5948 31.2413 76.6491 31.3274C76.7034 31.4135 76.7757 31.4868 76.861 31.5424C76.9464 31.5979 77.0427 31.6342 77.1434 31.649C77.2442 31.6637 77.3469 31.6564 77.4446 31.6277C82.3014 30.2372 109.309 23.3043 150.795 27.7171C150.971 27.7374 151.149 27.6905 151.292 27.5858C151.435 27.4811 151.533 27.3263 151.567 27.1522C152.35 23.1064 153.697 11.5822 154.039 8.63233C154.06 8.44637 154.007 8.25977 153.891 8.11263C153.776 7.96549 153.607 7.86953 153.421 7.84538C147.85 7.1405 109.821 2.92574 74.8616 14.3003C74.7035 14.3527 74.5684 14.4583 74.4795 14.5992C74.3905 14.7401 74.3533 14.9075 74.374 15.0728Z" fill="#508CAE"/>
<path opacity="0.6" d="M74.374 15.0728L76.5466 31.0435C76.5599 31.1444 76.5948 31.2413 76.6491 31.3274C76.7034 31.4135 76.7757 31.4868 76.861 31.5424C76.9464 31.5979 77.0427 31.6342 77.1434 31.649C77.2442 31.6637 77.3469 31.6564 77.4446 31.6277C82.3014 30.2372 109.309 23.3043 150.795 27.7171C150.971 27.7374 151.149 27.6905 151.292 27.5858C151.435 27.4811 151.533 27.3263 151.567 27.1522C152.35 23.1064 153.697 11.5822 154.039 8.63233C154.06 8.44637 154.007 8.25977 153.891 8.11263C153.776 7.96549 153.607 7.86953 153.421 7.84538C147.85 7.1405 109.821 2.92574 74.8616 14.3003C74.7035 14.3527 74.5684 14.4583 74.4795 14.5992C74.3905 14.7401 74.3533 14.9075 74.374 15.0728Z" fill="#FAFAFA"/>
<path d="M81.3406 17.8629L83.629 17.3801L85.2464 21.5852L85.6567 16.9697L87.9403 16.4869L89.9439 20.6099L89.9729 16.0765L92.2517 15.5938L91.9523 23.7529L89.5915 24.2357L87.3272 19.5913L86.8444 24.7861L84.4835 25.2689L81.3406 17.8629Z" fill="#FAFAFA"/>
<path d="M93.3718 15.5076L99.8847 14.542L100.097 16.2221L96.0224 16.8208L96.1817 18.076L99.9619 17.5208L100.165 19.1285L96.3844 19.6837L96.5582 21.2431L100.754 20.63L100.981 22.4163L94.3471 23.3819L93.3718 15.5076Z" fill="#FAFAFA"/>
<path d="M101.541 14.3534L103.983 14.0879L104.505 20.06L108.314 19.6496L108.488 21.5808L102.212 22.2567L101.541 14.3534Z" fill="#FAFAFA"/>
<path d="M114.451 17.8919L116.628 18.3747C116.538 18.9324 116.332 19.4652 116.024 19.9389C115.742 20.3654 115.357 20.714 114.904 20.9528C114.362 21.214 113.772 21.3619 113.171 21.3873C112.453 21.4638 111.728 21.3864 111.042 21.1604C110.449 20.9038 109.945 20.4771 109.594 19.9341C109.132 19.2239 108.882 18.3964 108.874 17.5491C108.748 16.4375 109.067 15.3211 109.763 14.4447C110.135 14.0492 110.584 13.7329 111.082 13.5147C111.579 13.2965 112.116 13.181 112.659 13.175C113.479 13.0679 114.311 13.2198 115.04 13.6095C115.679 14.0349 116.161 14.6593 116.411 15.3862L114.272 16.0235C114.213 15.8376 114.123 15.6629 114.006 15.5069C113.858 15.3315 113.669 15.1955 113.456 15.111C113.109 14.9693 112.723 14.9576 112.368 15.0783C112.013 15.1989 111.714 15.4437 111.525 15.7676C111.29 16.2637 111.202 16.8162 111.269 17.3608C111.311 18.2395 111.472 18.8333 111.752 19.1423C111.897 19.2963 112.077 19.4137 112.277 19.485C112.477 19.5564 112.691 19.5795 112.901 19.5527C113.099 19.5502 113.294 19.506 113.474 19.4228C113.654 19.3396 113.814 19.2193 113.944 19.0699C114.211 18.727 114.385 18.3214 114.451 17.8919Z" fill="#FAFAFA"/>
<path d="M117.521 16.9697C117.483 16.4144 117.556 15.8571 117.735 15.33C117.914 14.803 118.196 14.3166 118.564 13.8992C118.959 13.5106 119.427 13.2052 119.942 13.0012C120.457 12.7972 121.008 12.6987 121.562 12.7115C122.112 12.6568 122.667 12.7141 123.194 12.8801C123.721 13.046 124.208 13.3172 124.628 13.6771C125.004 14.068 125.296 14.5318 125.486 15.04C125.676 15.5482 125.76 16.0899 125.733 16.6318C125.775 17.4247 125.626 18.2161 125.299 18.9395C125.003 19.542 124.538 20.0454 123.961 20.3879C123.29 20.7628 122.534 20.9589 121.765 20.9576C121.005 21.011 120.244 20.8887 119.539 20.6003C118.933 20.3217 118.427 19.8632 118.091 19.2871C117.695 18.5804 117.498 17.7795 117.521 16.9697ZM119.969 16.9021C119.926 17.5136 120.097 18.121 120.451 18.6209C120.602 18.7912 120.791 18.9237 121.002 19.0076C121.214 19.0914 121.442 19.1244 121.668 19.1037C121.9 19.1089 122.129 19.0616 122.34 18.9655C122.551 18.8693 122.737 18.7268 122.885 18.5485C123.222 17.987 123.366 17.3309 123.295 16.6801C123.336 16.0972 123.165 15.5191 122.812 15.0531C122.658 14.8834 122.467 14.7515 122.253 14.6678C122.04 14.5841 121.81 14.5507 121.581 14.5703C121.354 14.5696 121.13 14.62 120.925 14.7178C120.721 14.8156 120.54 14.9582 120.398 15.1351C120.059 15.6565 119.907 16.2781 119.969 16.8973V16.9021Z" fill="#FAFAFA"/>
<path d="M127.22 12.6924H130.44L131.551 17.5541L132.917 12.7262L136.137 12.7551L135.92 20.7212H133.912L134.076 14.6429L132.367 20.7067H130.551L129.175 14.6139L129.011 20.6922H127.003L127.22 12.6924Z" fill="#FAFAFA"/>
<path d="M137.904 12.832L144.456 13.1265L144.355 14.826L140.251 14.6425L140.169 15.9315L143.973 16.1005L143.872 17.6986L140.067 17.5296L139.971 19.1035L144.19 19.2869L144.075 21.0926L137.402 20.7933L137.904 12.832Z" fill="#FAFAFA"/>
</svg>
