<svg width="15" height="9" viewBox="0 0 15 9" fill="none" xmlns="http://www.w3.org/2000/svg">
<g clip-path="url(#clip0_3693_251)">
<path d="M0.803566 5.30357L11.4107 5.30357L9.08035 7.63393C8.75892 7.95536 8.75892 8.4375 9.08035 8.75893C9.40178 9.08036 9.88392 9.08036 10.2054 8.75893L13.9018 5.0625C14.2232 4.74107 14.2232 4.25893 13.9018 3.9375L10.2054 0.241071C9.88392 -0.0803579 9.40178 -0.080358 9.08035 0.241071C8.75892 0.5625 8.75892 1.04464 9.08035 1.36607L11.4107 3.69643L0.803566 3.69643C0.401781 3.69643 -5.28649e-06 4.01786 -5.32864e-06 4.5C-5.37079e-06 4.98214 0.40178 5.30357 0.803566 5.30357Z" fill="#508CAE"/>
</g>
<defs>
<clipPath id="clip0_3693_251">
<rect width="14.1429" height="9" fill="white" transform="translate(14.1429 9) rotate(-180)"/>
</clipPath>
</defs>
</svg>
