<svg width="72" height="72" viewBox="0 0 72 72" fill="none" xmlns="http://www.w3.org/2000/svg">
<path d="M54 47.25H58.5V58.5H54V47.25ZM45 36H49.5V58.5H45V36ZM24.75 58.5C21.7674 58.4964 18.908 57.31 16.799 55.201C14.69 53.092 13.5036 50.2326 13.5 47.25H18C18 48.585 18.3959 49.8901 19.1376 51.0001C19.8793 52.1101 20.9335 52.9753 22.1669 53.4862C23.4003 53.9971 24.7575 54.1308 26.0669 53.8703C27.3762 53.6099 28.579 52.967 29.523 52.023C30.467 51.079 31.1099 49.8762 31.3703 48.5669C31.6308 47.2575 31.4971 45.9003 30.9862 44.6669C30.4753 43.4335 29.6101 42.3793 28.5001 41.6376C27.3901 40.8959 26.085 40.5 24.75 40.5V36C27.7337 36 30.5952 37.1853 32.705 39.295C34.8147 41.4048 36 44.2663 36 47.25C36 50.2337 34.8147 53.0952 32.705 55.205C30.5952 57.3147 27.7337 58.5 24.75 58.5Z" fill="#508CAE"/>
<path d="M63 4.5H9C7.80653 4.5 6.66193 4.97411 5.81802 5.81802C4.97411 6.66193 4.5 7.80653 4.5 9V63C4.5 64.1935 4.97411 65.3381 5.81802 66.182C6.66193 67.0259 7.80653 67.5 9 67.5H63C64.1929 67.4982 65.3365 67.0235 66.18 66.18C67.0235 65.3365 67.4982 64.1929 67.5 63V9C67.5 7.80653 67.0259 6.66193 66.182 5.81802C65.3381 4.97411 64.1935 4.5 63 4.5ZM63 24.75H31.5V9H63V24.75ZM27 9V24.75H9V9H27ZM9 63V29.25H63L63.0045 63H9Z" fill="#508CAE"/>
</svg>
