<svg width="129" height="25" viewBox="0 0 129 25" fill="none" xmlns="http://www.w3.org/2000/svg">
<path d="M125.899 7.25135L122.734 15.209H122.639L119.338 7.25135H116.353L121.3 18.3754L118.473 24.5626H121.374L129 7.25135H125.899ZM103.538 0.647772H100.774V19.0004H103.538V0.647772ZM93.1374 0.647772H86.4924V19.0004H89.2769V12.0531H93.1478C93.9283 12.0795 94.7063 11.9525 95.4366 11.6795C96.167 11.4066 96.8351 10.993 97.4023 10.463C97.9695 9.93291 98.4244 9.29686 98.7407 8.59177C99.0569 7.88667 99.2281 7.12656 99.2445 6.35557C99.2282 5.58321 99.0567 4.82174 98.74 4.11537C98.4232 3.40899 97.9676 2.77178 97.3994 2.24073C96.8312 1.70968 96.1619 1.29538 95.4303 1.02186C94.6986 0.748351 93.9193 0.621411 93.1374 0.647772ZM93.211 9.49029H89.2769V3.241H93.2217C94.0609 3.241 94.8658 3.57022 95.4592 4.15623C96.0527 4.74225 96.3861 5.53706 96.3861 6.36581C96.3861 7.19456 96.0527 7.98937 95.4592 8.57539C94.8658 9.1614 94.0609 9.49062 93.2217 9.49062L93.211 9.49029ZM110.352 6.85513C109.339 6.79773 108.332 7.03321 107.453 7.53272C106.575 8.03222 105.862 8.77405 105.404 9.66727L107.873 10.709C108.117 10.2673 108.487 9.90587 108.937 9.66901C109.387 9.43215 109.897 9.33021 110.404 9.37572C110.753 9.34129 111.105 9.37521 111.44 9.47555C111.775 9.57588 112.087 9.74064 112.358 9.96036C112.628 10.1801 112.852 10.4504 113.016 10.7559C113.181 11.0613 113.282 11.3958 113.315 11.7401V11.9277C112.431 11.4553 111.441 11.2082 110.436 11.2089C107.788 11.2089 105.088 12.6465 105.088 15.3754C105.088 17.8336 107.25 19.4168 109.698 19.4168C110.394 19.4604 111.089 19.3169 111.709 19.0014C112.33 18.6859 112.852 18.2104 113.22 17.6252H113.326V19.0417H116.026V11.9802C116.026 8.71999 113.558 6.90763 110.372 6.90763L110.352 6.85513ZM110.025 16.917C109.117 16.917 107.852 16.4587 107.852 15.3546C107.852 13.9381 109.423 13.3966 110.795 13.3966C111.679 13.3729 112.553 13.5852 113.326 14.0108C113.224 14.8073 112.833 15.5405 112.227 16.0747C111.62 16.609 110.837 16.9082 110.025 16.917ZM10.01 19.396C4.54794 19.4138 0.0865987 15.0918 0 9.69864C0.0869331 4.30549 4.54794 -0.0165478 10.01 0.00128188C11.2607 -0.0192465 12.5029 0.206968 13.6639 0.666666C14.8248 1.12636 15.8812 1.8103 16.7711 2.67837L14.8619 4.54289C13.567 3.2899 11.8229 2.59343 10.01 2.6054C6.06626 2.6054 2.86913 5.76257 2.86913 9.65703C2.86913 13.5515 6.06626 16.7087 10.01 16.7087C10.9317 16.746 11.851 16.5919 12.7086 16.2563C13.5662 15.9208 14.343 15.4112 14.9886 14.7606C15.847 13.8467 16.3642 12.6711 16.4548 11.4278H10.01V8.85536H19.0811C19.1801 9.4018 19.2259 9.95617 19.2182 10.5115C19.3094 12.8173 18.4711 15.0647 16.8871 16.7612C15.9928 17.6531 14.9181 18.3488 13.7331 18.8028C12.5481 19.2568 11.2795 19.459 10.01 19.396ZM33.2469 13.1464C33.2818 13.9797 33.1457 14.8114 32.8468 15.5915C32.548 16.3715 32.0925 17.0839 31.5077 17.6857C30.923 18.2875 30.221 18.7664 29.4441 19.0935C28.6672 19.4206 27.8313 19.5892 26.9867 19.5892C26.1421 19.5892 25.3062 19.4206 24.5293 19.0935C23.7524 18.7664 23.0505 18.2875 22.4657 17.6857C21.881 17.0839 21.4255 16.3715 21.1266 15.5915C20.8277 14.8114 20.6916 13.9797 20.7265 13.1464C20.6916 12.313 20.8277 11.4813 21.1266 10.7013C21.4255 9.9212 21.881 9.20886 22.4657 8.60704C23.0505 8.00523 23.7524 7.52637 24.5293 7.19926C25.3062 6.87214 26.1421 6.70352 26.9867 6.70352C27.8313 6.70352 28.6672 6.87214 29.4441 7.19926C30.221 7.52637 30.923 8.00523 31.5077 8.60704C32.0925 9.20886 32.548 9.9212 32.8468 10.7013C33.1457 11.4813 33.2818 12.313 33.2469 13.1464ZM30.5045 13.1464C30.5508 12.6626 30.4944 12.1746 30.3387 11.7136C30.183 11.2526 29.9315 10.8288 29.6003 10.4694C29.2691 10.11 28.8656 9.82281 28.4155 9.62631C27.9655 9.42981 27.4788 9.32831 26.9867 9.32831C26.4946 9.32831 26.0079 9.42981 25.5579 9.62631C25.1078 9.82281 24.7043 10.11 24.3731 10.4694C24.0419 10.8288 23.7904 11.2526 23.6347 11.7136C23.479 12.1746 23.4226 12.6626 23.4689 13.1464C23.4226 13.6301 23.479 14.1182 23.6347 14.5791C23.7904 15.0401 24.0419 15.4639 24.3731 15.8233C24.7043 16.1828 25.1078 16.4699 25.5579 16.6664C26.0079 16.8629 26.4946 16.9644 26.9867 16.9644C27.4788 16.9644 27.9655 16.8629 28.4155 16.6664C28.8656 16.4699 29.2691 16.1828 29.6003 15.8233C29.9315 15.4639 30.183 15.0401 30.3387 14.5791C30.4944 14.1182 30.5508 13.6301 30.5045 13.1464ZM47.2755 13.1464C47.2755 16.5578 44.475 19.323 41.0207 19.323C37.5661 19.323 34.7655 16.5578 34.7655 13.1464C34.7655 9.73496 37.5661 6.96971 41.0207 6.96971C44.475 6.96971 47.2755 9.73496 47.2755 13.1464ZM44.5438 13.1464C44.5902 12.6626 44.5337 12.1746 44.378 11.7136C44.2223 11.2526 43.9708 10.8288 43.6397 10.4694C43.3085 10.11 42.905 9.82281 42.4549 9.62631C42.0048 9.42981 41.5182 9.32831 41.0261 9.32831C40.534 9.32831 40.0473 9.42981 39.5972 9.62631C39.1472 9.82281 38.7436 10.11 38.4125 10.4694C38.0813 10.8288 37.8298 11.2526 37.6741 11.7136C37.5184 12.1746 37.4619 12.6626 37.5083 13.1464C37.4617 13.6303 37.5179 14.1185 37.6735 14.5796C37.8291 15.0408 38.0805 15.4648 38.4117 15.8244C38.7429 16.184 39.1465 16.4714 39.5967 16.668C40.0468 16.8646 40.5337 16.9662 41.0259 16.9662C41.5181 16.9662 42.0049 16.8646 42.4551 16.668C42.9053 16.4714 43.3089 16.184 43.6401 15.8244C43.9713 15.4648 44.2227 15.0408 44.3783 14.5796C44.5338 14.1185 44.5905 13.6303 44.5438 13.1464ZM60.9662 7.28239V18.5002C60.9662 23.1039 58.192 24.9998 54.9223 24.9998C53.7237 25.0097 52.5491 24.6688 51.5466 24.02C50.5441 23.3711 49.7587 22.4435 49.2897 21.3543L51.6841 20.3126C51.9324 20.9485 52.365 21.4981 52.9277 21.8927C53.4905 22.2873 54.1586 22.5095 54.8484 22.5314C56.9582 22.5314 58.2448 21.2503 58.2448 18.8647V17.969H58.1395C57.7258 18.4249 57.218 18.7881 56.6504 19.0342C56.0827 19.2804 55.4683 19.4037 54.8484 19.396C51.353 19.396 48.5197 16.5981 48.5197 13.1464C48.5197 9.69467 51.353 6.89674 54.8484 6.89674C55.4724 6.88314 56.0922 7.00052 56.6668 7.24112C57.2414 7.48171 57.7577 7.84004 58.1816 8.2924H58.287V7.25102H60.9662V7.28239ZM58.5086 13.1777C58.5474 12.7063 58.4898 12.232 58.3394 11.783C58.1889 11.3339 57.9487 10.9193 57.6329 10.5638C57.317 10.2082 56.9321 9.91888 56.5009 9.71304C56.0697 9.5072 55.601 9.38901 55.1226 9.36549C54.6349 9.38142 54.1553 9.49322 53.7119 9.69435C53.2684 9.89548 52.8701 10.1819 52.5401 10.5369C52.2101 10.8918 51.955 11.3082 51.7899 11.7617C51.6248 12.2151 51.5529 12.6965 51.5784 13.1777C51.5558 13.6557 51.6301 14.1333 51.7969 14.5825C51.9637 15.0317 52.2197 15.4435 52.5498 15.7937C52.8799 16.144 53.2776 16.4256 53.7193 16.622C54.1611 16.8185 54.6382 16.9258 55.1226 16.9378C55.5981 16.9196 56.065 16.8068 56.4952 16.6061C56.9255 16.4054 57.3103 16.121 57.6265 15.7698C57.9427 15.4187 58.1838 15.0081 58.3354 14.5627C58.487 14.1173 58.5459 13.6462 58.5086 13.1777ZM65.8498 0.667913V19.0107H63.0653V0.668243L65.8498 0.667913ZM76.8194 15.209L78.9924 16.6255C78.4123 17.4803 77.6273 18.1804 76.7073 18.6637C75.7873 19.1469 74.7607 19.3984 73.7186 19.3957C72.8896 19.4074 72.0669 19.2528 71.3001 18.9414C70.5334 18.6301 69.8386 18.1683 69.2578 17.5841C68.677 16.9999 68.2223 16.3053 67.9212 15.5426C67.62 14.7798 67.4787 13.9646 67.5059 13.1464C67.2501 10.2342 69.2479 7.59606 72.1494 7.01494C75.0503 6.43383 77.9312 8.09496 78.8446 10.8757L79.1295 11.5945L70.6913 15.0419C70.9542 15.6255 71.3881 16.118 71.937 16.4559C72.4859 16.7938 73.1247 16.9617 73.7711 16.9378C74.3859 16.9283 74.9883 16.7646 75.5215 16.4621C76.0547 16.1597 76.5013 15.7287 76.8194 15.209ZM70.164 12.9585L75.8388 10.6462C75.6191 10.2217 75.2782 9.87005 74.8582 9.63489C74.4382 9.39973 73.9576 9.29137 73.4758 9.32322C73.0153 9.34314 72.5634 9.45348 72.1465 9.64778C71.7296 9.84208 71.3561 10.1165 71.0478 10.4549C70.7395 10.7933 70.5025 11.189 70.3508 11.6189C70.199 12.0487 70.1356 12.5041 70.164 12.9585Z" fill="black"/>
</svg>
