<svg width="20" height="20" viewBox="0 0 20 20" fill="none" xmlns="http://www.w3.org/2000/svg">
<path d="M12.1833 6.95817C11.8333 7.1915 10.725 7.82484 10.5583 7.94984C10.2333 8.20817 9.93332 8.1915 9.60832 7.9415C9.44166 7.80817 8.33332 7.17484 7.98332 6.94984C7.58332 6.6915 7.60832 6.3665 8.04999 6.18317C9.41666 5.60817 10.7833 5.64984 12.1417 6.20817C12.55 6.38317 12.5667 6.70817 12.1833 6.95817ZM18.2 13.0248C17.425 11.2832 16.3667 9.69984 15 8.30817C14.5774 7.86932 14.2735 7.33019 14.1167 6.7415C14.0333 6.4665 13.975 6.18317 13.9167 5.89984C13.75 5.1665 13.675 4.4165 13.3333 3.72484C12.725 2.40817 11.6667 1.72484 10.1333 1.6665C8.62499 1.70817 7.49999 2.3415 6.84166 3.6665C6.66666 4.02484 6.54166 4.39984 6.45832 4.78317C6.31666 5.4165 6.19166 6.07484 6.04166 6.7165C5.91666 7.25817 5.66666 7.72484 5.24166 8.1415C3.89999 9.44984 2.82499 10.9498 2.00832 12.5998C1.89166 12.8415 1.77499 13.0832 1.69999 13.3332C1.54166 13.8832 1.94166 14.2665 2.52499 14.1332C2.89166 14.0582 3.25832 13.9832 3.60832 13.8748C3.94999 13.7498 4.08332 13.8332 4.16666 14.1665C4.70832 15.9582 5.89166 17.2165 7.69999 17.9165C11.1333 19.2165 15.1417 17.3665 16.0083 14.0998C16.0667 13.8748 16.15 13.7915 16.4 13.8748C16.7833 13.9915 17.175 14.0748 17.5667 14.1665C17.975 14.2415 18.275 14.0332 18.3333 13.6332C18.3583 13.4165 18.2833 13.2248 18.2 13.0248Z" fill="#040505"/>
</svg>
