<svg width="37" height="39" viewBox="0 0 37 39" fill="none" xmlns="http://www.w3.org/2000/svg">
<path fill-rule="evenodd" clip-rule="evenodd" d="M16.3051 6.59141C12.5282 4.55111 8.74858 2.51575 4.96633 0.485329C4.20831 0.0488832 3.31843 -0.0998931 2.45967 0.0662461C1.73571 0.230344 1.09771 0.655679 0.667792 1.26083C0.207584 1.90316 0 2.70021 0 3.57166V34.5564C0 35.3162 0.148834 36.1172 0.564 36.7889C1.0105 37.5115 1.739 38.0344 2.68487 38.1206C2.79571 38.1313 2.9074 38.1293 3.01779 38.1147C3.70321 38.1167 4.35338 37.8973 4.95654 37.5683L5.17196 37.4528L6.37633 36.8007C14.3879 32.4707 22.3942 28.131 30.3953 23.7817L32.0599 22.875C32.7676 22.4908 33.4759 22.1076 34.1847 21.7254L34.3276 21.651L34.3785 21.6236L34.4138 21.604C35.0424 21.275 35.9119 20.57 36.1626 19.5007C36.3116 18.8714 36.2068 18.2086 35.8708 17.656C35.5379 17.0959 35.015 16.6768 34.4197 16.3615L34.404 16.3537C31.8409 14.978 29.2839 13.5908 26.7332 12.1922C26.6532 12.1487 26.5693 12.1126 26.4825 12.0845L23.5 10.4728L16.3051 6.59141ZM20.4783 16.951L9.91113 6.48371L14.9108 9.18033L22.1037 13.0617L23.5783 13.8568L20.4783 16.951ZM2.9375 34.4468V3.70483L18.4005 19.0268L2.9375 34.4468ZM22.5718 19.021L26.3063 15.308C29.8058 17.2173 32.479 18.6685 33.0449 18.9622L33.088 18.9857C33.0764 18.9925 33.0647 18.9991 33.0527 19.0053C32.7492 19.162 31.1453 20.0334 28.8482 21.2828L26.2848 22.6772L22.5718 19.021ZM10.103 31.4485L20.49 21.0948L23.5862 24.144C19.0936 26.5822 14.5993 29.0171 10.103 31.4485Z" fill="black"/>
</svg>
