<svg width="30" height="33" viewBox="0 0 30 33" fill="none" xmlns="http://www.w3.org/2000/svg">
<path d="M14.9397 8.04855C14.6194 8.04855 14.3122 8.18987 14.0857 8.4414C13.8592 8.69294 13.732 9.0341 13.732 9.38982V22.8025C13.732 23.1583 13.8592 23.4994 14.0857 23.751C14.3122 24.0025 14.6194 24.1438 14.9397 24.1438C15.2599 24.1438 15.5671 24.0025 15.7936 23.751C16.0201 23.4994 16.1473 23.1583 16.1473 22.8025V9.38982C16.1473 9.0341 16.0201 8.69294 15.7936 8.4414C15.5671 8.18987 15.2599 8.04855 14.9397 8.04855ZM8.90136 16.0962C8.58107 16.0962 8.2739 16.2375 8.04742 16.489C7.82094 16.7406 7.6937 17.0817 7.6937 17.4374V22.8025C7.6937 23.1583 7.82094 23.4994 8.04742 23.751C8.2739 24.0025 8.58107 24.1438 8.90136 24.1438C9.22165 24.1438 9.52882 24.0025 9.7553 23.751C9.98178 23.4994 10.109 23.1583 10.109 22.8025V17.4374C10.109 17.0817 9.98178 16.7406 9.7553 16.489C9.52882 16.2375 9.22165 16.0962 8.90136 16.0962ZM20.9779 13.4136C20.6577 13.4136 20.3505 13.5549 20.124 13.8065C19.8975 14.058 19.7703 14.3992 19.7703 14.7549V22.8025C19.7703 23.1583 19.8975 23.4994 20.124 23.751C20.3505 24.0025 20.6577 24.1438 20.9779 24.1438C21.2982 24.1438 21.6054 24.0025 21.8319 23.751C22.0584 23.4994 22.1856 23.1583 22.1856 22.8025V14.7549C22.1856 14.3992 22.0584 14.058 21.8319 13.8065C21.6054 13.5549 21.2982 13.4136 20.9779 13.4136ZM23.3933 2.68347H6.48604C5.52517 2.68347 4.60365 3.10741 3.92421 3.86202C3.24477 4.61663 2.86307 5.6401 2.86307 6.70728V25.4851C2.86307 26.5523 3.24477 27.5757 3.92421 28.3303C4.60365 29.0849 5.52517 29.5089 6.48604 29.5089H23.3933C24.3541 29.5089 25.2757 29.0849 25.9551 28.3303C26.6345 27.5757 27.0162 26.5523 27.0162 25.4851V6.70728C27.0162 5.6401 26.6345 4.61663 25.9551 3.86202C25.2757 3.10741 24.3541 2.68347 23.3933 2.68347ZM24.6009 25.4851C24.6009 25.8408 24.4737 26.182 24.2472 26.4335C24.0207 26.685 23.7135 26.8263 23.3933 26.8263H6.48604C6.16575 26.8263 5.85858 26.685 5.6321 26.4335C5.40562 26.182 5.27838 25.8408 5.27838 25.4851V6.70728C5.27838 6.35156 5.40562 6.0104 5.6321 5.75886C5.85858 5.50733 6.16575 5.36601 6.48604 5.36601H23.3933C23.7135 5.36601 24.0207 5.50733 24.2472 5.75886C24.4737 6.0104 24.6009 6.35156 24.6009 6.70728V25.4851Z" fill="#80A9DA"/>
</svg>
