<svg width="30" height="30" viewBox="0 0 30 30" fill="none" xmlns="http://www.w3.org/2000/svg">
<path d="M15 30C23.2843 30 30 23.2843 30 15C30 6.71571 23.2843 0 15 0C6.71571 0 0 6.71571 0 15C0 23.2843 6.71571 30 15 30Z" fill="#F9C23C"/>
<path opacity="0.53" d="M26.7858 14.9996C26.7858 21.5085 21.509 26.7853 15.0001 26.7853C8.49114 26.7853 3.21436 21.5085 3.21436 14.9996C3.21436 8.49065 8.49114 3.21387 15.0001 3.21387C21.509 3.21387 26.7858 8.49065 26.7858 14.9996ZM21.7715 19.1674C21.7338 19.0522 21.6607 18.9519 21.5625 18.8807C21.4644 18.8095 21.3463 18.7711 21.2251 18.771H21.2572V10.4567C21.7179 10.1567 21.8036 9.41744 21.2465 9.0853L15.4715 5.59244C15.3464 5.51366 15.2015 5.47185 15.0536 5.47185C14.9058 5.47185 14.7609 5.51366 14.6358 5.59244L8.85007 9.0853C8.29293 9.41744 8.37864 10.1567 8.82864 10.4567V18.7817H8.71078C8.45364 18.7817 8.22864 18.9532 8.16436 19.1996L7.78936 20.5389C7.68221 20.9032 7.96078 21.2674 8.33578 21.2674H21.6751C22.0501 21.2567 22.3286 20.8817 22.2108 20.5067L21.7715 19.1674ZM10.6072 10.5853V18.771H12.3858V10.5853H10.6072ZM14.1536 10.5853V18.771H15.9644V10.5853H14.1536ZM17.7429 10.5853V18.771H19.4786V10.5853H17.7429Z" fill="#D3883E"/>
</svg>
