<svg width="29" height="29" viewBox="0 0 29 29" fill="none" xmlns="http://www.w3.org/2000/svg">
<path d="M14.4919 26.5682C21.1616 26.5682 26.5684 21.1613 26.5684 14.4916C26.5684 7.82191 21.1616 2.41504 14.4919 2.41504C7.82215 2.41504 2.41528 7.82191 2.41528 14.4916C2.41528 21.1613 7.82215 26.5682 14.4919 26.5682Z" stroke="#4CAF50" stroke-width="1.5"/>
<path d="M14.4919 7.24609V21.738M18.1148 11.4729C18.1148 9.80633 16.493 8.45375 14.4919 8.45375C12.4908 8.45375 10.8689 9.80633 10.8689 11.4729C10.8689 13.1395 12.4908 14.492 14.4919 14.492C16.493 14.492 18.1148 15.8446 18.1148 17.5112C18.1148 19.1778 16.493 20.5303 14.4919 20.5303C12.4908 20.5303 10.8689 19.1778 10.8689 17.5112" stroke="#4CAF50" stroke-width="1.5" stroke-linecap="round"/>
</svg>
