<svg width="18" height="18" viewBox="0 0 18 18" fill="none" xmlns="http://www.w3.org/2000/svg">
<path d="M11.1833 5.95829C10.8333 6.19163 9.72501 6.82496 9.55834 6.94996C9.23334 7.20829 8.93334 7.19163 8.60834 6.94163C8.44167 6.80829 7.33334 6.17496 6.98334 5.94996C6.58334 5.69163 6.60834 5.36663 7.05 5.18329C8.41667 4.60829 9.78334 4.64996 11.1417 5.20829C11.55 5.38329 11.5667 5.70829 11.1833 5.95829ZM17.2 12.025C16.425 10.2833 15.3667 8.69996 14 7.30829C13.5775 6.86944 13.2735 6.33031 13.1167 5.74163C13.0333 5.46663 12.975 5.18329 12.9167 4.89996C12.75 4.16663 12.675 3.41663 12.3333 2.72496C11.725 1.40829 10.6667 0.724959 9.13334 0.666626C7.62501 0.708293 6.50001 1.34163 5.84167 2.66663C5.66667 3.02496 5.54167 3.39996 5.45834 3.78329C5.31667 4.41663 5.19167 5.07496 5.04167 5.71663C4.91667 6.25829 4.66667 6.72496 4.24167 7.14163C2.90001 8.44996 1.82501 9.94996 1.00834 11.6C0.891672 11.8416 0.775005 12.0833 0.700005 12.3333C0.541672 12.8833 0.941672 13.2666 1.52501 13.1333C1.89167 13.0583 2.25834 12.9833 2.60834 12.875C2.95001 12.75 3.08334 12.8333 3.16667 13.1666C3.70834 14.9583 4.89167 16.2166 6.70001 16.9166C10.1333 18.2166 14.1417 16.3666 15.0083 13.1C15.0667 12.875 15.15 12.7916 15.4 12.875C15.7833 12.9916 16.175 13.075 16.5667 13.1666C16.975 13.2416 17.275 13.0333 17.3333 12.6333C17.3583 12.4166 17.2833 12.225 17.2 12.025Z" fill="#040505"/>
</svg>
