<svg width="25" height="25" viewBox="0 0 25 25" fill="none" xmlns="http://www.w3.org/2000/svg">
<path d="M19.8277 0.75293C18.7408 0.75293 17.4123 1.95981 17.4123 3.1667H7.75108C7.75108 1.95981 6.42265 0.75293 5.33576 0.75293H0.505127V11.6149C0.505127 12.8218 1.71279 14.0287 2.92044 14.0287H5.57729C6.06035 16.4424 7.63031 18.4941 11.3741 18.8562V21.3665C7.75108 21.9217 7.75108 24.8906 7.75108 24.8906H17.4123C17.4123 24.8906 17.4123 21.9217 13.7894 21.3665V18.8562C17.5331 18.4941 19.1031 16.4424 19.5861 14.0287H22.243C23.4506 14.0287 24.6583 12.8218 24.6583 11.6149V0.75293H19.8277ZM5.33576 11.6149H2.92044V3.1667H5.33576V11.6149ZM17.4123 12.2183C17.4123 14.5476 16.7119 16.4424 12.5817 16.4424C8.46359 16.4424 7.75108 14.5476 7.75108 12.2183V5.58047H17.4123V12.2183ZM22.243 11.6149H19.8277V3.1667H22.243V11.6149Z" fill="#43B02A"/>
</svg>
