<svg width="90" height="91" viewBox="0 0 90 91" fill="none" xmlns="http://www.w3.org/2000/svg">
<circle cx="45" cy="45.8838" r="45" fill="#FE6F32" fill-opacity="0.2"/>
<path d="M55.5 52.2684L58.125 54.8684V46.0838H55.5V52.2684ZM60.0938 46.0838H62.7188V55.8338H60.0938V46.0838ZM53.8143 35.8508C53.0739 36.7112 52.6362 37.7869 52.5674 38.9154C52.4986 40.044 52.8024 41.164 53.433 42.1064L53.9225 42.8338H57.0775L55.6173 40.6644C55.3026 40.1942 55.151 39.6353 55.1853 39.0722C55.2197 38.509 55.4381 37.9723 55.8076 37.543C56.5715 36.663 57.0149 35.5544 57.0666 34.3951C57.1184 33.2357 56.7755 32.0927 56.093 31.1494L55.613 30.4838H52.6125L52.4632 30.5894L53.9568 32.6605C54.2974 33.1312 54.4684 33.7015 54.4426 34.28C54.4168 34.8585 54.1955 35.4117 53.8143 35.8508ZM59.7206 35.8508C58.9801 36.7112 58.5424 37.7869 58.4736 38.9154C58.4048 40.044 58.7087 41.164 59.3392 42.1064L59.8288 42.8338H62.9837L61.5236 40.6644C61.2089 40.1942 61.0573 39.6353 61.0916 39.0722C61.1259 38.509 61.3443 37.9723 61.7139 37.543C62.4777 36.663 62.9211 35.5544 62.9729 34.3951C63.0246 33.2357 62.6817 32.0927 61.9993 31.1494L61.5192 30.4838H58.5187L58.3695 30.5894L59.8631 32.6605C60.2036 33.1312 60.3747 33.7015 60.3488 34.28C60.323 34.8585 60.1018 35.4117 59.7206 35.8508ZM45.5436 46.0838L27.1686 27.8838H25.3125V29.7222L41.8314 46.0838H25.3125V55.8338H51.6751L62.8314 66.8838H64.6875V65.0453L45.5436 46.0838ZM27.9375 53.2338V48.6838H44.4564L49.0501 53.2338H27.9375Z" fill="#FF7439"/>
</svg>
