<svg width="17" height="18" viewBox="0 0 17 18" fill="none" xmlns="http://www.w3.org/2000/svg">
<path d="M13.9535 12.3004C13.5169 12.3005 13.0862 12.4009 12.6947 12.5941C12.3032 12.7872 11.9613 13.0678 11.6956 13.4142L5.54817 9.92518C5.75473 9.32585 5.75473 8.67462 5.54817 8.07528L11.6956 4.58626C12.1247 5.14299 12.7445 5.52135 13.4358 5.64854C14.1271 5.77574 14.841 5.64277 15.4402 5.27524C16.0393 4.90771 16.4814 4.33157 16.6813 3.6577C16.8812 2.98383 16.8248 2.25983 16.523 1.62502C16.2212 0.990213 15.6953 0.489448 15.0465 0.219087C14.3977 -0.0512752 13.6718 -0.072131 13.0085 0.160532C12.3452 0.393196 11.7914 0.862939 11.4537 1.47937C11.1159 2.0958 11.0181 2.81537 11.179 3.49961L4.9268 7.04811C4.53557 6.63192 4.02831 6.34288 3.47081 6.21849C2.91331 6.0941 2.3313 6.14009 1.80025 6.35051C1.26921 6.56092 0.813645 6.92604 0.492639 7.39852C0.171633 7.87099 0 8.42902 0 9.00023C0 9.57144 0.171633 10.1295 0.492639 10.6019C0.813645 11.0744 1.26921 11.4395 1.80025 11.65C2.3313 11.8604 2.91331 11.9064 3.47081 11.782C4.02831 11.6576 4.53557 11.3685 4.9268 10.9524L11.179 14.5009C11.0442 15.0769 11.092 15.6806 11.3158 16.2282C11.5396 16.7758 11.9282 17.2402 12.4279 17.557C12.9275 17.8738 13.5133 18.0272 14.104 17.996C14.6948 17.9649 15.2612 17.7506 15.7247 17.383C16.1882 17.0154 16.5258 16.5127 16.6907 15.9445C16.8556 15.3764 16.8396 14.771 16.6449 14.2124C16.4502 13.6538 16.0866 13.1696 15.6043 12.827C15.122 12.4844 14.5451 12.3003 13.9535 12.3004ZM13.9535 1.19985C14.2799 1.19985 14.5989 1.29662 14.8702 1.47794C15.1416 1.65925 15.3531 1.91696 15.478 2.21847C15.6029 2.51998 15.6355 2.85176 15.5719 3.17184C15.5082 3.49193 15.351 3.78594 15.1203 4.01671C14.8895 4.24748 14.5955 4.40464 14.2754 4.4683C13.9553 4.53197 13.6236 4.4993 13.322 4.3744C13.0205 4.24951 12.7628 4.03802 12.5815 3.76666C12.4002 3.49531 12.3034 3.17628 12.3034 2.84993C12.3039 2.41245 12.4779 1.99303 12.7872 1.68368C13.0966 1.37434 13.516 1.20033 13.9535 1.19985ZM2.85295 10.6503C2.52659 10.6503 2.20757 10.5535 1.93621 10.3722C1.66486 10.1909 1.45336 9.9332 1.32847 9.63169C1.20358 9.33018 1.17091 8.9984 1.23457 8.67832C1.29824 8.35823 1.4554 8.06422 1.68617 7.83345C1.91693 7.60268 2.21095 7.44552 2.53103 7.38186C2.85112 7.31819 3.1829 7.35086 3.48441 7.47575C3.78592 7.60065 4.04363 7.81214 4.22494 8.0835C4.40625 8.35485 4.50303 8.67388 4.50303 9.00023C4.50254 9.43771 4.32854 9.85713 4.0192 10.1665C3.70985 10.4758 3.29043 10.6498 2.85295 10.6503ZM13.9535 16.8006C13.6271 16.8006 13.3081 16.7038 13.0368 16.5225C12.7654 16.3412 12.5539 16.0835 12.429 15.782C12.3041 15.4805 12.2715 15.1487 12.3351 14.8286C12.3988 14.5085 12.5559 14.2145 12.7867 13.9838C13.0175 13.753 13.3115 13.5958 13.6316 13.5322C13.9517 13.4685 14.2834 13.5012 14.585 13.6261C14.8865 13.7509 15.1442 13.9624 15.3255 14.2338C15.5068 14.5052 15.6036 14.8242 15.6036 15.1505C15.6031 15.588 15.4291 16.0074 15.1197 16.3168C14.8104 16.6261 14.391 16.8001 13.9535 16.8006Z" fill="#508CAE"/>
</svg>
