<svg width="20" height="20" viewBox="0 0 20 20" fill="none" xmlns="http://www.w3.org/2000/svg">
<path d="M12.4796 2.51594L13.2796 1.0726C13.2898 1.05411 13.2963 1.03378 13.2987 1.01278C13.3011 0.991777 13.2993 0.970512 13.2934 0.950199C13.2876 0.929887 13.2778 0.910923 13.2646 0.894393C13.2515 0.877862 13.2352 0.864087 13.2167 0.853855C13.1982 0.843623 13.1779 0.837134 13.1569 0.834758C13.1359 0.832382 13.1146 0.834166 13.0943 0.840009C13.074 0.845851 13.055 0.855637 13.0385 0.868808C13.0219 0.881979 13.0082 0.898277 12.9979 0.916772L12.1896 2.3751C11.4996 2.07256 10.7543 1.91636 10.0008 1.91636C9.2474 1.91636 8.50213 2.07256 7.8121 2.3751L7.00376 0.916772C6.9831 0.879199 6.94835 0.851375 6.90717 0.839419C6.86599 0.827464 6.82175 0.832357 6.78418 0.853022C6.74661 0.873686 6.71878 0.90843 6.70683 0.94961C6.69487 0.99079 6.69977 1.03503 6.72043 1.0726L7.52043 2.51594C6.75925 2.89135 6.11615 3.46911 5.66164 4.18586C5.20712 4.90262 4.95875 5.73069 4.94376 6.57927H15.0579C15.0428 5.73051 14.7942 4.90232 14.3393 4.18555C13.8845 3.46878 13.2411 2.89112 12.4796 2.51594ZM7.6671 4.72844C7.5835 4.72844 7.50178 4.70364 7.43228 4.65718C7.36278 4.61071 7.30863 4.54468 7.27668 4.46743C7.24472 4.39018 7.23641 4.30519 7.25278 4.22321C7.26915 4.14123 7.30947 4.06595 7.36864 4.00689C7.42781 3.94784 7.50317 3.90766 7.58518 3.89145C7.66719 3.87525 7.75217 3.88373 7.82936 3.91584C7.90655 3.94794 7.97247 4.00223 8.0188 4.07182C8.06512 4.14141 8.08976 4.22317 8.0896 4.30677C8.08938 4.41868 8.04477 4.52593 7.96556 4.60499C7.88634 4.68404 7.77901 4.72844 7.6671 4.72844ZM12.3354 4.72844C12.2518 4.72844 12.1701 4.70364 12.1006 4.65718C12.0311 4.61071 11.977 4.54468 11.945 4.46743C11.9131 4.39018 11.9047 4.30519 11.9211 4.22321C11.9375 4.14123 11.9778 4.06595 12.037 4.00689C12.0961 3.94784 12.1715 3.90766 12.2535 3.89145C12.3355 3.87525 12.4205 3.88373 12.4977 3.91584C12.5749 3.94794 12.6408 4.00223 12.6871 4.07182C12.7335 4.14141 12.7581 4.22317 12.7579 4.30677C12.7577 4.41868 12.7131 4.52593 12.6339 4.60499C12.5547 4.68404 12.4473 4.72844 12.3354 4.72844ZM4.9421 14.3093C4.94188 14.4702 4.97342 14.6295 5.03491 14.7782C5.09641 14.9269 5.18664 15.0619 5.30045 15.1757C5.41426 15.2894 5.54939 15.3795 5.69811 15.4409C5.84683 15.5023 6.00621 15.5338 6.1671 15.5334H6.97793V18.0334C6.97793 18.3341 7.09738 18.6225 7.31 18.8351C7.52262 19.0477 7.81099 19.1672 8.11168 19.1672C8.41237 19.1672 8.70074 19.0477 8.91336 18.8351C9.12598 18.6225 9.24543 18.3341 9.24543 18.0334V15.5334H10.7571V18.0334C10.7571 18.334 10.8765 18.6223 11.089 18.8348C11.3016 19.0474 11.5899 19.1668 11.8904 19.1668C12.191 19.1668 12.4793 19.0474 12.6918 18.8348C12.9044 18.6223 13.0238 18.334 13.0238 18.0334V15.5334H13.8354C13.9961 15.5335 14.1552 15.502 14.3037 15.4405C14.4522 15.3791 14.5871 15.289 14.7007 15.1754C14.8143 15.0618 14.9044 14.9269 14.9659 14.7784C15.0273 14.6299 15.0589 14.4708 15.0588 14.3101V6.97927H4.9421V14.3093ZM3.38626 6.78427C3.08568 6.78471 2.79754 6.90437 2.58507 7.117C2.3726 7.32962 2.25315 7.61785 2.25293 7.91844V12.6426C2.25293 12.7914 2.28224 12.9388 2.3392 13.0763C2.39615 13.2138 2.47964 13.3388 2.58488 13.444C2.69012 13.5492 2.81505 13.6327 2.95256 13.6897C3.09006 13.7466 3.23743 13.7759 3.38626 13.7759C3.53509 13.7759 3.68247 13.7466 3.81997 13.6897C3.95747 13.6327 4.08241 13.5492 4.18765 13.444C4.29289 13.3388 4.37637 13.2138 4.43333 13.0763C4.49028 12.9388 4.5196 12.7914 4.5196 12.6426V7.91844C4.51916 7.618 4.39961 7.32998 4.18716 7.11754C3.97472 6.90509 3.68671 6.78555 3.38626 6.78511V6.78427ZM16.6129 6.78427C16.3123 6.78471 16.0242 6.90437 15.8117 7.117C15.5993 7.32962 15.4798 7.61785 15.4796 7.91844V12.6426C15.4796 12.7914 15.5089 12.9388 15.5659 13.0763C15.6228 13.2138 15.7063 13.3388 15.8115 13.444C15.9168 13.5492 16.0417 13.6327 16.1792 13.6897C16.3167 13.7466 16.4641 13.7759 16.6129 13.7759C16.7618 13.7759 16.9091 13.7466 17.0466 13.6897C17.1841 13.6327 17.3091 13.5492 17.4143 13.444C17.5196 13.3388 17.603 13.2138 17.66 13.0763C17.7169 12.9388 17.7463 12.7914 17.7463 12.6426V7.91844C17.7458 7.618 17.6263 7.32998 17.4138 7.11754C17.2014 6.90509 16.9134 6.78555 16.6129 6.78511V6.78427Z" fill="#040505"/>
</svg>
