<svg width="20" height="20" viewBox="0 0 20 20" fill="none" xmlns="http://www.w3.org/2000/svg">
<path d="M8.18949 18.1357C4.45866 17.309 1.66699 13.9807 1.66699 9.99984C1.66699 8.48151 2.07283 7.05818 2.78283 5.83151L6.35199 12.014C6.75298 12.7408 7.36195 13.3312 8.10077 13.7095C8.83959 14.0878 9.67459 14.2368 10.4987 14.1373L8.19033 18.1357H8.18949ZM10.0003 18.3332L13.5728 12.1457C13.9628 11.4979 14.1682 10.7559 14.167 9.99984C14.1683 9.09809 13.8758 8.22045 13.3337 7.49984H17.952C18.2059 8.30885 18.3346 9.15193 18.3337 9.99984C18.3337 14.6023 14.6028 18.3332 10.0003 18.3332ZM12.1437 11.2873C11.9197 11.6606 11.6022 11.969 11.2225 12.1818C10.8428 12.3946 10.414 12.5046 9.97877 12.5008C9.54349 12.497 9.11675 12.3796 8.74079 12.1602C8.36484 11.9408 8.05272 11.627 7.83533 11.2498L7.81116 11.2082C7.60013 10.8258 7.49298 10.3947 7.50036 9.95804C7.50774 9.52133 7.62941 9.09418 7.85324 8.71913C8.07707 8.34407 8.39525 8.0342 8.7761 7.82037C9.15695 7.60655 9.58717 7.49623 10.0239 7.50041C10.4607 7.50459 10.8887 7.62312 11.2654 7.84419C11.6421 8.06527 11.9543 8.38117 12.1709 8.76044C12.3875 9.13971 12.501 9.56912 12.5 10.0059C12.499 10.4427 12.3836 10.8715 12.1653 11.2498L12.1437 11.2873ZM3.86033 4.36568C4.64011 3.51392 5.58882 2.834 6.64598 2.36927C7.70313 1.90454 8.84553 1.6652 10.0003 1.66651C11.4634 1.66592 12.9009 2.0507 14.1681 2.78215C15.4352 3.5136 16.4874 4.56591 17.2187 5.83318H10.0003C9.18411 5.833 8.38581 6.07251 7.7045 6.52198C7.02319 6.97144 6.48886 7.61108 6.16783 8.36151L3.86033 4.36568Z" fill="#040505"/>
</svg>
