<svg width="73" height="72" viewBox="0 0 73 72" fill="none" xmlns="http://www.w3.org/2000/svg">
<path d="M32 13.4996C32 10.874 30.957 8.35586 29.1004 6.49925C27.2438 4.64264 24.7256 3.59961 22.1 3.59961C19.4744 3.59961 16.9563 4.64264 15.0996 6.49925C13.243 8.35586 12.2 10.874 12.2 13.4996C12.2 16.1253 13.243 18.6434 15.0996 20.5C16.9563 22.3566 19.4744 23.3996 22.1 23.3996C24.7256 23.3996 27.2438 22.3566 29.1004 20.5C30.957 18.6434 32 16.1253 32 13.4996ZM15.8 13.4996C15.8 12.6723 15.963 11.8531 16.2796 11.0887C16.5962 10.3244 17.0602 9.62984 17.6452 9.04484C18.2302 8.45983 18.9247 7.99577 19.6891 7.67917C20.4535 7.36256 21.2727 7.19961 22.1 7.19961C22.9273 7.19961 23.7466 7.36256 24.5109 7.67917C25.2753 7.99577 25.9698 8.45983 26.5548 9.04484C27.1398 9.62984 27.6038 10.3244 27.9204 11.0887C28.2371 11.8531 28.4 12.6723 28.4 13.4996C28.4 15.1705 27.7363 16.7729 26.5548 17.9544C25.3733 19.1359 23.7709 19.7996 22.1 19.7996C20.4291 19.7996 18.8267 19.1359 17.6452 17.9544C16.4638 16.7729 15.8 15.1705 15.8 13.4996ZM9.50001 26.9996H24.5588C23.9684 28.1156 23.5292 29.3252 23.27 30.5996H9.50001C9.02262 30.5996 8.56478 30.7892 8.22721 31.1268C7.88965 31.4644 7.70001 31.9222 7.70001 32.3996V34.1996C7.70001 38.7356 11.6564 43.61 18.8456 44.7476C17.6864 45.5396 16.7216 46.5944 16.034 47.822C8.43801 45.7664 4.10001 39.9128 4.10001 34.1996V32.3996C4.10001 30.9674 4.66893 29.5939 5.68163 28.5812C6.69433 27.5685 8.06784 26.9996 9.50001 26.9996ZM28.8644 26.9996C30.6788 24.8036 33.4256 23.3996 36.5 23.3996C38.6559 23.3958 40.7539 24.0975 42.4738 25.3975C44.1937 26.6975 45.4411 28.5244 46.0256 30.5996C46.5466 32.4518 46.5173 34.4156 45.9411 36.2514C45.3649 38.0872 44.2668 39.7155 42.7808 40.9378C41.2948 42.16 39.4851 42.9233 37.5727 43.1344C35.6602 43.3456 33.7276 42.9954 32.0108 42.1268C30.6889 41.454 29.5351 40.4929 28.6346 39.3143C27.7341 38.1357 27.11 36.7698 26.8083 35.3176C26.5066 33.8654 26.535 32.3639 26.8915 30.9242C27.248 29.4845 27.9199 28.1432 28.8644 26.9996ZM30.812 30.5996C30.4574 31.3475 30.2536 32.1579 30.2123 32.9846C30.1709 33.8113 30.2928 34.638 30.5709 35.4175C31.1326 36.9919 32.2967 38.2787 33.8072 38.9948C35.3177 39.7109 37.0507 39.7976 38.6251 39.2359C40.1995 38.6742 41.4863 37.5101 42.2024 35.9996C42.9185 34.4887 43.005 32.7552 42.443 31.1804C41.8809 29.6057 40.7163 28.3187 39.2054 27.6026C37.6945 26.8865 35.9609 26.8 34.3862 27.362C32.8115 27.9241 31.5245 29.0887 30.8084 30.5996M56.966 47.822C56.2817 46.5927 55.3187 45.541 54.1544 44.7512C61.34 43.61 65.3 38.732 65.3 34.1996V32.3996C65.3 31.9222 65.1104 31.4644 64.7728 31.1268C64.4352 30.7892 63.9774 30.5996 63.5 30.5996H49.73C49.4769 29.3441 49.0441 28.1316 48.4448 26.9996H63.5C64.9322 26.9996 66.3057 27.5685 67.3184 28.5812C68.3311 29.5939 68.9 30.9674 68.9 32.3996V34.1996C68.9 39.9128 64.5584 45.7628 56.966 47.822ZM52.6532 48.1352C51.6695 47.2747 50.407 46.8001 49.1 46.7996H23.9C23.1903 46.7977 22.4873 46.9361 21.8313 47.2068C21.1753 47.4775 20.5792 47.8752 20.0774 48.377C19.5756 48.8788 19.1779 49.4749 18.9072 50.1309C18.6365 50.7869 18.4981 51.4899 18.5 52.1996V53.9996C18.5 61.0952 25.196 68.3996 36.5 68.3996C47.804 68.3996 54.5 61.0952 54.5 53.9996V52.1996C54.5 50.5796 53.7872 49.1252 52.6532 48.1316M22.1 52.1996C22.1 51.7222 22.2896 51.2644 22.6272 50.9268C22.9648 50.5892 23.4226 50.3996 23.9 50.3996H49.1C49.5774 50.3996 50.0352 50.5892 50.3728 50.9268C50.7104 51.2644 50.9 51.7222 50.9 52.1996V53.9996C50.9 59.1764 45.7448 64.7996 36.5 64.7996C27.2552 64.7996 22.1 59.1764 22.1 53.9996V52.1996ZM50.9 3.59961C53.5256 3.59961 56.0438 4.64264 57.9004 6.49925C59.757 8.35586 60.8 10.874 60.8 13.4996C60.8 16.1253 59.757 18.6434 57.9004 20.5C56.0438 22.3566 53.5256 23.3996 50.9 23.3996C48.2744 23.3996 45.7563 22.3566 43.8996 20.5C42.043 18.6434 41 16.1253 41 13.4996C41 10.874 42.043 8.35586 43.8996 6.49925C45.7563 4.64264 48.2744 3.59961 50.9 3.59961ZM50.9 7.19961C49.2291 7.19961 47.6267 7.86336 46.4452 9.04484C45.2637 10.2263 44.6 11.8287 44.6 13.4996C44.6 15.1705 45.2637 16.7729 46.4452 17.9544C47.6267 19.1359 49.2291 19.7996 50.9 19.7996C52.5709 19.7996 54.1733 19.1359 55.3548 17.9544C56.5363 16.7729 57.2 15.1705 57.2 13.4996C57.2 11.8287 56.5363 10.2263 55.3548 9.04484C54.1733 7.86336 52.5709 7.19961 50.9 7.19961Z" fill="#508CAE"/>
</svg>
