<svg width="85" height="84" viewBox="0 0 85 84" fill="none" xmlns="http://www.w3.org/2000/svg">
<g clip-path="url(#clip0_2357_4575)">
<path d="M56.5 10.5C59.1782 10.4999 61.7553 11.5231 63.7039 13.3605C65.6525 15.1978 66.8254 17.7104 66.9825 20.384L67 21V56H69.625C71.8895 56 73.755 57.722 73.979 59.927L74 60.375V66.5C74.0002 69.1782 72.9769 71.7553 71.1395 73.7039C69.3022 75.6525 66.7896 76.8254 64.116 76.9825L63.5 77H28.5C25.8218 77.0002 23.2447 75.9769 21.2961 74.1395C19.3475 72.3022 18.1746 69.7896 18.0175 67.116L18 66.5V31.5H11.875C10.7919 31.5005 9.74711 31.0992 8.94282 30.3738C8.13853 29.6484 7.63191 28.6504 7.521 27.573L7.5 27.125V21C7.49985 18.3218 8.52314 15.7447 10.3605 13.7961C12.1978 11.8475 14.7104 10.6746 17.384 10.5175L18 10.5H56.5ZM56.5 17.5H25V66.5C25 67.4283 25.3687 68.3185 26.0251 68.9749C26.6815 69.6313 27.5717 70 28.5 70C29.4283 70 30.3185 69.6313 30.9749 68.9749C31.6313 68.3185 32 67.4283 32 66.5V60.375C32 57.96 33.96 56 36.375 56H60V21C60 20.0717 59.6313 19.1815 58.9749 18.5251C58.3185 17.8687 57.4283 17.5 56.5 17.5ZM67 63H39V66.5C39 67.725 38.79 68.9045 38.405 70H63.5C64.4283 70 65.3185 69.6313 65.9749 68.9749C66.6313 68.3185 67 67.4283 67 66.5V63ZM42.5 42C43.4283 42 44.3185 42.3687 44.9749 43.0251C45.6312 43.6815 46 44.5717 46 45.5C46 46.4283 45.6312 47.3185 44.9749 47.9749C44.3185 48.6312 43.4283 49 42.5 49H35.5C34.5717 49 33.6815 48.6312 33.0251 47.9749C32.3687 47.3185 32 46.4283 32 45.5C32 44.5717 32.3687 43.6815 33.0251 43.0251C33.6815 42.3687 34.5717 42 35.5 42H42.5ZM49.5 28C50.4283 28 51.3185 28.3687 51.9749 29.0251C52.6312 29.6815 53 30.5717 53 31.5C53 32.4283 52.6312 33.3185 51.9749 33.9749C51.3185 34.6313 50.4283 35 49.5 35H35.5C34.5717 35 33.6815 34.6313 33.0251 33.9749C32.3687 33.3185 32 32.4283 32 31.5C32 30.5717 32.3687 29.6815 33.0251 29.0251C33.6815 28.3687 34.5717 28 35.5 28H49.5ZM18 17.5C17.1427 17.5001 16.3153 17.8148 15.6747 18.3845C15.0341 18.9542 14.6248 19.7391 14.5245 20.5905L14.5 21V24.5H18V17.5Z" fill="#508CAE"/>
</g>
<defs>
<clipPath id="clip0_2357_4575">
<rect width="84" height="84" fill="white" transform="translate(0.5)"/>
</clipPath>
</defs>
</svg>
