<svg width="77" height="77" viewBox="0 0 77 77" fill="none" xmlns="http://www.w3.org/2000/svg">
<path d="M50.5312 6.41699C52.4458 6.41699 54.2819 7.17754 55.6357 8.53131C56.9895 9.88509 57.75 11.7212 57.75 13.6357V63.3649C57.75 65.2794 56.9895 67.1156 55.6357 68.4693C54.2819 69.8231 52.4458 70.5837 50.5312 70.5837H26.4688C24.5542 70.5837 22.7181 69.8231 21.3643 68.4693C20.0105 67.1156 19.25 65.2794 19.25 63.3649V13.6357C19.25 11.7212 20.0105 9.88509 21.3643 8.53131C22.7181 7.17754 24.5542 6.41699 26.4688 6.41699H50.5312ZM50.5312 11.2295H26.4688C25.8306 11.2295 25.2185 11.483 24.7673 11.9343C24.316 12.3855 24.0625 12.9976 24.0625 13.6357V63.3649C24.0625 64.6932 25.1405 65.7712 26.4688 65.7712H50.5312C51.1694 65.7712 51.7815 65.5176 52.2327 65.0664C52.684 64.6151 52.9375 64.0031 52.9375 63.3649V13.6357C52.9375 12.9976 52.684 12.3855 52.2327 11.9343C51.7815 11.483 51.1694 11.2295 50.5312 11.2295ZM42.5072 56.1462C43.1454 56.1453 43.7578 56.398 44.2096 56.8487C44.6615 57.2993 44.9158 57.911 44.9167 58.5492C44.9175 59.1874 44.6648 59.7998 44.2142 60.2516C43.7635 60.7035 43.1518 60.9578 42.5136 60.9587L34.4928 60.9715C33.8546 60.9723 33.2422 60.7196 32.7904 60.269C32.3385 59.8183 32.0842 59.2066 32.0833 58.5684C32.0825 57.9303 32.3352 57.3179 32.7858 56.866C33.2365 56.4142 33.8482 56.1598 34.4864 56.159L42.5072 56.1462Z" fill="#508CAE"/>
</svg>
